<svg width="831" height="821" xmlns="http://www.w3.org/2000/svg"><g fill="none" fill-rule="evenodd"><path d="m424.6 254.065-.044-.001a154.769 154.769 0 0 0-5.94-.058h-.016a1.5 1.5 0 0 1-.016-3c2.021-.02 4.046.001 6.058.06a1.5 1.5 0 0 1-.042 2.999zm-17.982.496a1.502 1.502 0 0 1-1.494-1.374 1.502 1.502 0 0 1 1.37-1.62c1.993-.168 4.026-.3 6.041-.394.803-.047 1.529.602 1.567 1.43a1.5 1.5 0 0 1-1.429 1.566c-1.977.093-3.971.222-5.927.387a1.85 1.85 0 0 1-.128.005zm29.95.292a1.65 1.65 0 0 1-.157-.008 159.099 159.099 0 0 0-5.92-.502 1.5 1.5 0 1 1 .199-2.994c2.02.135 4.05.306 6.031.513a1.5 1.5 0 0 1-.153 2.992zm-41.855 1.166a1.5 1.5 0 0 1-.237-2.98c1.978-.32 3.995-.605 5.996-.85a1.5 1.5 0 1 1 .363 2.979c-1.963.238-3.941.518-5.881.832a1.524 1.524 0 0 1-.241.019zm53.729.526c-.089 0-.179-.007-.27-.024a156.417 156.417 0 0 0-5.865-.948 1.5 1.5 0 0 1 .424-2.97c1.995.284 4.006.61 5.976.968a1.497 1.497 0 0 1 1.208 1.743 1.497 1.497 0 0 1-1.473 1.232zm-65.488 1.832a1.5 1.5 0 0 1-.349-2.959c1.95-.469 3.939-.907 5.912-1.303a1.505 1.505 0 0 1 1.766 1.177 1.5 1.5 0 0 1-1.176 1.765c-1.936.388-3.888.818-5.801 1.279a1.517 1.517 0 0 1-.352.04zm77.198.758c-.126 0-.253-.014-.381-.048a158.68 158.68 0 0 0-5.775-1.394 1.5 1.5 0 0 1 .649-2.93c1.95.433 3.931.91 5.886 1.422a1.5 1.5 0 0 1-.379 2.95zm-88.742 2.492a1.499 1.499 0 0 1-.462-2.927 156.884 156.884 0 0 1 5.797-1.752 1.501 1.501 0 0 1 .812 2.888 159.972 159.972 0 0 0-5.686 1.717c-.153.05-.309.074-.461.074zm100.218.986c-.162 0-.327-.027-.49-.082a152.352 152.352 0 0 0-5.65-1.83 1.499 1.499 0 1 1 .869-2.872c1.922.582 3.86 1.21 5.762 1.865a1.5 1.5 0 0 1-.491 2.918zm-111.51 3.147a1.499 1.499 0 0 1-.571-2.887 160.271 160.271 0 0 1 5.659-2.197 1.498 1.498 0 0 1 1.924.894 1.499 1.499 0 0 1-.892 1.923 154.68 154.68 0 0 0-5.552 2.154 1.504 1.504 0 0 1-.568.113zm122.673 1.192c-.199 0-.401-.04-.595-.125a155.861 155.861 0 0 0-5.48-2.25 1.5 1.5 0 1 1 1.088-2.797 159.11 159.11 0 0 1 5.584 2.296 1.5 1.5 0 0 1-.597 2.876zm-133.612 3.793a1.5 1.5 0 0 1-.675-2.84c1.79-.901 3.631-1.782 5.472-2.622a1.5 1.5 0 0 1 1.244 2.73 155.997 155.997 0 0 0-5.368 2.571c-.216.11-.446.16-.673.16zm144.404 1.378c-.236 0-.475-.055-.698-.173a154.152 154.152 0 0 0-5.296-2.662 1.5 1.5 0 1 1 1.295-2.706c1.802.863 3.618 1.776 5.4 2.714a1.502 1.502 0 0 1-.701 2.828zm-154.922 4.42a1.503 1.503 0 0 1-1.287-.725 1.503 1.503 0 0 1 .511-2.06 162.004 162.004 0 0 1 5.253-3.027 1.499 1.499 0 1 1 1.449 2.627 154.16 154.16 0 0 0-5.153 2.971c-.242.145-.51.214-.773.214zm-10.046 6.582a1.5 1.5 0 0 1-.87-2.724 162.045 162.045 0 0 1 5.005-3.416 1.501 1.501 0 0 1 1.645 2.51 155.409 155.409 0 0 0-4.912 3.351 1.492 1.492 0 0 1-.868.279zm-9.513 7.317c-.431 0-.858-.185-1.155-.543a1.498 1.498 0 0 1 .196-2.111 167.989 167.989 0 0 1 4.729-3.784 1.499 1.499 0 1 1 1.831 2.377 162.315 162.315 0 0 0-4.644 3.714 1.49 1.49 0 0 1-.957.346zm204.115 1.894a1.5 1.5 0 0 1-.979-.365 154.476 154.476 0 0 0-4.568-3.795 1.5 1.5 0 0 1 1.873-2.342 159.892 159.892 0 0 1 4.656 3.865 1.5 1.5 0 0 1-.982 2.637zm-213.046 6.118a1.501 1.501 0 0 1-1.043-2.577 161.277 161.277 0 0 1 4.43-4.129 1.5 1.5 0 0 1 2.004 2.233 158.541 158.541 0 0 0-4.348 4.052 1.498 1.498 0 0 1-1.043.421zm-8.298 8.66a1.5 1.5 0 0 1-1.12-2.496 161.822 161.822 0 0 1 4.105-4.45 1.501 1.501 0 0 1 2.166 2.077 157.272 157.272 0 0 0-4.028 4.365 1.496 1.496 0 0 1-1.123.505zm-7.617 9.257a1.5 1.5 0 0 1-1.192-2.409 159.188 159.188 0 0 1 3.756-4.745 1.5 1.5 0 1 1 2.316 1.908 156.073 156.073 0 0 0-3.685 4.654 1.498 1.498 0 0 1-1.195.591zm-6.891 9.799a1.5 1.5 0 0 1-1.258-2.315 156.725 156.725 0 0 1 3.385-5.014 1.5 1.5 0 0 1 2.453 1.727 154.635 154.635 0 0 0-3.321 4.918 1.497 1.497 0 0 1-1.259.684zm-6.13 10.288a1.5 1.5 0 0 1-1.317-2.218 157.133 157.133 0 0 1 2.995-5.25 1.501 1.501 0 0 1 2.578 1.534 155.942 155.942 0 0 0-2.938 5.151 1.5 1.5 0 0 1-1.318.784zm-5.325 10.716c-.206 0-.415-.041-.616-.13a1.502 1.502 0 0 1-.751-1.986c.825-1.83 1.694-3.666 2.585-5.46a1.499 1.499 0 1 1 2.686 1.337 157.02 157.02 0 0 0-2.536 5.356 1.5 1.5 0 0 1-1.368.884zm-4.499 11.103a1.5 1.5 0 0 1-1.412-2.01 159.6 159.6 0 0 1 2.168-5.656 1.5 1.5 0 1 1 2.78 1.127 152.43 152.43 0 0 0-2.125 5.548c-.221.61-.797.99-1.411.99zm-9.223 46.9c-.022 0-.042 0-.064-.002a1.5 1.5 0 0 1-1.436-1.56c.084-1.99.208-4.026.37-6.045.066-.825.81-1.423 1.615-1.375a1.5 1.5 0 0 1 1.375 1.615 154.712 154.712 0 0 0-.362 5.93 1.5 1.5 0 0 1-1.498 1.436zm315.809 3.1a1.502 1.502 0 0 1-1.499-1.464 156.593 156.593 0 0 0-.248-5.936 1.5 1.5 0 0 1 1.407-1.589c.849-.069 1.538.58 1.588 1.406.121 2.005.207 4.04.253 6.048a1.5 1.5 0 0 1-1.464 1.535h-.037zm-315.874 8.893a1.5 1.5 0 0 1-1.498-1.452c-.055-1.715-.084-3.47-.084-5.218l.002-.832a1.5 1.5 0 0 1 1.5-1.497h.005a1.5 1.5 0 0 1 1.495 1.505l-.002.825c0 1.715.028 3.438.082 5.12a1.497 1.497 0 0 1-1.45 1.548h-.05zm315.706 3.102-.078-.001a1.5 1.5 0 0 1-1.421-1.576c.102-1.96.167-3.959.195-5.94a1.5 1.5 0 0 1 1.5-1.478h.021a1.5 1.5 0 0 1 1.479 1.522 166.058 166.058 0 0 1-.198 6.05 1.501 1.501 0 0 1-1.498 1.423zm-1.068 11.945a1.5 1.5 0 0 1-1.49-1.689c.25-1.957.465-3.944.641-5.906a1.5 1.5 0 0 1 2.988.267 162.65 162.65 0 0 1-.653 6.019 1.499 1.499 0 0 1-1.486 1.31zm-1.97 11.83a1.498 1.498 0 0 1-1.47-1.802c.397-1.93.762-3.894 1.087-5.839a1.504 1.504 0 0 1 1.725-1.233 1.5 1.5 0 0 1 1.234 1.726c-.33 1.981-.703 3.985-1.109 5.952a1.499 1.499 0 0 1-1.467 1.197zm-2.869 11.647a1.498 1.498 0 0 1-1.442-1.914 152.796 152.796 0 0 0 1.529-5.74 1.5 1.5 0 1 1 2.914.716 156.873 156.873 0 0 1-1.56 5.853 1.5 1.5 0 0 1-1.441 1.086zm-3.75 11.392a1.5 1.5 0 0 1-1.405-2.023 155.335 155.335 0 0 0 1.964-5.605 1.5 1.5 0 1 1 2.849.938 155.662 155.662 0 0 1-2.002 5.714 1.5 1.5 0 0 1-1.406.976zm-292.907 8.287a1.5 1.5 0 0 1-1.375-.899 158.748 158.748 0 0 1-2.329-5.602 1.5 1.5 0 1 1 2.791-1.1 158.645 158.645 0 0 0 2.286 5.5 1.501 1.501 0 0 1-1.373 2.101zm288.313 2.757a1.502 1.502 0 0 1-1.362-2.128 158.178 158.178 0 0 0 2.38-5.427 1.5 1.5 0 1 1 2.77 1.153 159.71 159.71 0 0 1-2.425 5.53 1.5 1.5 0 0 1-1.363.872zm-283.072 8.055a1.5 1.5 0 0 1-1.325-.795 159.197 159.197 0 0 1-2.749-5.405 1.5 1.5 0 0 1 2.699-1.31 157.894 157.894 0 0 0 2.698 5.305 1.499 1.499 0 0 1-1.323 2.205zm277.647 2.613a1.501 1.501 0 0 1-1.31-2.23 154.815 154.815 0 0 0 2.788-5.233 1.5 1.5 0 1 1 2.674 1.36c-.91 1.79-1.866 3.584-2.841 5.334a1.498 1.498 0 0 1-1.311.77zm-6.222 10.233a1.499 1.499 0 0 1-1.25-2.327 157.304 157.304 0 0 0 3.177-5.01 1.5 1.5 0 0 1 2.564 1.558 158.686 158.686 0 0 1-3.239 5.106 1.499 1.499 0 0 1-1.252.673zm-6.982 9.738a1.501 1.501 0 0 1-1.185-2.42 157.553 157.553 0 0 0 3.55-4.757 1.499 1.499 0 1 1 2.437 1.748 160.622 160.622 0 0 1-3.616 4.849c-.296.38-.739.58-1.186.58zm-7.701 9.188a1.5 1.5 0 0 1-1.112-2.507 158.571 158.571 0 0 0 3.901-4.478 1.5 1.5 0 1 1 2.298 1.928 159.951 159.951 0 0 1-3.974 4.563 1.494 1.494 0 0 1-1.113.494zm-8.374 8.585c-.396 0-.792-.158-1.086-.468-.572-.6-.547-1.55.053-2.12a161.291 161.291 0 0 0 4.229-4.174 1.5 1.5 0 1 1 2.146 2.096 162.614 162.614 0 0 1-4.308 4.252c-.29.276-.662.413-1.034.413zm-210.9 6.07c-.343 0-.687-.115-.969-.356a159.574 159.574 0 0 1-4.544-3.998 1.5 1.5 0 1 1 2.026-2.214 155.287 155.287 0 0 0 4.458 3.923 1.502 1.502 0 0 1-.971 2.645zm201.898 1.86a1.5 1.5 0 0 1-.95-2.661 156.776 156.776 0 0 0 4.534-3.846 1.5 1.5 0 1 1 1.983 2.252 164.076 164.076 0 0 1-4.618 3.918c-.28.227-.616.337-.949.337zm-192.465 5.537c-.306 0-.614-.092-.879-.286a159.25 159.25 0 0 1-4.831-3.641 1.501 1.501 0 0 1 1.851-2.362 156.982 156.982 0 0 0 4.739 3.573 1.5 1.5 0 0 1-.88 2.716zm182.886 1.697a1.499 1.499 0 0 1-.859-2.731 159.995 159.995 0 0 0 4.813-3.493 1.5 1.5 0 1 1 1.807 2.394 163.002 163.002 0 0 1-4.903 3.56c-.262.183-.561.27-.858.27zm-172.929 4.962a1.49 1.49 0 0 1-.785-.222 156.772 156.772 0 0 1-5.089-3.265 1.5 1.5 0 0 1 1.668-2.495 153.18 153.18 0 0 0 4.993 3.204 1.5 1.5 0 0 1-.787 2.779zm162.824 1.525a1.499 1.499 0 0 1-.763-2.791 159.02 159.02 0 0 0 5.065-3.119 1.499 1.499 0 1 1 1.621 2.524 159.294 159.294 0 0 1-5.162 3.178c-.24.141-.501.208-.761.208zm-152.396 4.358c-.231 0-.465-.054-.685-.168a157.423 157.423 0 0 1-5.32-2.868 1.5 1.5 0 0 1-.57-2.043 1.505 1.505 0 0 1 2.044-.57 156.04 156.04 0 0 0 5.219 2.815 1.498 1.498 0 0 1-.688 2.834zm141.825 1.345a1.5 1.5 0 0 1-.663-2.846 155.936 155.936 0 0 0 5.292-2.724 1.5 1.5 0 1 1 1.423 2.64 160.993 160.993 0 0 1-5.392 2.778 1.503 1.503 0 0 1-.66.152zm-130.987 3.726a1.47 1.47 0 0 1-.582-.12 157.557 157.557 0 0 1-5.518-2.453 1.499 1.499 0 0 1-.723-1.995 1.496 1.496 0 0 1 1.994-.721c1.782.832 3.604 1.643 5.413 2.407a1.5 1.5 0 0 1-.584 2.881zm120.001 1.159a1.5 1.5 0 0 1-.556-2.893 155.702 155.702 0 0 0 5.486-2.316 1.5 1.5 0 0 1 1.219 2.742 161.739 161.739 0 0 1-5.592 2.359 1.479 1.479 0 0 1-.557.107zm-108.797 3.075c-.157 0-.318-.024-.476-.077a161.822 161.822 0 0 1-5.704-2.033 1.5 1.5 0 0 1 1.06-2.807c1.838.696 3.721 1.367 5.597 1.994a1.502 1.502 0 0 1-.477 2.923zm97.465.956a1.5 1.5 0 0 1-.448-2.933 157.27 157.27 0 0 0 5.652-1.887 1.494 1.494 0 0 1 1.915.912c.278.78-.13 1.638-.911 1.914a158.704 158.704 0 0 1-5.76 1.926 1.481 1.481 0 0 1-.448.067zm-85.954 2.414c-.121 0-.244-.014-.367-.044a158.937 158.937 0 0 1-5.843-1.591 1.498 1.498 0 0 1-1.017-1.861 1.505 1.505 0 0 1 1.861-1.019c1.891.554 3.819 1.08 5.731 1.56a1.5 1.5 0 0 1-.365 2.956zm74.378.729a1.501 1.501 0 0 1-.337-2.963c1.914-.441 3.853-.928 5.762-1.447a1.501 1.501 0 0 1 .785 2.898 167.348 167.348 0 0 1-5.871 1.474 1.587 1.587 0 0 1-.339.038zm-62.643 1.753a1.48 1.48 0 0 1-.255-.021c-1.963-.337-3.964-.72-5.948-1.14a1.5 1.5 0 0 1 .621-2.935c1.946.412 3.909.788 5.834 1.118a1.5 1.5 0 0 1-.252 2.978zm50.861.497a1.502 1.502 0 0 1-.223-2.984c1.939-.294 3.909-.631 5.857-1.003a1.51 1.51 0 0 1 1.754 1.195 1.5 1.5 0 0 1-1.194 1.754c-1.983.376-3.991.72-5.968 1.02a1.574 1.574 0 0 1-.226.018zm-38.972 1.085c-.048 0-.095-.001-.142-.006a160.26 160.26 0 0 1-6.016-.684 1.502 1.502 0 0 1-1.29-1.685 1.505 1.505 0 0 1 1.684-1.29 156.8 156.8 0 0 0 5.903.672 1.5 1.5 0 0 1-.139 2.993zm27.056.262a1.5 1.5 0 0 1-.111-2.996 161.06 161.06 0 0 0 5.915-.556c.811-.104 1.566.499 1.659 1.322a1.5 1.5 0 0 1-1.323 1.659c-1.997.226-4.024.417-6.026.567a1.447 1.447 0 0 1-.114.004zm-15.082.418h-.03a160.737 160.737 0 0 1-6.05-.23 1.501 1.501 0 0 1-1.413-1.582 1.506 1.506 0 0 1 1.583-1.413c1.968.111 3.966.188 5.937.225a1.5 1.5 0 0 1-.027 3zm3.098.03a1.5 1.5 0 0 1 0-3c1.981 0 3.979-.038 5.941-.11.808-.05 1.523.615 1.555 1.443a1.5 1.5 0 0 1-1.444 1.555 166.5 166.5 0 0 1-6.052.112zM415.26 3.027a1.5 1.5 0 0 1-.019-3C416.84.008 418.44 0 420.041 0l1.221.001a1.5 1.5 0 0 1-.004 3h-1.213c-1.595 0-3.182.007-4.768.026h-.018zm17.982.182h-.048a407.153 407.153 0 0 0-5.964-.147 1.5 1.5 0 0 1 .025-3h.025c2.007.034 4.01.084 6.01.148a1.5 1.5 0 0 1-.047 2.999zm-29.978.128a1.5 1.5 0 0 1-.06-2.999c2.003-.08 4.01-.147 6.018-.2.83-.03 1.517.633 1.538 1.461a1.499 1.499 0 0 1-1.46 1.538c-1.995.052-3.987.12-5.975.2h-.06zm41.965.425c-.03 0-.06 0-.092-.003-1.986-.12-3.977-.226-5.97-.319a1.499 1.499 0 0 1-1.429-1.567c.04-.827.761-1.452 1.568-1.429 2.01.093 4.013.2 6.013.321a1.499 1.499 0 0 1-.09 2.997zm-53.945.233A1.5 1.5 0 0 1 391.182 1c2-.14 4.002-.264 6.01-.374a1.507 1.507 0 0 1 1.58 1.416 1.501 1.501 0 0 1-1.416 1.58c-1.993.108-3.982.232-5.965.37a1.275 1.275 0 0 1-.107.004zm65.91.67c-.045 0-.09-.002-.136-.006a391.993 391.993 0 0 0-5.958-.492 1.503 1.503 0 0 1-1.384-1.609 1.512 1.512 0 0 1 1.608-1.384c2.005.152 4.005.317 6.001.497a1.5 1.5 0 0 1-.13 2.994zm-77.866.336a1.501 1.501 0 0 1-.145-2.994c1.994-.196 3.993-.379 5.995-.548.808-.058 1.551.543 1.621 1.37a1.502 1.502 0 0 1-1.369 1.62c-1.988.167-3.972.35-5.952.545-.05.005-.1.007-.15.007zm89.798.914c-.059 0-.12-.004-.18-.01a414.57 414.57 0 0 0-5.939-.667 1.502 1.502 0 0 1-1.336-1.649c.087-.825.84-1.409 1.65-1.335 1.998.21 3.992.433 5.982.671a1.5 1.5 0 0 1-.177 2.99zm-101.72.44a1.5 1.5 0 0 1-.189-2.987c1.99-.256 3.981-.497 5.98-.724a1.5 1.5 0 0 1 .336 2.981c-1.98.224-3.96.464-5.933.717-.066.01-.13.013-.194.013zm113.61 1.158c-.074 0-.149-.005-.224-.016-1.969-.294-3.94-.574-5.918-.84a1.499 1.499 0 1 1 .401-2.973c1.991.268 3.978.55 5.961.846a1.5 1.5 0 0 1-.22 2.983zm-125.486.545a1.5 1.5 0 0 1-.232-2.98c1.98-.315 3.965-.614 5.954-.9a1.494 1.494 0 0 1 1.697 1.272c.12.82-.45 1.58-1.27 1.697a394.87 394.87 0 0 0-5.912.893 1.576 1.576 0 0 1-.237.018zm137.325 1.404c-.088 0-.178-.008-.268-.024-1.958-.352-3.922-.69-5.89-1.014a1.5 1.5 0 0 1 .487-2.96c1.983.327 3.961.667 5.934 1.021a1.5 1.5 0 0 1-.263 2.977zm-149.146.647a1.498 1.498 0 0 1-1.47-1.222 1.499 1.499 0 0 1 1.194-1.752c1.971-.372 3.945-.729 5.925-1.073a1.497 1.497 0 0 1 1.734 1.221 1.498 1.498 0 0 1-1.22 1.734c-1.967.342-3.927.697-5.883 1.066a1.569 1.569 0 0 1-.28.026zm160.922 1.648c-.102 0-.207-.009-.31-.032a407.529 407.529 0 0 0-5.859-1.186 1.501 1.501 0 0 1-1.185-1.76 1.51 1.51 0 0 1 1.76-1.186c1.971.385 3.94.784 5.901 1.197a1.5 1.5 0 0 1-.307 2.967zm-172.677.752a1.5 1.5 0 0 1-.32-2.964 404.54 404.54 0 0 1 5.891-1.248 1.5 1.5 0 1 1 .6 2.94 385.86 385.86 0 0 0-5.847 1.237 1.441 1.441 0 0 1-.324.035zm184.38 1.891c-.117 0-.235-.014-.353-.042-1.936-.467-3.875-.92-5.822-1.359a1.5 1.5 0 1 1 .661-2.926c1.96.441 3.915.898 5.864 1.37a1.5 1.5 0 0 1-.35 2.957zm-196.058.855a1.503 1.503 0 0 1-1.455-1.135 1.502 1.502 0 0 1 1.09-1.82c1.946-.489 3.896-.962 5.851-1.42a1.5 1.5 0 1 1 .687 2.919c-1.94.456-3.878.926-5.807 1.411a1.54 1.54 0 0 1-.366.045zm207.678 2.131a1.5 1.5 0 0 1-.395-.052 412.004 412.004 0 0 0-5.779-1.53 1.502 1.502 0 0 1-1.079-1.828 1.503 1.503 0 0 1 1.828-1.079c1.945.501 3.884 1.015 5.82 1.542a1.501 1.501 0 0 1-.395 2.947zm-219.273.956a1.5 1.5 0 0 1-.406-2.943 427.725 427.725 0 0 1 5.806-1.593 1.5 1.5 0 0 1 .774 2.9 407.9 407.9 0 0 0-5.766 1.58 1.48 1.48 0 0 1-.408.056zm230.8 2.372c-.146 0-.293-.02-.439-.066a393.431 393.431 0 0 0-5.729-1.7 1.502 1.502 0 0 1-1.026-1.858 1.502 1.502 0 0 1 1.858-1.025 403.19 403.19 0 0 1 5.772 1.714 1.5 1.5 0 0 1-.436 2.935zm-242.297 1.06a1.5 1.5 0 0 1-.45-2.932c1.913-.602 3.833-1.19 5.757-1.764a1.501 1.501 0 0 1 .858 2.875c-1.91.57-3.816 1.153-5.715 1.751a1.5 1.5 0 0 1-.45.07zm253.72 2.608c-.16 0-.32-.025-.48-.079a459.867 459.867 0 0 0-5.679-1.87 1.5 1.5 0 1 1 .92-2.855 415.38 415.38 0 0 1 5.718 1.884 1.497 1.497 0 0 1 .941 1.9 1.498 1.498 0 0 1-1.42 1.02zm-265.158 1.176a1.5 1.5 0 0 1-.493-2.917 401.342 401.342 0 0 1 5.727-1.94 1.499 1.499 0 1 1 .941 2.848c-1.899.627-3.794 1.27-5.683 1.926a1.482 1.482 0 0 1-.492.083zm276.467 2.828c-.173 0-.35-.029-.52-.093a417.594 417.594 0 0 0-5.622-2.037 1.5 1.5 0 0 1 1.002-2.828c1.894.671 3.781 1.355 5.662 2.052a1.5 1.5 0 0 1-.522 2.906zm-287.779 1.291a1.503 1.503 0 0 1-1.403-.966 1.502 1.502 0 0 1 .87-1.936c1.88-.715 3.767-1.419 5.661-2.108a1.5 1.5 0 0 1 1.027 2.818c-1.88.686-3.755 1.384-5.622 2.095a1.51 1.51 0 0 1-.533.097zM573.4 32.723c-.187 0-.378-.035-.562-.109a393.727 393.727 0 0 0-5.558-2.202 1.5 1.5 0 0 1 1.084-2.797c1.874.726 3.74 1.465 5.6 2.218a1.499 1.499 0 0 1-.564 2.89zm-310.15 1.408a1.5 1.5 0 0 1-.577-2.884 389.816 389.816 0 0 1 5.596-2.277 1.5 1.5 0 1 1 1.11 2.787 395.86 395.86 0 0 0-5.555 2.26 1.48 1.48 0 0 1-.575.114zm321.16 3.238a1.48 1.48 0 0 1-.603-.127 401.64 401.64 0 0 0-5.468-2.355 1.499 1.499 0 0 1-.799-1.964 1.496 1.496 0 0 1 1.965-.799c1.844.777 3.68 1.568 5.51 2.372a1.5 1.5 0 0 1-.605 2.873zm10.871 4.97c-.215 0-.434-.047-.642-.147a414.923 414.923 0 0 0-5.4-2.516 1.501 1.501 0 0 1 1.25-2.728c1.818.832 3.631 1.677 5.437 2.535a1.5 1.5 0 0 1-.645 2.855zM220.01 55.17a1.501 1.501 0 0 1-.735-2.808 416.417 416.417 0 0 1 5.281-2.917 1.501 1.501 0 0 1 1.432 2.637 417.549 417.549 0 0 0-5.245 2.895 1.486 1.486 0 0 1-.733.193zm406.973 3.968a1.49 1.49 0 0 1-.76-.207 386.546 386.546 0 0 0-5.162-2.983 1.501 1.501 0 0 1 1.482-2.609c1.742.99 3.476 1.992 5.201 3.006a1.5 1.5 0 0 1-.76 2.793zM209.619 61.21a1.5 1.5 0 0 1-.774-2.786 415.975 415.975 0 0 1 5.192-3.07 1.5 1.5 0 0 1 1.508 2.594 384.948 384.948 0 0 0-5.153 3.047 1.5 1.5 0 0 1-.773.215zm427.592 4.145c-.272 0-.548-.074-.796-.229a392.425 392.425 0 0 0-5.073-3.134 1.5 1.5 0 0 1 1.557-2.565 398.476 398.476 0 0 1 5.112 3.158 1.5 1.5 0 0 1-.8 2.77zm-437.8 2.196a1.5 1.5 0 0 1-.81-2.762 412.654 412.654 0 0 1 5.097-3.22 1.504 1.504 0 0 1 2.067.482 1.503 1.503 0 0 1-.483 2.067 411.002 411.002 0 0 0-5.06 3.196c-.252.16-.533.237-.81.237zm447.85 4.32c-.288 0-.578-.083-.835-.255a396.164 396.164 0 0 0-4.98-3.283 1.5 1.5 0 1 1 1.631-2.516 409.685 409.685 0 0 1 5.02 3.307 1.5 1.5 0 0 1-.837 2.746zM189.396 74.19a1.499 1.499 0 0 1-.849-2.738 408.3 408.3 0 0 1 5.001-3.367 1.5 1.5 0 1 1 1.658 2.5 394.916 394.916 0 0 0-4.964 3.343 1.495 1.495 0 0 1-.846.262zm467.716 4.487c-.3 0-.605-.089-.869-.278a423.638 423.638 0 0 0-4.885-3.427 1.5 1.5 0 1 1 1.705-2.468 417.68 417.68 0 0 1 4.921 3.452 1.5 1.5 0 0 1-.872 2.721zm-477.529 2.44a1.5 1.5 0 0 1-.884-2.714 393.16 393.16 0 0 1 4.9-3.512 1.5 1.5 0 0 1 1.73 2.451 397.963 397.963 0 0 0-4.864 3.487 1.5 1.5 0 0 1-.882.287zm487.185 4.655c-.316 0-.634-.099-.905-.304a390.805 390.805 0 0 0-4.785-3.569 1.502 1.502 0 0 1-.32-2.098 1.503 1.503 0 0 1 2.098-.32 456.292 456.292 0 0 1 4.818 3.595 1.5 1.5 0 0 1-.906 2.696zM169.98 88.324a1.5 1.5 0 0 1-.919-2.687 414.45 414.45 0 0 1 4.793-3.652 1.499 1.499 0 1 1 1.8 2.399 428.95 428.95 0 0 0-4.757 3.626 1.5 1.5 0 0 1-.917.314zm506.234 4.821c-.33 0-.662-.108-.939-.33a411.658 411.658 0 0 0-4.68-3.71 1.5 1.5 0 1 1 1.848-2.364 414.942 414.942 0 0 1 4.712 3.735 1.5 1.5 0 0 1-.94 2.67zm-515.62 2.664a1.499 1.499 0 0 1-.953-2.659 427.829 427.829 0 0 1 4.681-3.79 1.504 1.504 0 0 1 2.11.236c.515.648.41 1.592-.238 2.11a408.452 408.452 0 0 0-4.65 3.762c-.279.23-.616.341-.95.341zm524.85 4.984c-.345 0-.692-.119-.974-.36a408.986 408.986 0 0 0-4.57-3.843 1.5 1.5 0 1 1 1.913-2.31 395.836 395.836 0 0 1 4.604 3.872 1.499 1.499 0 0 1-.974 2.641zm-534.012 2.768a1.502 1.502 0 0 1-.987-2.631 388.41 388.41 0 0 1 4.57-3.924 1.5 1.5 0 1 1 1.936 2.291 390.747 390.747 0 0 0-4.534 3.895 1.499 1.499 0 0 1-.985.37zm543.015 5.15c-.358 0-.718-.128-1.005-.388a421.394 421.394 0 0 0-4.458-3.978 1.499 1.499 0 0 1 1.981-2.252 438.922 438.922 0 0 1 4.49 4.005 1.5 1.5 0 0 1-1.008 2.613zM142.5 111.577a1.5 1.5 0 0 1-1.018-2.602 406.47 406.47 0 0 1 4.452-4.054 1.5 1.5 0 0 1 2.004 2.232 410.776 410.776 0 0 0-4.419 4.025 1.498 1.498 0 0 1-1.019.4zm560.72 5.31c-.374 0-.748-.138-1.038-.418a420.455 420.455 0 0 0-4.342-4.106 1.5 1.5 0 1 1 2.047-2.193 426.836 426.836 0 0 1 4.371 4.135c.6.574.618 1.523.044 2.12a1.49 1.49 0 0 1-1.082.462zm-569.41 2.961a1.5 1.5 0 0 1-1.05-2.571 438 438 0 0 1 4.331-4.182 1.498 1.498 0 0 1 2.12.052c.571.6.55 1.55-.052 2.12a410.692 410.692 0 0 0-4.299 4.153 1.495 1.495 0 0 1-1.05.428zm577.942 5.47a1.49 1.49 0 0 1-1.069-.448 421.148 421.148 0 0 0-4.22-4.233 1.5 1.5 0 1 1 2.108-2.132 416.422 416.422 0 0 1 4.25 4.261 1.498 1.498 0 0 1-1.069 2.552zm-586.386 3.051a1.501 1.501 0 0 1-1.081-2.54 397.446 397.446 0 0 1 4.206-4.307 1.5 1.5 0 1 1 2.131 2.111 400.798 400.798 0 0 0-4.175 4.275 1.49 1.49 0 0 1-1.08.461zm594.67 5.628a1.49 1.49 0 0 1-1.1-.48 382.319 382.319 0 0 0-4.097-4.353 1.5 1.5 0 0 1 2.17-2.073 416.282 416.282 0 0 1 4.127 4.386 1.502 1.502 0 0 1-1.1 2.52zm-602.863 3.13a1.5 1.5 0 0 1-1.109-2.509 405.98 405.98 0 0 1 4.078-4.425 1.499 1.499 0 1 1 2.191 2.05 420.143 420.143 0 0 0-4.049 4.392 1.497 1.497 0 0 1-1.11.492zm610.894 5.787c-.418 0-.834-.174-1.13-.513a409.917 409.917 0 0 0-3.968-4.472 1.5 1.5 0 1 1 2.228-2.007 415.953 415.953 0 0 1 3.998 4.504 1.5 1.5 0 0 1-1.128 2.488zm-618.825 3.206a1.501 1.501 0 0 1-1.138-2.476 426.28 426.28 0 0 1 3.947-4.542 1.499 1.499 0 1 1 2.25 1.985 431.474 431.474 0 0 0-3.918 4.508 1.498 1.498 0 0 1-1.14.525zm626.591 5.944c-.432 0-.862-.186-1.158-.546a441.392 441.392 0 0 0-3.837-4.588 1.5 1.5 0 1 1 2.287-1.94c1.3 1.531 2.588 3.07 3.864 4.62a1.498 1.498 0 0 1-1.156 2.454zm7.5 9.375c-.448 0-.89-.199-1.186-.58a422.08 422.08 0 0 0-3.702-4.698 1.5 1.5 0 1 1 2.341-1.875 405.865 405.865 0 0 1 3.73 4.733 1.5 1.5 0 0 1-1.184 2.42zm7.223 9.594c-.462 0-.919-.213-1.212-.615a408.619 408.619 0 0 0-3.564-4.805 1.5 1.5 0 1 1 2.396-1.805 423.232 423.232 0 0 1 3.59 4.84 1.5 1.5 0 0 1-1.21 2.385zm6.94 9.801a1.5 1.5 0 0 1-1.238-.652 397.932 397.932 0 0 0-3.42-4.908 1.5 1.5 0 0 1 2.446-1.734 396.553 396.553 0 0 1 3.45 4.945 1.502 1.502 0 0 1-1.238 2.35zm6.653 10.005c-.493 0-.975-.243-1.262-.688a418.337 418.337 0 0 0-3.278-5.009 1.5 1.5 0 0 1 2.498-1.66 419.958 419.958 0 0 1 3.301 5.044 1.499 1.499 0 0 1-1.259 2.313zm6.357 10.196a1.496 1.496 0 0 1-1.285-.726 395.461 395.461 0 0 0-3.13-5.102 1.5 1.5 0 1 1 2.545-1.588 428.271 428.271 0 0 1 3.153 5.14 1.5 1.5 0 0 1-1.283 2.276zm6.058 10.382a1.499 1.499 0 0 1-1.309-.764 408.203 408.203 0 0 0-2.979-5.194 1.5 1.5 0 0 1 2.591-1.512 402.41 402.41 0 0 1 3.001 5.233 1.498 1.498 0 0 1-1.304 2.237zm-714.992 3.495a1.498 1.498 0 0 1-1.313-2.224c.966-1.755 1.945-3.5 2.937-5.238a1.5 1.5 0 0 1 2.605 1.486 424.662 424.662 0 0 0-2.915 5.2 1.5 1.5 0 0 1-1.314.776zm720.741 7.064a1.499 1.499 0 0 1-1.329-.802 387.282 387.282 0 0 0-2.827-5.28 1.501 1.501 0 0 1 2.635-1.436c.962 1.766 1.911 3.54 2.848 5.32a1.501 1.501 0 0 1-1.327 2.198zm-726.36 3.497a1.499 1.499 0 0 1-1.333-2.185 400.534 400.534 0 0 1 2.781-5.32 1.5 1.5 0 0 1 2.648 1.409 433.23 433.23 0 0 0-2.76 5.282 1.499 1.499 0 0 1-1.336.814zm731.797 7.23a1.5 1.5 0 0 1-1.348-.842 424.772 424.772 0 0 0-2.669-5.364 1.499 1.499 0 1 1 2.675-1.356c.91 1.794 1.806 3.595 2.69 5.404a1.499 1.499 0 0 1-1.348 2.158zm-737.1 3.49a1.503 1.503 0 0 1-1.354-2.145 401.067 401.067 0 0 1 2.621-5.4 1.505 1.505 0 0 1 2.01-.679 1.502 1.502 0 0 1 .68 2.011 383.526 383.526 0 0 0-2.603 5.358 1.501 1.501 0 0 1-1.355.854zm742.22 7.395a1.5 1.5 0 0 1-1.367-.882 388.799 388.799 0 0 0-2.512-5.442 1.5 1.5 0 0 1 2.715-1.277c.857 1.82 1.7 3.647 2.53 5.482a1.5 1.5 0 0 1-1.366 2.12zm4.798 11.037a1.502 1.502 0 0 1-1.386-.923 389.877 389.877 0 0 0-2.348-5.515 1.498 1.498 0 0 1 .776-1.973 1.498 1.498 0 0 1 1.974.776 373.676 373.676 0 0 1 2.368 5.558 1.5 1.5 0 0 1-1.384 2.077zm4.47 11.175a1.497 1.497 0 0 1-1.4-.963 422.45 422.45 0 0 0-2.187-5.585 1.499 1.499 0 1 1 2.785-1.114 407.185 407.185 0 0 1 2.202 5.626 1.502 1.502 0 0 1-1.4 2.036zm4.138 11.31a1.498 1.498 0 0 1-1.416-1.007 420.496 420.496 0 0 0-2.02-5.648 1.498 1.498 0 0 1 .893-1.924 1.498 1.498 0 0 1 1.923.892 384.47 384.47 0 0 1 2.036 5.692 1.5 1.5 0 0 1-1.416 1.994zm3.801 11.43a1.5 1.5 0 0 1-1.43-1.048 400.063 400.063 0 0 0-1.85-5.708 1.5 1.5 0 1 1 2.846-.947 414.642 414.642 0 0 1 1.865 5.751 1.5 1.5 0 0 1-1.43 1.952zm3.454 11.516c-.653 0-1.254-.43-1.442-1.09a406.729 406.729 0 0 0-1.674-5.738 1.5 1.5 0 0 1 2.873-.861c.575 1.92 1.14 3.847 1.688 5.78a1.503 1.503 0 0 1-1.445 1.91zm-787.937 3.43a1.498 1.498 0 0 1-1.447-1.896c.531-1.939 1.077-3.87 1.636-5.797a1.5 1.5 0 1 1 2.881.838 414.648 414.648 0 0 0-1.625 5.75 1.5 1.5 0 0 1-1.445 1.104zm791.044 8.16a1.5 1.5 0 0 1-1.453-1.134c-.489-1.933-.99-3.86-1.506-5.784a1.502 1.502 0 0 1 1.06-1.838c.8-.208 1.624.26 1.838 1.061.52 1.937 1.026 3.88 1.516 5.827a1.499 1.499 0 0 1-1.455 1.867zM22.588 315.1a1.498 1.498 0 0 1-1.458-1.854c.475-1.952.963-3.899 1.465-5.84a1.5 1.5 0 1 1 2.904.75 442.53 442.53 0 0 0-1.455 5.8 1.5 1.5 0 0 1-1.456 1.144zm796.813 8.221a1.5 1.5 0 0 1-1.464-1.177 403.27 403.27 0 0 0-1.333-5.826 1.5 1.5 0 1 1 2.92-.69c.461 1.951.91 3.907 1.342 5.87a1.5 1.5 0 0 1-1.465 1.823zM19.93 326.798a1.5 1.5 0 0 1-1.47-1.81c.417-1.966.848-3.926 1.292-5.882a1.506 1.506 0 0 1 1.796-1.13 1.5 1.5 0 0 1 1.13 1.796 390.836 390.836 0 0 0-1.282 5.838 1.5 1.5 0 0 1-1.466 1.188zm801.888 8.276a1.501 1.501 0 0 1-1.472-1.22 391.83 391.83 0 0 0-1.16-5.863 1.5 1.5 0 0 1 2.937-.604c.405 1.963.795 3.932 1.17 5.907a1.502 1.502 0 0 1-1.475 1.78zm-804.2 3.497a1.499 1.499 0 0 1-1.477-1.768c.357-1.976.73-3.949 1.116-5.916a1.5 1.5 0 0 1 2.943.578 457.248 457.248 0 0 0-1.109 5.874 1.5 1.5 0 0 1-1.474 1.232zm806.27 8.32a1.501 1.501 0 0 1-1.48-1.262 381.087 381.087 0 0 0-.989-5.894 1.5 1.5 0 0 1 2.955-.52c.347 1.975.678 3.955.996 5.94a1.5 1.5 0 0 1-1.483 1.736zM15.65 350.408a1.5 1.5 0 0 1-1.486-1.724c.3-1.988.615-3.97.944-5.948a1.5 1.5 0 0 1 2.959.491 412.05 412.05 0 0 0-.936 5.904 1.5 1.5 0 0 1-1.48 1.277zm809.955 8.356a1.5 1.5 0 0 1-1.486-1.306 395.694 395.694 0 0 0-.814-5.92 1.5 1.5 0 1 1 2.97-.433c.287 1.984.56 3.973.82 5.966a1.501 1.501 0 0 1-1.49 1.693zm-811.574 3.532a1.502 1.502 0 0 1-1.491-1.681c.242-1.995.498-3.986.77-5.972a1.5 1.5 0 1 1 2.972.405 409.944 409.944 0 0 0-.763 5.928 1.502 1.502 0 0 1-1.488 1.32zm812.947 8.388a1.5 1.5 0 0 1-1.49-1.349c-.2-1.986-.414-3.967-.64-5.944a1.5 1.5 0 0 1 2.98-.343c.23 1.992.444 3.987.644 5.986a1.498 1.498 0 0 1-1.494 1.65zm-814.215 3.541a1.5 1.5 0 0 1-1.496-1.636c.183-2.002.382-4 .594-5.992a1.499 1.499 0 1 1 2.982.317c-.21 1.978-.406 3.961-.588 5.948a1.5 1.5 0 0 1-1.492 1.363zM828 382.637a1.5 1.5 0 0 1-1.494-1.393 431.33 431.33 0 0 0-.466-5.96 1.498 1.498 0 0 1 1.366-1.622 1.503 1.503 0 0 1 1.623 1.366c.17 1.998.328 3.998.47 6.003a1.498 1.498 0 0 1-1.499 1.606zm-816.157 3.551c-.03 0-.063 0-.094-.003a1.5 1.5 0 0 1-1.404-1.59c.124-2.006.264-4.007.418-6.006.062-.828.78-1.463 1.61-1.38a1.5 1.5 0 0 1 1.381 1.61 404.746 404.746 0 0 0-.415 5.962 1.5 1.5 0 0 1-1.496 1.407zm816.833 8.428a1.5 1.5 0 0 1-1.498-1.438 407.019 407.019 0 0 0-.293-5.97 1.501 1.501 0 0 1 1.414-1.582c.83-.014 1.535.586 1.582 1.414.112 2.001.21 4.005.295 6.013a1.501 1.501 0 0 1-1.437 1.562l-.063.001zm-817.404 3.557h-.05a1.5 1.5 0 0 1-1.45-1.55c.066-2.009.147-4.015.243-6.016.04-.826.7-1.475 1.57-1.427a1.5 1.5 0 0 1 1.426 1.57 420.772 420.772 0 0 0-.24 5.972 1.5 1.5 0 0 1-1.499 1.451zm817.732 8.436a1.5 1.5 0 0 1-1.499-1.48 408.358 408.358 0 0 0-.119-5.976 1.498 1.498 0 0 1 1.458-1.54c.83-.074 1.518.63 1.54 1.458.056 2.002.096 4.01.121 6.02a1.5 1.5 0 0 1-1.48 1.518h-.02zm-817.959 3.546h-.007a1.5 1.5 0 0 1-1.493-1.507c.01-2.01.032-4.016.07-6.018.016-.829.705-1.5 1.528-1.472a1.499 1.499 0 0 1 1.471 1.528c-.037 1.987-.06 3.98-.069 5.976a1.5 1.5 0 0 1-1.5 1.493zm817.942 8.452h-.023a1.501 1.501 0 0 1-1.477-1.523 410.2 410.2 0 0 0 .052-5.978 1.5 1.5 0 0 1 1.5-1.498h.002a1.5 1.5 0 0 1 1.498 1.502 415.88 415.88 0 0 1-.052 6.021 1.499 1.499 0 0 1-1.5 1.476zm-817.825 3.545a1.5 1.5 0 0 1-1.499-1.463 401.49 401.49 0 0 1-.102-6.02 1.5 1.5 0 0 1 1.485-1.515 1.516 1.516 0 0 1 1.515 1.485c.02 1.995.053 3.988.102 5.976a1.501 1.501 0 0 1-1.463 1.537h-.038zm817.465 8.437h-.067a1.502 1.502 0 0 1-1.433-1.566c.09-1.988.164-3.979.225-5.974a1.5 1.5 0 1 1 2.998.09 412.75 412.75 0 0 1-.226 6.017 1.498 1.498 0 0 1-1.497 1.433zM11.63 434.141a1.5 1.5 0 0 1-1.497-1.42 427.728 427.728 0 0 1-.277-6.014 1.5 1.5 0 1 1 2.998-.118c.078 1.995.17 3.985.275 5.972a1.5 1.5 0 0 1-1.499 1.58zm816.29 8.426a1.501 1.501 0 0 1-1.498-1.61c.147-1.985.278-3.972.397-5.965a1.48 1.48 0 0 1 1.586-1.408 1.499 1.499 0 0 1 1.408 1.586 396.567 396.567 0 0 1-.4 6.007 1.5 1.5 0 0 1-1.494 1.39zm-815.477 3.544a1.5 1.5 0 0 1-1.494-1.377 423.692 423.692 0 0 1-.45-6.004 1.5 1.5 0 0 1 1.394-1.598 1.51 1.51 0 0 1 1.598 1.395c.135 1.991.285 3.978.45 5.961a1.5 1.5 0 0 1-1.498 1.623zm814.418 8.407a1.5 1.5 0 0 1-1.495-1.654c.205-1.979.396-3.96.571-5.949a1.5 1.5 0 1 1 2.988.263c-.177 2.002-.368 4-.574 5.995a1.5 1.5 0 0 1-1.49 1.345zm-813.256 3.534a1.5 1.5 0 0 1-1.489-1.333 419.775 419.775 0 0 1-.627-5.988 1.5 1.5 0 0 1 2.986-.29c.193 1.984.4 3.967.622 5.944a1.499 1.499 0 0 1-1.492 1.667zm811.848 8.381a1.502 1.502 0 0 1-1.489-1.698c.263-1.972.511-3.948.745-5.93.097-.823.841-1.428 1.665-1.314a1.5 1.5 0 0 1 1.314 1.665 404.338 404.338 0 0 1-.749 5.975 1.501 1.501 0 0 1-1.486 1.302zm-810.339 3.522a1.5 1.5 0 0 1-1.483-1.289 419.45 419.45 0 0 1-.802-5.968 1.502 1.502 0 0 1 1.3-1.677 1.511 1.511 0 0 1 1.677 1.3c.251 1.978.517 3.953.796 5.923a1.5 1.5 0 0 1-1.488 1.711zm808.583 8.346a1.5 1.5 0 0 1-1.482-1.741c.32-1.965.627-3.932.918-5.907a1.5 1.5 0 1 1 2.968.439 413.994 413.994 0 0 1-.925 5.951 1.5 1.5 0 0 1-1.479 1.258zm-806.722 3.507a1.5 1.5 0 0 1-1.477-1.245c-.34-1.976-.665-3.957-.976-5.942a1.498 1.498 0 0 1 1.25-1.714 1.504 1.504 0 0 1 1.713 1.25c.31 1.97.632 3.935.97 5.896a1.5 1.5 0 0 1-1.48 1.755zm804.618 8.306a1.501 1.501 0 0 1-1.475-1.784c.378-1.954.742-3.913 1.092-5.877a1.499 1.499 0 1 1 2.953.527 411.41 411.41 0 0 1-1.099 5.918 1.5 1.5 0 0 1-1.47 1.216zm-802.41 3.487a1.5 1.5 0 0 1-1.469-1.202 413.811 413.811 0 0 1-1.152-5.91 1.5 1.5 0 1 1 2.95-.552c.365 1.96.747 3.916 1.142 5.866a1.5 1.5 0 0 1-1.472 1.798zm799.958 8.257a1.5 1.5 0 0 1-1.465-1.828c.435-1.94.856-3.889 1.264-5.842a1.5 1.5 0 0 1 2.937.613 439.022 439.022 0 0 1-1.273 5.885 1.502 1.502 0 0 1-1.463 1.172zm-797.403 3.467a1.5 1.5 0 0 1-1.46-1.159 406.51 406.51 0 0 1-1.326-5.874 1.502 1.502 0 0 1 1.147-1.786 1.504 1.504 0 0 1 1.785 1.147c.424 1.95.863 3.893 1.315 5.831a1.5 1.5 0 0 1-1.46 1.841zm794.605 8.201a1.499 1.499 0 0 1-1.454-1.871c.492-1.929.971-3.863 1.437-5.803a1.5 1.5 0 0 1 2.916.701 405.13 405.13 0 0 1-1.447 5.844 1.5 1.5 0 0 1-1.452 1.13zm-791.707 3.44a1.5 1.5 0 0 1-1.449-1.117 392.098 392.098 0 0 1-1.499-5.832 1.501 1.501 0 0 1 2.912-.724 392.78 392.78 0 0 0 1.487 5.79 1.5 1.5 0 0 1-1.45 1.882zm788.567 8.14a1.498 1.498 0 0 1-1.442-1.914c.55-1.914 1.085-3.832 1.606-5.758a1.501 1.501 0 0 1 2.897.785 396.793 396.793 0 0 1-1.62 5.8 1.5 1.5 0 0 1-1.44 1.086zm-785.326 3.412a1.5 1.5 0 0 1-1.437-1.074 420.708 420.708 0 0 1-1.669-5.784 1.5 1.5 0 0 1 2.888-.81c.54 1.92 1.092 3.833 1.658 5.742a1.501 1.501 0 0 1-1.44 1.926zm781.842 8.07a1.5 1.5 0 0 1-1.429-1.957 377.433 377.433 0 0 0 1.777-5.707 1.504 1.504 0 0 1 1.87-1 1.501 1.501 0 0 1 1.001 1.87 403.042 403.042 0 0 1-1.79 5.751 1.502 1.502 0 0 1-1.429 1.043zm-778.25 3.404c-.63 0-1.217-.4-1.425-1.03a389.676 389.676 0 0 1-1.847-5.758 1.499 1.499 0 1 1 2.863-.895c.597 1.91 1.208 3.816 1.834 5.713a1.502 1.502 0 0 1-1.425 1.97zm774.432 7.97a1.5 1.5 0 0 1-1.415-1.998 418.163 418.163 0 0 0 1.945-5.654 1.501 1.501 0 0 1 2.844.957 419.187 419.187 0 0 1-1.959 5.692 1.501 1.501 0 0 1-1.415 1.002zm-770.496 3.414a1.5 1.5 0 0 1-1.41-.99 408.681 408.681 0 0 1-2.018-5.697 1.5 1.5 0 1 1 2.836-.98 394.733 394.733 0 0 0 2.002 5.656 1.5 1.5 0 0 1-1.41 2.011zm766.341 7.841a1.5 1.5 0 0 1-1.399-2.04 386.66 386.66 0 0 0 2.11-5.59 1.501 1.501 0 0 1 2.815 1.039 422.928 422.928 0 0 1-2.126 5.631 1.5 1.5 0 0 1-1.4.96zm-762.072 3.415a1.498 1.498 0 0 1-1.394-.947 395 395 0 0 1-2.185-5.633 1.5 1.5 0 0 1 2.805-1.064c.71 1.87 1.432 3.734 2.17 5.592a1.5 1.5 0 0 1-1.396 2.052zm757.596 7.691a1.5 1.5 0 0 1-1.382-2.081 435.111 435.111 0 0 0 2.266-5.504 1.5 1.5 0 1 1 2.781 1.121 413.357 413.357 0 0 1-2.28 5.545 1.501 1.501 0 0 1-1.385.92zm-752.993 3.433a1.501 1.501 0 0 1-1.379-.907 419.188 419.188 0 0 1-2.35-5.564 1.499 1.499 0 1 1 2.772-1.147 400.51 400.51 0 0 0 2.334 5.524 1.5 1.5 0 0 1-1.377 2.094zm748.202 7.516a1.5 1.5 0 0 1-1.365-2.121 394.686 394.686 0 0 0 2.428-5.438 1.499 1.499 0 1 1 2.748 1.203 394.97 394.97 0 0 1-2.445 5.477 1.5 1.5 0 0 1-1.366.88zM49.2 584.733c-.564 0-1.105-.32-1.36-.865a425.638 425.638 0 0 1-2.513-5.49 1.503 1.503 0 0 1 .755-1.985 1.503 1.503 0 0 1 1.984.755 377.662 377.662 0 0 0 2.493 5.45 1.501 1.501 0 0 1-1.359 2.135zm738.165 7.347a1.5 1.5 0 0 1-1.345-2.161 427.25 427.25 0 0 0 2.588-5.367 1.5 1.5 0 0 1 2.711 1.284 433.303 433.303 0 0 1-2.606 5.405 1.5 1.5 0 0 1-1.348.84zm-732.917 3.476a1.498 1.498 0 0 1-1.34-.825c-.905-1.796-1.796-3.6-2.674-5.412a1.5 1.5 0 0 1 2.7-1.309 411.796 411.796 0 0 0 2.652 5.372 1.5 1.5 0 0 1-1.338 2.174zm727.488 7.181a1.498 1.498 0 0 1-1.325-2.2 447.862 447.862 0 0 0 2.745-5.29 1.5 1.5 0 1 1 2.672 1.363c-.91 1.783-1.83 3.56-2.765 5.327-.269.51-.789.8-1.327.8zM60.01 606.218c-.533 0-1.05-.285-1.32-.787-.956-1.768-1.9-3.545-2.83-5.328a1.5 1.5 0 0 1 2.66-1.389 423.833 423.833 0 0 0 2.808 5.292 1.499 1.499 0 0 1-1.318 2.212zm716.184 7.015a1.499 1.499 0 0 1-1.304-2.239 393.168 393.168 0 0 0 2.897-5.208 1.5 1.5 0 0 1 2.633 1.44 387.958 387.958 0 0 1-2.92 5.246 1.495 1.495 0 0 1-1.306.761zM65.88 616.71a1.5 1.5 0 0 1-1.299-.748 404.34 404.34 0 0 1-2.985-5.244 1.498 1.498 0 1 1 2.617-1.464 436.193 436.193 0 0 0 2.964 5.204 1.5 1.5 0 0 1-1.297 2.252zm704.264 6.851a1.498 1.498 0 0 1-1.282-2.277 404.226 404.226 0 0 0 3.051-5.123 1.502 1.502 0 0 1 2.052-.535c.715.42.955 1.338.536 2.051a417.61 417.61 0 0 1-3.073 5.162 1.501 1.501 0 0 1-1.284.722zm-698.087 3.458c-.502 0-.992-.252-1.277-.71a408.593 408.593 0 0 1-3.137-5.15 1.5 1.5 0 1 1 2.574-1.542 384.667 384.667 0 0 0 3.114 5.112 1.502 1.502 0 0 1-1.274 2.29zm691.736 6.691a1.5 1.5 0 0 1-1.259-2.315 396.554 396.554 0 0 0 3.202-5.033 1.499 1.499 0 0 1 2.067-.476c.702.44.915 1.365.476 2.068a425.26 425.26 0 0 1-3.225 5.07c-.287.443-.77.686-1.26.686zm-685.262 3.43c-.486 0-.963-.236-1.252-.674a393.853 393.853 0 0 1-3.287-5.055 1.5 1.5 0 1 1 2.528-1.615 421.963 421.963 0 0 0 3.262 5.018 1.501 1.501 0 0 1-1.25 2.326zm678.616 6.531a1.5 1.5 0 0 1-1.235-2.351 415.292 415.292 0 0 0 3.348-4.939 1.503 1.503 0 0 1 2.081-.416 1.5 1.5 0 0 1 .415 2.082 401.77 401.77 0 0 1-3.373 4.974c-.29.423-.76.65-1.236.65zm-671.849 3.393c-.472 0-.935-.222-1.227-.637a383.141 383.141 0 0 1-3.433-4.956 1.5 1.5 0 1 1 2.478-1.689 422.25 422.25 0 0 0 3.408 4.92 1.5 1.5 0 0 1-1.226 2.362zm664.911 6.372A1.501 1.501 0 0 1 749 651.05a406.735 406.735 0 0 0 3.492-4.839 1.501 1.501 0 0 1 2.446 1.738 412.81 412.81 0 0 1-3.518 4.875 1.5 1.5 0 0 1-1.21.613zm-657.857 3.348c-.456 0-.907-.208-1.202-.602a414.702 414.702 0 0 1-3.576-4.85 1.5 1.5 0 0 1 2.428-1.763 408.723 408.723 0 0 0 3.55 4.816 1.501 1.501 0 0 1-1.2 2.4zM742.988 663a1.49 1.49 0 0 1-.919-.317 1.498 1.498 0 0 1-.263-2.104 436.977 436.977 0 0 0 3.632-4.739 1.5 1.5 0 0 1 2.394 1.81 404.304 404.304 0 0 1-3.659 4.771 1.5 1.5 0 0 1-1.185.58zm-643.303 3.294a1.5 1.5 0 0 1-1.176-.568 416.733 416.733 0 0 1-3.714-4.744 1.5 1.5 0 0 1 2.375-1.832 417.432 417.432 0 0 0 3.69 4.711 1.5 1.5 0 0 1-1.175 2.433zm635.805 6.054a1.501 1.501 0 0 1-1.155-2.455 418.167 418.167 0 0 0 3.77-4.63 1.498 1.498 0 0 1 2.108-.232c.647.518.75 1.462.232 2.108a395.782 395.782 0 0 1-3.797 4.664c-.297.36-.726.545-1.158.545zm-628.2 3.232c-.427 0-.85-.182-1.147-.533a433.402 433.402 0 0 1-3.85-4.633 1.5 1.5 0 0 1 2.32-1.9 419.542 419.542 0 0 0 3.823 4.6 1.498 1.498 0 0 1-1.146 2.466zm620.431 5.897a1.5 1.5 0 0 1-1.127-2.488 410.721 410.721 0 0 0 3.904-4.522 1.5 1.5 0 1 1 2.285 1.946 415.092 415.092 0 0 1-3.933 4.553 1.497 1.497 0 0 1-1.129.511zm-612.559 3.163c-.412 0-.823-.169-1.119-.5a435.532 435.532 0 0 1-3.982-4.516 1.5 1.5 0 0 1 2.263-1.969c1.31 1.505 2.627 3 3.956 4.485a1.5 1.5 0 0 1-1.118 2.5zm604.527 5.74a1.5 1.5 0 0 1-1.099-2.522c1.356-1.459 2.7-2.928 4.035-4.406a1.5 1.5 0 0 1 2.227 2.01 416.407 416.407 0 0 1-4.065 4.438 1.497 1.497 0 0 1-1.098.48zm-596.396 3.085c-.396 0-.793-.157-1.088-.468a407.113 407.113 0 0 1-4.112-4.398 1.499 1.499 0 1 1 2.205-2.033 411.416 411.416 0 0 0 4.083 4.366 1.499 1.499 0 0 1-1.088 2.533zm588.103 5.58a1.5 1.5 0 0 1-1.069-2.553 420.171 420.171 0 0 0 4.163-4.287 1.499 1.499 0 1 1 2.167 2.074 406.554 406.554 0 0 1-4.193 4.317 1.496 1.496 0 0 1-1.068.448zm-579.72 3.001c-.383 0-.765-.146-1.058-.437a416.786 416.786 0 0 1-4.238-4.276 1.5 1.5 0 0 1 2.147-2.096 410.648 410.648 0 0 0 4.207 4.245 1.5 1.5 0 0 1-1.058 2.564zm571.177 5.42c-.395 0-.789-.157-1.083-.464a1.499 1.499 0 0 1 .046-2.12 410.376 410.376 0 0 0 4.287-4.166 1.5 1.5 0 0 1 2.105 2.137 407.118 407.118 0 0 1-4.318 4.195c-.29.278-.664.417-1.037.417zm-562.55 2.91c-.369 0-.737-.135-1.027-.406a416.371 416.371 0 0 1-4.36-4.149 1.5 1.5 0 0 1 2.084-2.158 400.325 400.325 0 0 0 4.328 4.12 1.5 1.5 0 0 1-1.026 2.593zm553.764 5.258a1.499 1.499 0 0 1-1.006-2.613 410.932 410.932 0 0 0 4.408-4.039 1.5 1.5 0 0 1 2.043 2.197 426.931 426.931 0 0 1-4.44 4.07 1.495 1.495 0 0 1-1.005.385zm-544.902 2.817c-.352 0-.708-.124-.993-.377a415.039 415.039 0 0 1-4.476-4.019 1.5 1.5 0 1 1 2.02-2.218 442.093 442.093 0 0 0 4.444 3.991 1.5 1.5 0 0 1-.995 2.623zm535.88 5.097a1.5 1.5 0 0 1-.973-2.643 409.722 409.722 0 0 0 4.522-3.908 1.498 1.498 0 1 1 1.978 2.254 389.647 389.647 0 0 1-4.556 3.94c-.282.24-.628.357-.972.357zM158.26 726.26c-.339 0-.679-.114-.959-.347a404.661 404.661 0 0 1-4.594-3.887 1.5 1.5 0 0 1 1.955-2.275c1.51 1.297 3.03 2.583 4.56 3.857a1.498 1.498 0 0 1-.962 2.652zm517.531 4.934a1.499 1.499 0 0 1-.939-2.67c1.554-1.247 3.1-2.507 4.637-3.776a1.499 1.499 0 1 1 1.911 2.312 416.302 416.302 0 0 1-4.67 3.804 1.49 1.49 0 0 1-.939.33zm-508.216 2.608c-.324 0-.65-.104-.925-.32a396.049 396.049 0 0 1-4.703-3.75 1.498 1.498 0 0 1-.222-2.109 1.498 1.498 0 0 1 2.11-.223 427.592 427.592 0 0 0 4.668 3.723 1.5 1.5 0 0 1-.928 2.68zm498.742 4.768a1.5 1.5 0 0 1-.905-2.697 389.615 389.615 0 0 0 4.746-3.64 1.5 1.5 0 0 1 1.844 2.367 395.604 395.604 0 0 1-4.783 3.667 1.496 1.496 0 0 1-.902.303zm-489.212 2.496c-.31 0-.622-.096-.89-.294a412.69 412.69 0 0 1-4.81-3.609 1.5 1.5 0 0 1 1.82-2.387c1.581 1.206 3.172 2.4 4.772 3.584a1.5 1.5 0 0 1-.892 2.706zm479.524 4.602a1.5 1.5 0 0 1-.87-2.723 402.77 402.77 0 0 0 4.853-3.5 1.5 1.5 0 1 1 1.773 2.42 403.798 403.798 0 0 1-4.889 3.525 1.483 1.483 0 0 1-.867.278zm-469.79 2.38a1.49 1.49 0 0 1-.856-.27 401.705 401.705 0 0 1-4.91-3.467 1.5 1.5 0 0 1 1.747-2.437 436.351 436.351 0 0 0 4.875 3.441 1.5 1.5 0 0 1-.857 2.732zm459.897 4.431a1.5 1.5 0 0 1-.833-2.748 410.07 410.07 0 0 0 4.954-3.357 1.5 1.5 0 0 1 1.701 2.47 400.842 400.842 0 0 1-4.99 3.383 1.49 1.49 0 0 1-.832.252zm-449.966 2.26c-.282 0-.566-.079-.819-.244a398.233 398.233 0 0 1-5.008-3.322 1.5 1.5 0 1 1 1.677-2.488 392.3 392.3 0 0 0 4.97 3.298 1.499 1.499 0 0 1-.82 2.756zM636.645 759a1.501 1.501 0 0 1-.797-2.772 395.238 395.238 0 0 0 5.051-3.212 1.501 1.501 0 0 1 1.629 2.52 401.013 401.013 0 0 1-5.088 3.235 1.495 1.495 0 0 1-.795.23zm-429.752 2.136c-.268 0-.537-.07-.782-.22a422.006 422.006 0 0 1-5.102-3.172 1.501 1.501 0 0 1 1.602-2.537 416.098 416.098 0 0 0 5.066 3.15 1.5 1.5 0 0 1-.784 2.78zm419.471 4.086a1.499 1.499 0 0 1-.758-2.794 414.75 414.75 0 0 0 5.144-3.063 1.505 1.505 0 0 1 2.061.506 1.5 1.5 0 0 1-.507 2.06 384.398 384.398 0 0 1-5.183 3.085c-.238.14-.499.206-.757.206zm-409.172 2.011c-.253 0-.509-.063-.745-.198a405.424 405.424 0 0 1-5.19-3.022 1.499 1.499 0 1 1 1.527-2.582 393.084 393.084 0 0 0 5.154 3 1.5 1.5 0 0 1-.746 2.802zm398.71 3.91a1.5 1.5 0 0 1-.72-2.817 398.258 398.258 0 0 0 5.232-2.91 1.5 1.5 0 0 1 1.48 2.61 404.588 404.588 0 0 1-5.276 2.933 1.482 1.482 0 0 1-.717.183zm-388.239 1.88c-.238 0-.48-.057-.705-.177a394.378 394.378 0 0 1-5.277-2.867 1.5 1.5 0 1 1 1.453-2.625c1.737.961 3.482 1.91 5.236 2.846a1.5 1.5 0 0 1-.707 2.823zm377.603 3.73a1.5 1.5 0 0 1-.68-2.837c1.78-.907 3.552-1.825 5.318-2.756a1.5 1.5 0 0 1 1.4 2.652c-1.779.94-3.566 1.864-5.358 2.777a1.487 1.487 0 0 1-.68.164zm-366.97 1.75c-.225 0-.453-.05-.667-.158a389.2 389.2 0 0 1-5.356-2.71 1.498 1.498 0 0 1-.646-2.02 1.502 1.502 0 0 1 2.021-.647 383.25 383.25 0 0 0 5.315 2.69 1.5 1.5 0 0 1-.668 2.844zm356.171 3.545a1.5 1.5 0 0 1-.642-2.857 399.623 399.623 0 0 0 5.401-2.599 1.501 1.501 0 0 1 1.32 2.694 399.526 399.526 0 0 1-5.439 2.618 1.491 1.491 0 0 1-.64.144zm-345.386 1.617c-.21 0-.423-.044-.627-.138a394.837 394.837 0 0 1-5.43-2.552 1.498 1.498 0 0 1-.705-2 1.497 1.497 0 0 1 2-.705c1.79.857 3.587 1.701 5.391 2.532a1.502 1.502 0 0 1 .735 1.991 1.502 1.502 0 0 1-1.364.872zm334.431 3.36a1.501 1.501 0 0 1-.602-2.876c1.833-.8 3.66-1.612 5.477-2.437a1.496 1.496 0 0 1 1.985.745c.343.754.01 1.643-.745 1.985a411.244 411.244 0 0 1-5.515 2.457c-.196.085-.4.125-.6.125zm-323.505 1.48c-.195 0-.394-.039-.586-.12-1.84-.783-3.674-1.58-5.5-2.389a1.5 1.5 0 1 1 1.214-2.742 406.86 406.86 0 0 0 5.46 2.37 1.5 1.5 0 0 1-.588 2.881zm312.404 3.17a1.5 1.5 0 0 1-.559-2.89 393.346 393.346 0 0 0 5.546-2.278 1.499 1.499 0 1 1 1.16 2.766 406.593 406.593 0 0 1-5.588 2.294 1.493 1.493 0 0 1-.559.108zm-301.316 1.358c-.183 0-.367-.033-.547-.104a387.387 387.387 0 0 1-5.59-2.235 1.5 1.5 0 0 1 1.134-2.777c1.843.753 3.692 1.492 5.55 2.22a1.5 1.5 0 0 1-.547 2.896zm290.08 2.964a1.5 1.5 0 0 1-.519-2.908 406.712 406.712 0 0 0 5.615-2.112 1.505 1.505 0 0 1 1.938.862 1.501 1.501 0 0 1-.862 1.94 426.044 426.044 0 0 1-5.655 2.126 1.518 1.518 0 0 1-.518.092zm-278.844 1.241c-.168 0-.338-.028-.505-.088a418.288 418.288 0 0 1-5.654-2.068 1.502 1.502 0 0 1 1.051-2.81c1.864.697 3.735 1.382 5.613 2.054a1.498 1.498 0 0 1 .907 1.917 1.499 1.499 0 0 1-1.412.995zm267.48 2.746a1.5 1.5 0 0 1-.477-2.923c1.9-.634 3.79-1.282 5.676-1.944a1.5 1.5 0 1 1 .994 2.83c-1.899.668-3.807 1.32-5.719 1.96a1.49 1.49 0 0 1-.475.077zm-256.123 1.126c-.154 0-.31-.023-.464-.073a434.176 434.176 0 0 1-5.712-1.902 1.5 1.5 0 1 1 .967-2.839 418.67 418.67 0 0 0 5.673 1.887 1.5 1.5 0 0 1-.464 2.927zm244.638 2.524a1.5 1.5 0 0 1-.43-2.936 384.176 384.176 0 0 0 5.732-1.775 1.501 1.501 0 0 1 .91 2.86c-1.92.61-3.845 1.205-5.778 1.788a1.52 1.52 0 0 1-.434.063zm-233.17 1.008c-.14 0-.282-.019-.422-.059a408.608 408.608 0 0 1-5.769-1.732 1.5 1.5 0 0 1 .885-2.867 377.67 377.67 0 0 0 5.723 1.718 1.5 1.5 0 0 1-.418 2.94zm221.633 2.286a1.5 1.5 0 0 1-.389-2.948 415.169 415.169 0 0 0 5.76-1.599 1.503 1.503 0 0 1 1.854 1.032 1.498 1.498 0 0 1-1.03 1.853c-1.93.55-3.864 1.087-5.803 1.611a1.513 1.513 0 0 1-.392.051zm-210.069.91c-.125 0-.252-.016-.379-.049a424.387 424.387 0 0 1-5.816-1.56 1.499 1.499 0 1 1 .798-2.892c1.92.531 3.844 1.046 5.774 1.55a1.499 1.499 0 0 1-.377 2.951zm198.44 2.043a1.5 1.5 0 0 1-.347-2.959c1.94-.462 3.874-.939 5.803-1.429a1.5 1.5 0 1 1 .74 2.908c-1.945.494-3.894.973-5.848 1.438a1.448 1.448 0 0 1-.349.042zm-186.785.806a1.5 1.5 0 0 1-.336-.038 381 381 0 0 1-5.86-1.387 1.5 1.5 0 1 1 .713-2.914c1.932.473 3.872.932 5.816 1.377a1.5 1.5 0 0 1-.333 2.962zm175.072 1.801a1.5 1.5 0 0 1-.302-2.969c1.953-.404 3.9-.823 5.843-1.256a1.499 1.499 0 1 1 .653 2.928c-1.957.437-3.92.857-5.887 1.266a1.523 1.523 0 0 1-.307.031zm-163.338.704a1.53 1.53 0 0 1-.293-.028 407.887 407.887 0 0 1-5.899-1.214 1.5 1.5 0 0 1-1.153-1.78 1.506 1.506 0 0 1 1.78-1.154c1.945.415 3.898.818 5.854 1.204a1.502 1.502 0 0 1-.289 2.972zm151.556 1.557a1.5 1.5 0 0 1-.259-2.978c1.964-.347 3.924-.708 5.88-1.083a1.5 1.5 0 0 1 .564 2.947c-1.969.377-3.943.741-5.922 1.091a1.468 1.468 0 0 1-.263.023zm-139.754.602a1.64 1.64 0 0 1-.25-.02c-1.982-.332-3.959-.68-5.93-1.04a1.5 1.5 0 0 1-1.206-1.745 1.498 1.498 0 0 1 1.745-1.207c1.958.36 3.92.703 5.887 1.033a1.499 1.499 0 0 1-.246 2.98zm127.91 1.311a1.5 1.5 0 0 1-.216-2.985 407.96 407.96 0 0 0 5.908-.909 1.489 1.489 0 0 1 1.72 1.241 1.5 1.5 0 0 1-1.242 1.72 398.5 398.5 0 0 1-5.952.917 1.464 1.464 0 0 1-.218.016zm-116.05.5c-.069 0-.137-.006-.207-.015a400.93 400.93 0 0 1-5.958-.866 1.498 1.498 0 0 1-1.256-1.709 1.498 1.498 0 0 1 1.71-1.256c1.967.3 3.937.586 5.914.858a1.5 1.5 0 0 1-.203 2.987zm104.154 1.064a1.5 1.5 0 0 1-.172-2.99 397 397 0 0 0 5.933-.735 1.504 1.504 0 0 1 1.682 1.291 1.498 1.498 0 0 1-1.292 1.683c-1.987.262-3.979.51-5.976.741-.059.007-.117.01-.175.01zm-92.246.395c-.054 0-.108-.003-.162-.009a408.183 408.183 0 0 1-5.982-.689 1.5 1.5 0 0 1-1.306-1.67c.101-.825.873-1.4 1.672-1.308 1.974.243 3.954.472 5.936.685a1.5 1.5 0 0 1-.158 2.991zm80.31.82a1.5 1.5 0 0 1-.128-2.994c1.987-.174 3.971-.36 5.95-.563a1.5 1.5 0 1 1 .304 2.985c-1.994.203-3.992.392-5.995.566a1.457 1.457 0 0 1-.132.006zm-68.363.293c-.04 0-.079 0-.119-.005a382.907 382.907 0 0 1-6-.515 1.498 1.498 0 0 1-1.353-1.632 1.49 1.49 0 0 1 1.632-1.354c1.981.185 3.965.355 5.955.511a1.498 1.498 0 0 1 1.378 1.612 1.499 1.499 0 0 1-1.493 1.383zm56.397.574a1.5 1.5 0 0 1-.085-2.997c1.991-.115 3.978-.244 5.964-.388.82-.07 1.544.561 1.604 1.387a1.5 1.5 0 0 1-1.388 1.605 397.589 397.589 0 0 1-6.095.393zm-44.425.19c-.025 0-.05 0-.075-.002a427.182 427.182 0 0 1-6.012-.34 1.5 1.5 0 0 1-1.4-1.593 1.484 1.484 0 0 1 1.591-1.4c1.986.126 3.976.238 5.97.337a1.5 1.5 0 0 1-.074 2.998zm32.44.33a1.5 1.5 0 0 1-.043-3 421.89 421.89 0 0 0 5.974-.216 1.51 1.51 0 0 1 1.563 1.435 1.5 1.5 0 0 1-1.434 1.563 428 428 0 0 1-6.017.216l-.044.001zm-20.462.086h-.03c-2.006-.04-4.008-.096-6.006-.165a1.5 1.5 0 0 1-1.447-1.55 1.482 1.482 0 0 1 1.551-1.448c1.984.07 3.97.123 5.962.163a1.5 1.5 0 0 1-.03 3zm8.465.086c-.828 0-1.654-.003-2.479-.008a1.5 1.5 0 0 1 .01-3h.007c2.815.017 5.63.005 8.44-.035h.021a1.5 1.5 0 0 1 .022 3c-2.003.028-4.01.043-6.02.043zm-3.237-680.981a1.5 1.5 0 0 1-.018-3c2.007-.023 4.024-.023 6.032-.005a1.5 1.5 0 0 1 1.485 1.515c-.008.828-.676 1.51-1.515 1.485a282.488 282.488 0 0 0-5.966.005h-.018zm17.984.374-.08-.002c-1.982-.106-3.969-.19-5.962-.254a1.5 1.5 0 0 1-1.45-1.547c.025-.828.697-1.505 1.546-1.451 2.014.064 4.023.15 6.025.256a1.5 1.5 0 0 1-.079 2.998zm-29.976.026a1.5 1.5 0 0 1-.082-2.998c2.008-.111 4.035-.201 6.026-.266a1.506 1.506 0 0 1 1.55 1.449 1.5 1.5 0 0 1-1.45 1.549c-1.992.066-3.979.154-5.96.264l-.084.002zm41.941.876c-.049 0-.097-.002-.147-.006a270.535 270.535 0 0 0-5.945-.514 1.5 1.5 0 0 1 .227-2.992c2.01.152 4.012.325 6.01.519a1.5 1.5 0 0 1-.145 2.993zm-53.903.047a1.5 1.5 0 0 1-.146-2.993c1.996-.197 4-.374 6.008-.528.815-.084 1.547.553 1.611 1.38a1.498 1.498 0 0 1-1.38 1.61c-1.988.154-3.969.329-5.944.524a1.472 1.472 0 0 1-.149.007zm65.814 1.379c-.07 0-.14-.005-.213-.014-1.958-.28-3.947-.541-5.916-.776a1.5 1.5 0 0 1-1.31-1.668c.1-.822.85-1.42 1.668-1.31 1.99.238 4.002.502 5.98.783a1.501 1.501 0 0 1-.209 2.985zm-77.722.069a1.5 1.5 0 0 1-.212-2.985 268.49 268.49 0 0 1 5.98-.794 1.508 1.508 0 0 1 1.67 1.309 1.5 1.5 0 0 1-1.308 1.67c-1.983.24-3.973.504-5.914.784a1.447 1.447 0 0 1-.216.016zm89.56 1.88a1.46 1.46 0 0 1-.279-.024 276.1 276.1 0 0 0-5.876-1.036 1.498 1.498 0 0 1-1.235-1.724 1.49 1.49 0 0 1 1.723-1.235c1.988.327 3.968.676 5.941 1.046a1.5 1.5 0 0 1 1.198 1.75 1.502 1.502 0 0 1-1.473 1.224zm-101.393.09a1.5 1.5 0 0 1-.277-2.973 276.92 276.92 0 0 1 5.94-1.057 1.5 1.5 0 1 1 .492 2.959c-1.966.327-3.923.676-5.875 1.045a1.577 1.577 0 0 1-.28.026zm113.131 2.385a1.55 1.55 0 0 1-.343-.04 268.124 268.124 0 0 0-5.824-1.294 1.5 1.5 0 1 1 .62-2.936c1.974.416 3.956.857 5.887 1.309a1.502 1.502 0 0 1 1.12 1.803 1.503 1.503 0 0 1-1.46 1.158zm-124.865.109a1.5 1.5 0 0 1-.343-2.96 266.81 266.81 0 0 1 5.886-1.32 1.502 1.502 0 0 1 1.78 1.156 1.502 1.502 0 0 1-1.157 1.78c-1.938.41-3.896.85-5.82 1.304-.116.028-.23.04-.346.04zm136.482 2.88a1.5 1.5 0 0 1-.407-.055 261.192 261.192 0 0 0-5.76-1.552 1.502 1.502 0 0 1 .748-2.906c1.928.496 3.887 1.024 5.824 1.569a1.5 1.5 0 0 1-.405 2.944zm-148.096.134a1.501 1.501 0 0 1-.408-2.943 270.326 270.326 0 0 1 5.822-1.58 1.5 1.5 0 1 1 .754 2.904c-1.929.5-3.865 1.025-5.758 1.562a1.53 1.53 0 0 1-.41.057zm159.568 3.372c-.155 0-.314-.024-.469-.075a270.163 270.163 0 0 0-5.686-1.807 1.5 1.5 0 0 1 .877-2.87 281.97 281.97 0 0 1 5.748 1.827 1.5 1.5 0 0 1-.47 2.925zm-171.056.16a1.501 1.501 0 0 1-.473-2.924 276.347 276.347 0 0 1 5.768-1.843 1.5 1.5 0 0 1 .882 2.867 268.521 268.521 0 0 0-5.705 1.824 1.498 1.498 0 0 1-.472.076zm182.363 3.852a1.49 1.49 0 0 1-.533-.098 274.917 274.917 0 0 0-5.6-2.058 1.5 1.5 0 0 1 1.004-2.827c1.901.675 3.807 1.375 5.662 2.08a1.501 1.501 0 0 1-.533 2.903zm-193.7.195a1.499 1.499 0 0 1-.537-2.9 267.684 267.684 0 0 1 5.677-2.1 1.5 1.5 0 1 1 1.008 2.826c-1.884.672-3.772 1.37-5.613 2.075a1.481 1.481 0 0 1-.536.099zm204.796 4.305c-.199 0-.4-.04-.594-.123a261.793 261.793 0 0 0-5.482-2.294 1.502 1.502 0 0 1-.828-1.954 1.505 1.505 0 0 1 1.955-.827c1.837.745 3.704 1.526 5.544 2.32a1.5 1.5 0 0 1-.595 2.878zm-215.935.24a1.5 1.5 0 0 1-.598-2.876 277.45 277.45 0 0 1 5.574-2.348 1.5 1.5 0 1 1 1.135 2.778 268.255 268.255 0 0 0-5.514 2.322 1.504 1.504 0 0 1-.597.124zm-10.924 5.036a1.498 1.498 0 0 1-.659-2.847 269.658 269.658 0 0 1 5.464-2.593 1.5 1.5 0 1 1 1.256 2.724c-1.792.827-3.61 1.689-5.403 2.564a1.504 1.504 0 0 1-.658.152zm248.377 5.16c-.24 0-.485-.056-.713-.18a266.167 266.167 0 0 0-5.264-2.773 1.5 1.5 0 1 1 1.37-2.67 277.62 277.62 0 0 1 5.322 2.805 1.5 1.5 0 0 1-.715 2.819zm-259.06.352a1.5 1.5 0 0 1-.719-2.817 269.424 269.424 0 0 1 5.341-2.832 1.5 1.5 0 0 1 1.375 2.666 271.102 271.102 0 0 0-5.28 2.8 1.5 1.5 0 0 1-.718.183zm269.46 5.574a1.48 1.48 0 0 1-.77-.214 276.575 276.575 0 0 0-5.139-3.003 1.5 1.5 0 1 1 1.484-2.607c1.744.994 3.476 2.007 5.197 3.038a1.5 1.5 0 0 1-.772 2.786zm-279.888.402a1.5 1.5 0 0 1-.775-2.785 281.608 281.608 0 0 1 5.208-3.061 1.5 1.5 0 1 1 1.492 2.6 278.989 278.989 0 0 0-5.152 3.032 1.5 1.5 0 0 1-.773.214zm290.021 5.978a1.49 1.49 0 0 1-.825-.248 275.332 275.332 0 0 0-5.006-3.23 1.5 1.5 0 1 1 1.6-2.538 290.581 290.581 0 0 1 5.06 3.264 1.5 1.5 0 0 1-.829 2.752zm-300.168.454a1.5 1.5 0 0 1-.832-2.749 273.702 273.702 0 0 1 5.066-3.29 1.502 1.502 0 0 1 2.07.465 1.498 1.498 0 0 1-.465 2.07 270.898 270.898 0 0 0-5.009 3.253c-.256.17-.544.25-.83.25zm310.015 6.366c-.305 0-.614-.092-.88-.286a264.346 264.346 0 0 0-4.86-3.446 1.5 1.5 0 0 1 1.71-2.467 278.98 278.98 0 0 1 4.912 3.485 1.5 1.5 0 0 1-.882 2.714zm-319.867.502a1.499 1.499 0 0 1-.886-2.712 283.948 283.948 0 0 1 4.914-3.506 1.5 1.5 0 1 1 1.717 2.46 274.227 274.227 0 0 0-4.86 3.47 1.496 1.496 0 0 1-.885.288zm329.41 6.748a1.49 1.49 0 0 1-.933-.326 272.73 272.73 0 0 0-4.706-3.657 1.5 1.5 0 1 1 1.815-2.39c1.6 1.217 3.185 2.449 4.758 3.699a1.5 1.5 0 0 1-.935 2.674zm-338.946.547a1.5 1.5 0 0 1-.939-2.671 278.692 278.692 0 0 1 4.755-3.72 1.5 1.5 0 1 1 1.823 2.382 269.915 269.915 0 0 0-4.703 3.68 1.492 1.492 0 0 1-.936.329zm-9.204 7.703a1.5 1.5 0 0 1-.989-2.63 280.39 280.39 0 0 1 4.584-3.922 1.5 1.5 0 1 1 1.926 2.3 279.328 279.328 0 0 0-4.535 3.88 1.491 1.491 0 0 1-.986.372zm366.243 7.476a1.5 1.5 0 0 1-1.033-.412 269.903 269.903 0 0 0-4.369-4.058 1.498 1.498 0 1 1 2.015-2.221 267.45 267.45 0 0 1 4.42 4.103 1.5 1.5 0 0 1-1.033 2.588zm-375.1.62a1.501 1.501 0 0 1-1.036-2.585 276.102 276.102 0 0 1 4.406-4.118 1.5 1.5 0 1 1 2.026 2.213 274.94 274.94 0 0 0-4.36 4.075c-.29.277-.663.415-1.036.415zm383.617 7.826c-.393 0-.786-.153-1.08-.458a284.3 284.3 0 0 0-4.189-4.248 1.5 1.5 0 1 1 2.113-2.13 281.073 281.073 0 0 1 4.235 4.294 1.501 1.501 0 0 1-1.079 2.542zm-392.104.65a1.5 1.5 0 0 1-1.084-2.538 269.803 269.803 0 0 1 4.222-4.308 1.5 1.5 0 1 1 2.12 2.123 263.738 263.738 0 0 0-4.175 4.26 1.496 1.496 0 0 1-1.083.463zm400.245 8.165c-.416 0-.829-.171-1.125-.507a263.649 263.649 0 0 0-4-4.427 1.5 1.5 0 0 1 2.203-2.037 273.265 273.265 0 0 1 4.045 4.477 1.5 1.5 0 0 1-1.123 2.494zm-408.354.669a1.498 1.498 0 0 1-1.126-2.491 285.297 285.297 0 0 1 4.026-4.485 1.5 1.5 0 0 1 2.211 2.027 274.555 274.555 0 0 0-3.983 4.439 1.5 1.5 0 0 1-1.128.51zm416.103 8.496a1.5 1.5 0 0 1-1.167-.557 269.222 269.222 0 0 0-3.805-4.601 1.5 1.5 0 1 1 2.291-1.937 269.576 269.576 0 0 1 3.846 4.65 1.5 1.5 0 0 1-1.165 2.445zm-423.814.683a1.499 1.499 0 0 1-1.169-2.438 262.645 262.645 0 0 1 3.826-4.658 1.5 1.5 0 1 1 2.297 1.929 267.851 267.851 0 0 0-3.783 4.606 1.5 1.5 0 0 1-1.17.56zm431.155 8.817c-.46 0-.914-.211-1.208-.61a272.428 272.428 0 0 0-3.598-4.763 1.5 1.5 0 1 1 2.373-1.834 266.34 266.34 0 0 1 3.64 4.816 1.5 1.5 0 0 1-1.207 2.39zm-438.452.688a1.5 1.5 0 0 1-1.208-2.388 272.375 272.375 0 0 1 3.616-4.817 1.496 1.496 0 0 1 2.103-.276c.657.504.781 1.445.276 2.102a277.933 277.933 0 0 0-3.577 4.767c-.294.4-.749.612-1.21.612zm445.37 9.128c-.482 0-.956-.232-1.246-.663a263.856 263.856 0 0 0-3.387-4.92 1.501 1.501 0 0 1 2.451-1.73 273.338 273.338 0 0 1 3.426 4.976 1.5 1.5 0 0 1-1.244 2.337zm-452.24.686a1.499 1.499 0 0 1-1.246-2.333 268.888 268.888 0 0 1 3.4-4.971 1.499 1.499 0 1 1 2.456 1.72 274.953 274.953 0 0 0-3.362 4.917 1.499 1.499 0 0 1-1.248.667zm458.721 9.429a1.5 1.5 0 0 1-1.28-.718 263.496 263.496 0 0 0-3.168-5.066 1.5 1.5 0 1 1 2.526-1.62 275.156 275.156 0 0 1 3.202 5.123 1.5 1.5 0 0 1-1.28 2.28zm-465.153.673a1.499 1.499 0 0 1-1.281-2.278 272.665 272.665 0 0 1 3.177-5.113 1.501 1.501 0 0 1 2.531 1.61 275.446 275.446 0 0 0-3.144 5.059 1.498 1.498 0 0 1-1.283.722zm471.184 9.722c-.529 0-1.042-.28-1.315-.777a273.955 273.955 0 0 0-2.94-5.202 1.499 1.499 0 1 1 2.594-1.506 280.239 280.239 0 0 1 2.974 5.26 1.499 1.499 0 0 1-1.313 2.225zm-477.16.647a1.501 1.501 0 0 1-1.315-2.219 274.29 274.29 0 0 1 2.947-5.247 1.5 1.5 0 0 1 2.6 1.498 273.624 273.624 0 0 0-2.915 5.188 1.5 1.5 0 0 1-1.317.78zm482.726 10.009a1.502 1.502 0 0 1-1.346-.835 275.186 275.186 0 0 0-2.709-5.33 1.5 1.5 0 0 1 2.66-1.39 278.452 278.452 0 0 1 2.74 5.39 1.501 1.501 0 0 1-1.345 2.165zm-488.239.61a1.5 1.5 0 0 1-1.346-2.161c.885-1.8 1.79-3.591 2.713-5.37a1.5 1.5 0 1 1 2.662 1.384 266.363 266.363 0 0 0-2.682 5.31 1.5 1.5 0 0 1-1.347.838zm-5.035 10.848a1.5 1.5 0 0 1-1.373-2.101 269.733 269.733 0 0 1 2.471-5.482 1.501 1.501 0 0 1 2.721 1.264 272.39 272.39 0 0 0-2.444 5.42 1.5 1.5 0 0 1-1.375.899zm-4.555 11.073a1.5 1.5 0 0 1-1.399-2.04 272.022 272.022 0 0 1 2.232-5.602 1.5 1.5 0 1 1 2.775 1.14 274.248 274.248 0 0 0-2.209 5.542c-.229.596-.797.96-1.399.96zm-4.069 11.287a1.497 1.497 0 0 1-1.422-1.976 258.93 258.93 0 0 1 1.982-5.698 1.5 1.5 0 1 1 2.822 1.017c-.67 1.86-1.33 3.755-1.96 5.634a1.497 1.497 0 0 1-1.422 1.023zm-9.143 34.786a1.5 1.5 0 0 1-1.475-1.785 279.65 279.65 0 0 1 1.208-5.91 1.5 1.5 0 1 1 2.932.633 279.94 279.94 0 0 0-1.194 5.846 1.5 1.5 0 0 1-1.47 1.216zm.731 107.27a1.5 1.5 0 0 1-1.466-1.194 276.27 276.27 0 0 1-1.159-5.92 1.5 1.5 0 1 1 2.951-.545c.36 1.959.742 3.91 1.145 5.855a1.5 1.5 0 0 1-1.47 1.805zm2.696 11.69a1.5 1.5 0 0 1-1.453-1.13 274.915 274.915 0 0 1-1.42-5.863 1.5 1.5 0 1 1 2.923-.673c.448 1.944.921 3.895 1.405 5.796a1.501 1.501 0 0 1-1.455 1.87zm3.211 11.56a1.5 1.5 0 0 1-1.435-1.066 277.366 277.366 0 0 1-1.68-5.794 1.501 1.501 0 0 1 2.891-.803 277.348 277.348 0 0 0 1.66 5.73 1.5 1.5 0 0 1-1.436 1.933zm513.103 22.183a1.498 1.498 0 0 1-1.392-2.057 272.195 272.195 0 0 0 2.153-5.564 1.495 1.495 0 0 1 1.931-.878 1.499 1.499 0 0 1 .878 1.93 275.923 275.923 0 0 1-2.177 5.625 1.5 1.5 0 0 1-1.393.944zm-4.682 10.999a1.503 1.503 0 0 1-1.367-2.118c.817-1.804 1.613-3.62 2.39-5.445a1.499 1.499 0 1 1 2.76 1.174 270.548 270.548 0 0 1-2.415 5.507 1.502 1.502 0 0 1-1.368.882zm-5.165 10.787a1.5 1.5 0 0 1-1.337-2.178 280.69 280.69 0 0 0 2.628-5.336 1.5 1.5 0 1 1 2.705 1.297 289.978 289.978 0 0 1-2.657 5.395 1.5 1.5 0 0 1-1.339.822zm-485.32.637a1.5 1.5 0 0 1-1.338-.82 278.08 278.08 0 0 1-2.685-5.417 1.501 1.501 0 0 1 2.703-1.302 274.85 274.85 0 0 0 2.656 5.358 1.501 1.501 0 0 1-1.336 2.18zm479.68 9.917a1.5 1.5 0 0 1-1.307-2.236 277.156 277.156 0 0 0 2.864-5.22 1.499 1.499 0 1 1 2.644 1.416 282.935 282.935 0 0 1-2.892 5.275 1.503 1.503 0 0 1-1.309.765zm-473.987.668a1.498 1.498 0 0 1-1.306-.761 266.993 266.993 0 0 1-2.922-5.291 1.5 1.5 0 1 1 2.643-1.42 271.966 271.966 0 0 0 2.888 5.232 1.497 1.497 0 0 1-1.303 2.24zm467.887 9.632a1.5 1.5 0 0 1-1.272-2.293 272.145 272.145 0 0 0 3.091-5.088 1.502 1.502 0 0 1 2.054-.527 1.5 1.5 0 0 1 .527 2.056 288.601 288.601 0 0 1-3.125 5.145 1.5 1.5 0 0 1-1.275.707zm-461.732.689a1.5 1.5 0 0 1-1.272-.703 276.322 276.322 0 0 1-3.152-5.155 1.5 1.5 0 0 1 2.576-1.537 275.3 275.3 0 0 0 3.117 5.098 1.498 1.498 0 0 1-1.269 2.297zm455.181 9.336a1.498 1.498 0 0 1-1.237-2.348 278.693 278.693 0 0 0 3.313-4.95 1.5 1.5 0 1 1 2.511 1.641 272.328 272.328 0 0 1-3.349 5.004c-.29.424-.76.653-1.238.653zm-448.58.698a1.5 1.5 0 0 1-1.237-.648 292.082 292.082 0 0 1-3.373-5.008 1.5 1.5 0 0 1 2.506-1.649 273.033 273.033 0 0 0 3.338 4.953 1.5 1.5 0 0 1-1.235 2.352zm441.592 9.033a1.5 1.5 0 0 1-1.198-2.401 263.029 263.029 0 0 0 3.528-4.802 1.5 1.5 0 1 1 2.438 1.75 268.922 268.922 0 0 1-3.568 4.855 1.497 1.497 0 0 1-1.2.598zm-434.556.7a1.5 1.5 0 0 1-1.198-.593 278.671 278.671 0 0 1-3.59-4.854 1.501 1.501 0 0 1 .336-2.095 1.503 1.503 0 0 1 2.095.337 264.209 264.209 0 0 0 3.552 4.8 1.501 1.501 0 0 1-1.195 2.406zm427.146 8.719a1.5 1.5 0 0 1-1.157-2.453 267.412 267.412 0 0 0 3.737-4.644 1.5 1.5 0 0 1 2.36 1.854 270.618 270.618 0 0 1-3.78 4.696 1.496 1.496 0 0 1-1.16.547zm-419.693.692c-.432 0-.86-.185-1.157-.543a283.758 283.758 0 0 1-3.798-4.69 1.499 1.499 0 1 1 2.351-1.863 278.658 278.658 0 0 0 3.758 4.639 1.501 1.501 0 0 1-1.154 2.457zm411.875 8.397a1.5 1.5 0 0 1-1.115-2.503 269.568 269.568 0 0 0 3.936-4.476 1.504 1.504 0 0 1 2.116-.16c.628.54.7 1.488.16 2.117a273.37 273.37 0 0 1-3.982 4.525 1.497 1.497 0 0 1-1.115.497zm-404.02.674c-.409 0-.817-.166-1.113-.494a276.092 276.092 0 0 1-3.999-4.516 1.5 1.5 0 0 1 2.267-1.965 279.327 279.327 0 0 0 3.957 4.469 1.5 1.5 0 0 1-1.112 2.506zm395.808 8.065a1.5 1.5 0 0 1-1.07-2.55 279.548 279.548 0 0 0 4.131-4.302 1.5 1.5 0 0 1 2.186 2.054 272.053 272.053 0 0 1-4.177 4.349 1.495 1.495 0 0 1-1.07.449zm-387.564.65c-.386 0-.773-.148-1.066-.445a265.829 265.829 0 0 1-4.193-4.337 1.499 1.499 0 1 1 2.18-2.06 268.23 268.23 0 0 0 4.146 4.288 1.5 1.5 0 0 1-1.067 2.555zm378.973 7.723a1.499 1.499 0 0 1-1.023-2.596 274.968 274.968 0 0 0 4.318-4.12 1.5 1.5 0 0 1 2.094 2.149 280.998 280.998 0 0 1-4.366 4.164c-.289.27-.656.403-1.023.403zm-370.356.62c-.366 0-.73-.13-1.02-.398a272.387 272.387 0 0 1-4.378-4.148 1.502 1.502 0 0 1 2.088-2.155 270.53 270.53 0 0 0 4.33 4.102 1.5 1.5 0 0 1-1.02 2.6zm361.406 7.373a1.5 1.5 0 0 1-.975-2.641 265.15 265.15 0 0 0 4.493-3.925 1.5 1.5 0 1 1 2 2.236 254.791 254.791 0 0 1-4.546 3.97c-.282.24-.628.36-.972.36zm-352.438.584c-.342 0-.687-.118-.969-.357-1.532-1.3-3.05-2.616-4.553-3.95a1.499 1.499 0 1 1 1.99-2.244 269.755 269.755 0 0 0 4.504 3.907 1.5 1.5 0 0 1-.972 2.644zm343.142 7.009a1.499 1.499 0 0 1-.924-2.682 273.607 273.607 0 0 0 4.664-3.726 1.5 1.5 0 1 1 1.9 2.324 274.836 274.836 0 0 1-4.718 3.767 1.492 1.492 0 0 1-.922.317zm-333.834.543a1.49 1.49 0 0 1-.919-.315 284.932 284.932 0 0 1-4.72-3.745 1.501 1.501 0 0 1 1.891-2.33 273.841 273.841 0 0 0 4.67 3.706 1.5 1.5 0 0 1-.922 2.684zm324.21 6.637a1.5 1.5 0 0 1-.871-2.722 277.77 277.77 0 0 0 4.825-3.518 1.498 1.498 0 1 1 1.793 2.404 272.714 272.714 0 0 1-4.878 3.558 1.498 1.498 0 0 1-.869.278zm-314.583.497c-.3 0-.603-.09-.865-.275a274.846 274.846 0 0 1-4.88-3.535 1.5 1.5 0 0 1 1.787-2.41 264.287 264.287 0 0 0 4.825 3.495 1.499 1.499 0 0 1-.867 2.725zm304.65 6.255a1.5 1.5 0 0 1-.816-2.759 269.753 269.753 0 0 0 4.976-3.304 1.5 1.5 0 0 1 1.686 2.483 277.434 277.434 0 0 1-5.032 3.339 1.494 1.494 0 0 1-.815.24zm-294.723.448c-.279 0-.56-.077-.812-.24a277.578 277.578 0 0 1-5.026-3.314 1.499 1.499 0 1 1 1.678-2.486 273.491 273.491 0 0 0 4.973 3.279 1.5 1.5 0 0 1-.813 2.76zm284.498 5.86a1.5 1.5 0 0 1-.761-2.794 277.668 277.668 0 0 0 5.121-3.08 1.498 1.498 0 1 1 1.574 2.552 272.849 272.849 0 0 1-5.176 3.116c-.239.14-.5.207-.758.207zm-274.289.397a1.49 1.49 0 0 1-.755-.204 276.264 276.264 0 0 1-5.167-3.09 1.5 1.5 0 0 1 1.568-2.558 265.048 265.048 0 0 0 5.11 3.056c.715.417.958 1.336.541 2.052a1.502 1.502 0 0 1-1.297.744zm263.792 5.456a1.502 1.502 0 0 1-.703-2.826 262.728 262.728 0 0 0 5.252-2.853 1.5 1.5 0 1 1 1.461 2.621c-1.743.972-3.53 1.943-5.31 2.884a1.496 1.496 0 0 1-.7.174zm-253.325.343c-.235 0-.474-.056-.697-.172a285.866 285.866 0 0 1-5.294-2.857 1.503 1.503 0 0 1-.586-2.04 1.502 1.502 0 0 1 2.04-.585c1.734.96 3.48 1.903 5.237 2.826a1.501 1.501 0 0 1-.7 2.828zm242.574 5.042a1.5 1.5 0 0 1-.643-2.856 261.578 261.578 0 0 0 5.376-2.62 1.505 1.505 0 0 1 2.014.67c.37.742.07 1.644-.67 2.015a272.69 272.69 0 0 1-5.437 2.646 1.478 1.478 0 0 1-.64.145zm-231.864.287c-.213 0-.43-.046-.637-.143a269.844 269.844 0 0 1-5.414-2.62 1.5 1.5 0 1 1 1.337-2.685 272.21 272.21 0 0 0 5.354 2.59 1.5 1.5 0 0 1-.64 2.858zm220.88 4.616a1.501 1.501 0 0 1-.583-2.883 260.362 260.362 0 0 0 5.49-2.378 1.5 1.5 0 0 1 1.224 2.739 266.278 266.278 0 0 1-5.552 2.405c-.189.08-.386.117-.58.117zm-209.95.232c-.193 0-.389-.038-.577-.116a261.605 261.605 0 0 1-5.522-2.377 1.5 1.5 0 0 1 1.217-2.742c1.813.805 3.65 1.596 5.46 2.35a1.501 1.501 0 0 1-.579 2.885zm198.752 4.18a1.499 1.499 0 0 1-.519-2.907 272.48 272.48 0 0 0 5.593-2.132 1.502 1.502 0 0 1 1.946.846 1.501 1.501 0 0 1-.846 1.945 269.235 269.235 0 0 1-5.655 2.155 1.474 1.474 0 0 1-.519.093zm-187.602.186c-.17 0-.345-.03-.515-.092a266.319 266.319 0 0 1-5.642-2.138 1.498 1.498 0 0 1-.849-1.943 1.499 1.499 0 0 1 1.943-.85c1.85.725 3.71 1.43 5.58 2.115a1.499 1.499 0 0 1-.517 2.908zm176.215 3.724a1.498 1.498 0 0 1-1.428-1.045 1.497 1.497 0 0 1 .973-1.883 286.543 286.543 0 0 0 5.686-1.882 1.495 1.495 0 0 1 1.905.932 1.5 1.5 0 0 1-.933 1.906 270.275 270.275 0 0 1-5.748 1.9 1.469 1.469 0 0 1-.455.072zm-164.86.15c-.149 0-.302-.022-.453-.07a271.949 271.949 0 0 1-5.73-1.884 1.5 1.5 0 0 1 .968-2.84c1.876.64 3.782 1.267 5.668 1.865a1.5 1.5 0 0 1-.453 2.93zm153.35 3.238a1.5 1.5 0 0 1-.39-2.948 271.515 271.515 0 0 0 5.74-1.62 1.498 1.498 0 0 1 1.862 1.014 1.499 1.499 0 0 1-1.014 1.863c-1.9.56-3.855 1.112-5.806 1.639a1.52 1.52 0 0 1-.392.052zm-141.835.129c-.129 0-.26-.017-.39-.051a261.658 261.658 0 0 1-5.809-1.63 1.498 1.498 0 0 1-1.018-1.86 1.504 1.504 0 0 1 1.86-1.018 266.89 266.89 0 0 0 5.744 1.61 1.5 1.5 0 0 1-.387 2.949zm130.187 2.744a1.5 1.5 0 0 1-.326-2.964c1.944-.434 3.88-.888 5.81-1.364a1.494 1.494 0 0 1 1.814 1.097 1.5 1.5 0 0 1-1.097 1.815c-1.933.478-3.909.942-5.873 1.38a1.54 1.54 0 0 1-.328.036zm-118.533.108c-.107 0-.216-.012-.325-.036a264.785 264.785 0 0 1-5.875-1.37 1.5 1.5 0 1 1 .713-2.913c1.936.474 3.891.93 5.81 1.354a1.5 1.5 0 0 1-.323 2.965zm106.768 2.245a1.5 1.5 0 0 1-.259-2.977c1.962-.348 3.916-.716 5.862-1.105a1.5 1.5 0 1 1 .588 2.941 268.16 268.16 0 0 1-5.927 1.117 1.49 1.49 0 0 1-.264.024zm-95 .086c-.086 0-.173-.007-.26-.023-1.985-.347-3.96-.717-5.93-1.106a1.501 1.501 0 0 1 .582-2.944c1.947.386 3.902.75 5.864 1.095a1.5 1.5 0 0 1-.257 2.978zm83.144 1.744a1.5 1.5 0 0 1-.194-2.988c1.966-.258 3.953-.543 5.906-.844a1.507 1.507 0 0 1 1.711 1.254 1.5 1.5 0 0 1-1.254 1.71 278.42 278.42 0 0 1-5.97.855 1.474 1.474 0 0 1-.199.013zm-71.286.064c-.065 0-.13-.004-.195-.012-1.998-.26-3.99-.541-5.973-.844a1.5 1.5 0 1 1 .453-2.965c1.961.299 3.93.576 5.906.834a1.5 1.5 0 0 1-.191 2.987zm59.361 1.24a1.499 1.499 0 0 1-.128-2.993c1.986-.173 3.964-.368 5.937-.584a1.503 1.503 0 0 1 1.654 1.328 1.5 1.5 0 0 1-1.328 1.655c-1.994.217-3.996.415-6.003.59a1.94 1.94 0 0 1-.132.005zm-47.43.044c-.044 0-.087-.002-.13-.005a263.564 263.564 0 0 1-6.006-.58 1.5 1.5 0 1 1 .322-2.982c1.98.213 3.977.406 5.938.573a1.5 1.5 0 0 1-.125 2.994zm35.46.739c-.799 0-1.463-.63-1.499-1.435a1.502 1.502 0 0 1 1.434-1.564c1.991-.086 3.978-.194 5.958-.324a1.51 1.51 0 0 1 1.595 1.4 1.501 1.501 0 0 1-1.4 1.595c-2.002.129-4.009.239-6.022.327h-.067zm-23.49.02h-.063a284.931 284.931 0 0 1-6.024-.316 1.5 1.5 0 1 1 .19-2.994c1.98.125 3.967.229 5.96.312a1.501 1.501 0 0 1-.063 2.999zm11.497.239c-1.852 0-3.7-.018-5.545-.054a1.5 1.5 0 0 1 .03-3h.03c3.808.075 7.644.074 11.45-.011a1.513 1.513 0 0 1 1.533 1.467 1.5 1.5 0 0 1-1.466 1.533 274.96 274.96 0 0 1-6.032.065z" fill="#A3B1BF" opacity=".396"/><path d="M703.902 371.345a54.77 54.77 0 0 1-3.914 20.364c6.955-1.984 12.055-8.386 12.055-15.995 0-6.55-3.786-12.2-9.273-14.916a55.485 55.485 0 0 1 1.132 10.547m-74.481-12.274c-1.66 2.43-2.923 5.347-3.785 8.833l-.05.214c-.226 8.678-7.395 15.676-16.153 15.676-8.86 0-16.09-7.198-16.117-16.044v-.119l.007-.12c.16-2.083.32-3.004.434-3.507.271-1.677.621-3.32 1.035-4.933h-8.009c-9.17 0-16.603-7.45-16.603-16.643 0-4.828 2.063-9.163 5.34-12.203-1.51.942-3.298.526-4.893.142-1.443-.348-2.805-.675-3.785-.069-.935.58-1.674 2.035-2.195 4.326-1.824 8.001-4.415 9.308-7.877 10.282-2.18.612-4.238 1.191-6.52 6.144-3.646 7.91-6.92 10.392-9.81 12.583-1.609 1.218-3.128 2.37-4.664 4.423-1.639 2.195-2.55 4.934-3.518 7.834-1.582 4.748-3.375 10.131-8.784 15.027-.529.478-1.049.958-1.563 1.44h134.324c3.512-1.038 6.487-2.669 8.854-4.928l.02-.017.017-.018c4.341-4 6.455-9.082 6.462-15.535-.12-4.998-1.43-9.214-3.97-12.788h-38.197zm31.584-66.571h-80.959c-3.316 6.365-3.098 13.364-2.199 27.646.304 4.854-.113 7.702-1.385 9.259a16.507 16.507 0 0 1 10.321-3.62h33.236c7.935-4.713 16.874-7.165 26.708-7.285l.032-.001.033.001c8.786.085 16.721 1.508 23.76 4.246 4.264-3.013 7.057-7.976 7.057-13.603 0-9.192-7.434-16.643-16.604-16.643M285.597 458.929h29.899c-3.008-5.59-5.207-11.311-6.571-17.145-20.973 8.936-23.676 14.533-23.328 17.145m84.42-166.429a16.501 16.501 0 0 0-10.041 3.387c-3.988 3.04 7.533 15.454 7.533 15.454l36.223-13.033 75.573 27.192h38.509c7.695 0 14.125 5.782 15.793 13.533a432.23 432.23 0 0 0 2.084-5.137c1.368-8.392 1.039-14.369-.979-17.763-2.303-3.878-2.789-8.732-1.267-12.666 1.002-2.592 3.358-6.037 8.889-7.729 2.076-.634 3.773-1.775 4.972-3.238H370.017zm130.215 68v31.856h6.096c6.547-10.271 12.72-21.484 18.516-33.602-2.13 1.107-4.508 1.746-7.03 1.746h-17.582z" fill="#ACC0DC" fill-rule="nonzero" opacity=".196"/><path d="M288.915 492.214h-20.467c-9.17 0-16.603-7.451-16.603-16.643 0-9.191 7.433-16.642 16.603-16.642h10.23c1.496-6.451 11.252-13.084 29.61-20.176a63.852 63.852 0 0 1-1.057-11.566V359.07H265.5c-9.17 0-16.604 7.452-16.604 16.643 0 9.19 7.434 16.643 16.604 16.643h19.94c9.17 0 16.603 7.45 16.603 16.643 0 9.192-7.434 16.643-16.604 16.643h-57.047v5.677h9.137c7.983 0 14.514 6.52 14.514 14.488s-6.53 14.488-14.514 14.488h-9.137v21.033c0 9.444-7.74 17.17-17.202 17.17-5.424 0-10.275-2.548-13.434-6.496a16.68 16.68 0 0 1-2.516.21H91.042c-9.17 0-16.604 7.452-16.604 16.644 0 9.19 7.434 16.643 16.604 16.643h197.873c9.17 0 16.604-7.452 16.604-16.643 0-9.192-7.434-16.643-16.604-16.643" fill="#ACC0DC" fill-rule="nonzero" opacity=".196"/><path d="m309.69 438.208 1.105 2.789c-.64.266-1.26.527-1.87.787 2.36 10.086 7.182 19.844 14.434 29.143.436.558.884 1.115 1.338 1.671 1.476.209 2.958.409 4.439.6a94.913 94.913 0 0 1-3.412-4.116c-10.28-13.18-15.492-27.275-15.492-41.895v-92.049l19.062-6.859a23.14 23.14 0 0 1-2.014-2.464l-20.048 7.214v94.158c0 3.894.355 7.749 1.055 11.56.465-.18.927-.359 1.403-.539m59.36-124.232 34.682-12.48 93.5 33.642v70.559a263.66 263.66 0 0 0 3-4.211V333.03l-96.5-34.722-34.705 12.486c.043.574.072 1.15.072 1.735 0 .486-.02.968-.05 1.447M497.21 428.127c-.219 14.283-5.412 28.058-15.473 40.955-7.493 9.608-17.73 18.737-30.428 27.138-20.808 13.765-41.408 21.071-42.275 21.375l-5.303 1.863-5.303-1.862c-.867-.305-21.464-7.61-42.275-21.376-4.976-3.291-9.568-6.697-13.77-10.198a199.353 199.353 0 0 1-3.479-.543c-.735-.123-1.448-.247-2.17-.37 5.257 4.714 11.19 9.263 17.764 13.613 21.097 13.956 42.054 21.394 42.936 21.704l6.297 2.212 6.297-2.212c.882-.31 21.84-7.748 42.936-21.704 12.967-8.578 23.444-17.93 31.14-27.795 10.701-13.72 16.127-28.436 16.127-43.74v-3.144a87.257 87.257 0 0 1-3.02 4.084" fill="#A3B1BF"/><path d="M457.613 462.997c-18.84 11.806-47.305 24.23-84.332 25.025 16.082 9.375 30.285 14.42 30.448 14.477v.001l.017-.006c.193-.067 19.534-6.916 38.735-19.618 11.252-7.444 20.216-15.397 26.64-23.635a66.036 66.036 0 0 0 5.738-8.64 168.107 168.107 0 0 1-17.246 12.396" fill="#A0C8FF" fill-rule="nonzero" opacity=".151"/><path fill="#F3F8FF" d="M403.433 396.863 377.938 371.5l-13.706 13.635 25.494 25.365-25.494 25.363 13.706 13.637 25.495-25.365 25.495 25.365 13.707-13.637L417.14 410.5l25.495-25.365-13.707-13.635z"/><path d="m444.75 433.736 2.138 2.127-2.137 2.127-13.707 13.636-2.116 2.105-2.116-2.105-23.379-23.258-23.379 23.258-2.117 2.105-2.116-2.105-13.706-13.636-2.137-2.127 2.137-2.127 23.357-23.236-23.357-23.238-2.137-2.127 2.137-2.127 13.706-13.635 2.116-2.106 2.117 2.106 23.38 23.26 23.378-23.26 2.116-2.106 2.116 2.106 13.707 13.635 2.137 2.127-2.138 2.127-23.356 23.238 23.356 23.236zM403.731 318.5l-77.5 27.884v80.802c0 10.97 4.075 21.754 12.108 32.054 4.437 5.688 10.084 11.238 16.852 16.577 39.84 2.453 75.1-7.978 104.828-31.043 7.361-5.71 14.433-12.242 21.212-19.565v-78.825l-77.5-27.884z" fill="#A0C8FF" fill-rule="nonzero" opacity=".151"/><path fill="#A3B1BF" d="M442.635 435.863 428.928 449.5l-25.495-25.365-25.495 25.365-13.707-13.637 25.495-25.363-25.495-25.365 13.707-13.635 25.495 25.363 25.495-25.363 13.707 13.635L417.14 410.5zM105.041 579.5a2.5 2.5 0 0 1 2.5 2.5v10a2.5 2.5 0 0 1-5 0v-10a2.5 2.5 0 0 1 2.5-2.5zm-10.5-10.5a2.5 2.5 0 1 1 0 5h-10a2.5 2.5 0 0 1 0-5h10zm31 0a2.5 2.5 0 1 1 0 5h-10a2.5 2.5 0 0 1 0-5h10zm-20.5-20.5a2.5 2.5 0 0 1 2.5 2.5v10a2.5 2.5 0 0 1-5 0v-10a2.5 2.5 0 0 1 2.5-2.5zm216-361a2.5 2.5 0 0 1 2.5 2.5v10a2.5 2.5 0 0 1-5 0v-10a2.5 2.5 0 0 1 2.5-2.5zm-10.5-10.5a2.5 2.5 0 1 1 0 5h-10a2.5 2.5 0 0 1 0-5h10zm31 0a2.5 2.5 0 1 1 0 5h-10a2.5 2.5 0 0 1 0-5h10zm-20.5-20.5a2.5 2.5 0 0 1 2.5 2.5v10a2.5 2.5 0 0 1-5 0v-10a2.5 2.5 0 0 1 2.5-2.5zm385.653 484.438a2.5 2.5 0 0 1 2.5 2.5v10a2.5 2.5 0 1 1-5 0v-10a2.5 2.5 0 0 1 2.5-2.5zm-10.5-10.5a2.5 2.5 0 1 1 0 5h-10a2.5 2.5 0 1 1 0-5h10zm31 0a2.5 2.5 0 1 1 0 5h-10a2.5 2.5 0 1 1 0-5h10zm-20.5-20.5a2.5 2.5 0 0 1 2.5 2.5v10a2.5 2.5 0 1 1-5 0v-10a2.5 2.5 0 0 1 2.5-2.5z"/><path d="M102.638 147.701c-3.02 0-5.83.524-8.223 1.608-.744 1.102-6.92 15.254-18.53 42.456a63.53 63.53 0 0 1 6.763-.376c12.852 0 22.6 4.415 29.242 13.244 7.744 10.296 19.814 15.444 36.205 15.444h.102l18.417-41.1c-1.58.097-3.11.146-4.59.146-14.138 0-23.772-4.464-28.904-13.395-6.623-11.523-19.849-18.026-30.482-18.027m0 6c8.273.001 19.614 5.16 25.28 15.018 5.644 9.82 15.533 15.272 29.437 16.246l-13 29.012c-12.572-.687-21.647-4.943-27.67-12.95-7.366-9.792-17.98-15.028-31.57-15.588 8.556-19.99 12.138-28.112 13.6-31.29 1.178-.295 2.505-.448 3.923-.448" fill="#A0C8FF" fill-rule="nonzero" opacity=".151"/><path d="M102.638 147.701c-3.02 0-5.83.524-8.223 1.608-.744 1.102-6.92 15.254-18.53 42.456a63.53 63.53 0 0 1 6.763-.376c12.852 0 22.6 4.415 29.242 13.244 7.744 10.296 19.814 15.444 36.205 15.444h.102l18.417-41.1c-1.58.097-3.11.146-4.59.146-14.138 0-23.772-4.464-28.904-13.395-6.623-11.523-19.849-18.026-30.482-18.027m0 3c9.137.001 21.647 5.676 27.881 16.522 5.668 9.864 16.232 14.876 31.396 14.9l-15.652 34.932c-14.579-.357-25.05-5.02-31.977-14.225-7.207-9.582-17.852-14.44-31.638-14.44-.68 0-1.373.011-2.074.036 11.183-26.167 14.857-34.4 15.99-36.754 1.765-.645 3.804-.97 6.074-.97" fill="#A3B1BF"/><path d="M99.233 141.065a2 2 0 0 0-2.641 1.013l-43.817 98.415 3.676 1.578 43.796-98.365a2 2 0 0 0-1.014-2.641" fill="#A3B1BF"/><path d="M346.07 292.5c-11.061 0-20.027 8.967-20.027 20.028 0 11.062 8.966 20.03 20.028 20.03s20.028-8.968 20.028-20.03c0-11.061-8.966-20.028-20.028-20.028m0 6c7.735 0 14.028 6.293 14.028 14.028 0 7.736-6.293 14.03-14.028 14.03s-14.028-6.294-14.028-14.03c0-7.735 6.293-14.028 14.028-14.028" fill="#A0C8FF" fill-rule="nonzero" opacity=".151"/><path d="M346.07 289.5c-12.697 0-23.027 10.33-23.027 23.028 0 12.699 10.33 23.03 23.028 23.03 12.698 0 23.028-10.331 23.028-23.03 0-12.698-10.33-23.028-23.028-23.028m0 3c11.062 0 20.028 8.967 20.028 20.028 0 11.062-8.966 20.03-20.028 20.03s-20.028-8.968-20.028-20.03c0-11.061 8.966-20.028 20.028-20.028m-202.029 139 50-55v55h-50zm67.147-109c-.13 0-.257.017-.388.019a14.255 14.255 0 0 0-.716-.017c-3.964-.002-7.916 1.597-10.77 4.743l-.255.282c-.41.41-.799.839-1.168 1.288l-2.45 2.701H155.19c-4.73 0-8.6 3.863-8.6 8.585 0 4.721 3.87 8.586 8.6 8.586h18.276c4.73 0 8.6 3.863 8.6 8.584 0 4.722-3.87 8.585-8.6 8.585h-9.174l-.022.025c-.159-.008-.317-.025-.479-.025H122.94c-4.73 0-8.6 3.864-8.6 8.586s3.87 8.585 8.6 8.585h25.778l-47.938 52.85c-5.358 5.905-4.9 15.114 1.017 20.463a14.41 14.41 0 0 0 7.915 3.609c1.004.222 2.044.347 3.112.347h81.166v21.033c0 9.443 7.741 17.171 17.2 17.171 9.461 0 17.202-7.728 17.202-17.171v-21.033h9.137c7.983 0 14.514-6.52 14.514-14.488s-6.53-14.488-14.514-14.488h-9.137v-91.649c0-9.444-7.74-17.171-17.202-17.171zm-73.929 112h59.782v-65.76l-5.22 5.741-50 55-4.562 5.019zm73.968-109c7.812.02 14.163 6.369 14.163 14.171v94.649h12.137c6.35 0 11.514 5.154 11.514 11.488 0 6.335-5.165 11.488-11.514 11.488h-12.137v24.033c0 7.814-6.37 14.171-14.202 14.171-7.83 0-14.2-6.357-14.2-14.171v-24.033h-84.166c-.808 0-1.636-.093-2.465-.275l-.137-.032-.14-.017a11.392 11.392 0 0 1-6.273-2.858c-2.268-2.049-3.6-4.872-3.752-7.948-.153-3.073.893-6.012 2.945-8.273l47.937-52.85 4.55-5.016H122.94c-3.088 0-5.6-2.505-5.6-5.585s2.512-5.586 5.6-5.586h40.845c.04.001.082.005.122.008l.22.013 1.386.042.058-.063h7.895c6.396 0 11.6-5.197 11.6-11.585 0-6.388-5.204-11.584-11.6-11.584H155.19c-3.087 0-5.6-2.506-5.6-5.586 0-3.08 2.513-5.585 5.6-5.585h41.582l.893-.985 2.448-2.7.05-.055.045-.055c.313-.379.638-.738.97-1.068l.053-.054.053-.058.254-.28c2.167-2.389 5.282-3.761 8.547-3.759.19 0 .381.004.57.014l.096.005.097-.002c.112-.002.223-.008.38-.019z" fill="#A3B1BF"/><path d="M216.374 332.5a9 9 0 0 1 9 9v81a9 9 0 0 1-9 9 9 9 0 0 1-9-9v-81a9 9 0 0 1 9-9" fill="#A0C8FF" fill-rule="nonzero" opacity=".151"/><path d="M44.042 238c-17.397 0-31.5 14.103-31.5 31.5 0 17.396 14.103 31.5 31.5 31.5 17.396 0 31.5-14.104 31.5-31.5 0-17.397-14.104-31.5-31.5-31.5m0 3c15.715 0 28.5 12.784 28.5 28.5 0 15.715-12.785 28.5-28.5 28.5s-28.5-12.785-28.5-28.5c0-15.716 12.785-28.5 28.5-28.5" fill="#A3B1BF"/><path d="M44.041 292.5c12.703 0 23-10.298 23-23 0-12.703-10.297-23-23-23-12.702 0-23 10.297-23 23 0 12.702 10.298 23 23 23" fill="#A0C8FF" fill-rule="nonzero" opacity=".151"/><path d="m26.045 243.898-2.575 2.06c-10.393-3.247-18.092-3.49-20.132.042-3.59 6.217 11.724 21.78 34.203 34.757 22.481 12.98 43.614 18.46 47.204 12.243 2.095-3.63-2.25-10.444-10.703-18.07v-3.699c10.635 9.421 16.14 18.354 13.301 23.27-4.418 7.651-27.387 2.662-51.302-11.145C12.127 269.548-3.678 252.152.741 244.5c2.731-4.732 12.552-4.63 25.304-.602m620.715 74.601h-.033c-13.886.171-25.997 4.966-35.999 14.254-9.282 8.547-14.994 19.062-16.97 31.251-.116.503-.274 1.425-.435 3.508l-.008.119.001.119c.027 8.847 7.257 16.044 16.117 16.044 8.758 0 15.928-6.998 16.152-15.676l.051-.214c1.545-6.25 4.33-10.733 8.506-13.688l.031-.023.03-.022c4.116-3.068 8.544-4.563 13.536-4.569 7.09.153 12.69 2.206 17.118 6.275 4.371 4.182 6.572 9.41 6.731 15.982-.007 6.453-2.12 11.536-6.462 15.536l-.018.017-.019.018c-4.352 4.152-10.687 6.257-18.83 6.257l-9.066.007h-.034l-.033.001-.289.007c-7.68.273-13.664 6.467-13.664 14.104 0 7.783 6.342 14.115 14.137 14.115.123 0 .246-.005.37-.013l.022-.001h10.572l.532.004c7.192.096 12.961 2.163 17.613 6.32 4.747 4.317 7.145 10.348 7.31 18.42-.165 7.892-2.55 13.756-7.292 17.926l-.045.04-.045.042c-4.752 4.533-10.457 6.737-17.444 6.737-6.539 0-11.58-1.608-15.415-4.916-3.909-3.291-6.969-7.663-9.12-13.016-.282-.734-.555-1.818-.845-2.966-1.363-5.403-3.643-14.448-15.207-14.542-8.985 0-16.274 7.278-16.274 16.225 0 .933.085 1.866.261 2.849l.001.011.017.096c.042.232.092.462.146.692 3.044 14.901 9.67 26.504 19.692 34.486 10.153 8.085 21.963 12.185 35.108 12.185 16.922-.17 30.98-5.406 41.816-15.565a51.269 51.269 0 0 0 3.463-3.435h33.496c4.962 0 9-4.038 9-9 0-4.963-4.038-9-9-9h-27.999c-4.964 0-9-4.038-9-9 0-4.963 4.036-9 9-9h50c4.961 0 9-4.038 9-9 0-4.963-4.039-9-9-9h-44.724a53.318 53.318 0 0 0-2.49-6.021l-.013-.027-.014-.026c-3.094-6.046-7.829-11.404-14.107-15.973 6.072-4.566 10.485-9.724 13.143-15.374l.036-.076.031-.079a54.754 54.754 0 0 0 3.997-20.579c-.178-14.054-5.289-26.379-15.19-36.672-10.373-10.57-24.47-16.005-41.92-16.174h-.033zm.003 3.001c16.703.161 29.965 5.245 39.786 15.253 9.4 9.77 14.185 21.301 14.353 34.592a51.554 51.554 0 0 1-3.778 19.457c-2.939 6.246-8.183 11.811-15.738 16.694 7.723 4.805 13.303 10.569 16.746 17.296a49.182 49.182 0 0 1 2.993 7.708h46.917a6 6 0 0 1 0 12h-50c-6.628 0-12 5.372-12 12 0 6.627 5.372 12 12 12h28a6 6 0 0 1 0 12h-34.84a47.607 47.607 0 0 1-4.15 4.226c-10.324 9.69-23.586 14.611-39.785 14.774-12.508 0-23.587-3.845-33.238-11.531-9.517-7.578-15.723-18.508-18.63-32.781a13.412 13.412 0 0 1-.126-.589l-.003-.02a13.155 13.155 0 0 1-.228-2.398c0-7.304 5.932-13.225 13.25-13.225 11.45.093 11.408 10.73 13.292 15.626 2.35 5.845 5.665 10.567 9.945 14.17 4.364 3.765 10.154 5.644 17.374 5.644 7.722 0 14.227-2.521 19.515-7.566 5.372-4.724 8.142-11.449 8.31-20.179-.168-8.887-2.938-15.772-8.31-20.657-5.167-4.617-11.699-6.978-19.592-7.083l-.552-.004h-10.64c-.109.003-.216.014-.324.014-6.15 0-11.137-4.977-11.137-11.115 0-6.005 4.77-10.893 10.732-11.105l.29-.007 9.064-.007c8.981 0 15.947-2.361 20.9-7.086 4.953-4.564 7.43-10.49 7.43-17.777-.17-7.366-2.729-13.41-7.682-18.136-4.953-4.563-11.33-6.924-19.137-7.086-5.624 0-10.744 1.723-15.36 5.165-4.747 3.357-7.977 8.503-9.69 15.437l-.129.537c-.023 7.213-5.926 13.053-13.158 13.053-7.232 0-13.095-5.84-13.117-13.053.117-1.528.245-2.58.385-3.154 1.86-11.598 7.21-21.479 16.07-29.636 9.482-8.807 20.814-13.29 33.992-13.451z" fill="#A3B1BF"/><path d="M562.659 237.273c-18.204 0-15.158 12.54-20.142 19.73-5.15 7.428-14.654 11.572-1.261 17.948 13.392 6.377 11.385 19.205 1.517 22.221-9.87 3.018-10.11 12.576-6.77 18.194 2.225 3.746 2.606 10.056 1.142 18.933-37.97 95.592-94.806 143.385-170.517 143.385-4.484 0-9.036-.168-13.653-.503-74.244-6.102-88.495-18.626-42.753-37.57-48.38 18.311-38.737 33.107 28.93 44.388 10.705 1.784 20.9 2.59 30.594 2.59 82.218 0 127.823-58.025 132.687-69.179 5.437-12.469 11.582-19.956 20.035-27.606 8.452-7.649 7.585-16.593 12.108-22.645 4.523-6.053 8.798-4.774 14.31-16.737 5.514-11.96 10.988-1.6 14.298-16.132 1.078-4.728 2.975-5.83 5.003-5.83 1.78 0 3.659.847 5.174.847 2.069 0 3.46-1.583 2.989-9.067-1.21-19.22-1.372-25.818 7.578-35.583 8.95-9.766.936-46.456-19.375-47.34a44.494 44.494 0 0 0-1.894-.044m-59.211 169.215c-1.62 2.794-3.177 5.872-4.682 9.323-1.436 3.294-12.354 20.251-35.992 37.115-18.967 13.532-50.503 29.662-93.028 29.662-9.771 0-19.843-.852-29.937-2.535l-1.015-.17c4.309.45 8.93.88 13.89 1.287 4.694.341 9.384.514 13.944.514 38.646 0 72.959-12.376 101.986-36.784 12.472-10.487 24.1-23.318 34.834-38.412m59.21-165.215c.553 0 1.13.013 1.72.04 9.089.395 14.143 10.27 15.893 14.495 4.526 10.926 4.006 22.548.708 26.147-10.337 11.277-9.8 19.82-8.621 38.536.152 2.401.074 3.818-.034 4.626-.142-.032-.281-.067-.408-.097-1.037-.25-2.328-.56-3.727-.56-3.133 0-7.22 1.55-8.904 8.941-1.238 5.432-2.162 5.691-4.004 6.21-3.381.95-6.94 2.44-10.027 9.138-3.07 6.66-5.417 8.44-8.137 10.501-1.756 1.331-3.746 2.838-5.745 5.514-2.171 2.905-3.27 6.2-4.331 9.388-1.501 4.505-2.92 8.76-7.258 12.686-3.722 3.37-7.133 6.795-10.298 10.777 11.62-17.842 22.105-38.494 31.378-61.838l.158-.4.07-.426c1.638-9.929 1.098-17.003-1.65-21.628-1.44-2.422-1.78-5.513-.866-7.873.817-2.115 2.624-3.614 5.367-4.452 6.099-1.865 10.32-6.886 10.759-12.792.504-6.826-3.88-13.13-11.726-16.867-3.445-1.64-4.343-2.717-4.54-3.014.256-.837 1.984-2.715 3.145-3.978 1.355-1.473 2.892-3.144 4.225-5.066 1.73-2.496 2.605-5.259 3.452-7.93 1.923-6.068 3.192-10.078 13.402-10.078" fill="#A0C8FF" fill-rule="nonzero" opacity=".151"/><path d="M282.687 457.166c-1.017 1.534-1.308 2.856-1.198 3.965.537 5.443 11.019 13.572 57.91 21.389 53.145 8.86 92.754-7.109 116.62-22.065 27.306-17.11 42.568-37.978 45.039-43.644 5.77-13.234 12.329-20.812 20.402-28.119 4.827-4.367 6.415-9.136 7.953-13.75 1.045-3.136 2.032-6.098 3.96-8.681 1.79-2.393 3.55-3.728 5.254-5.019 2.737-2.074 5.567-4.22 8.898-11.447 2.862-6.211 5.95-7.079 8.433-7.777 2.436-.685 4.196-1.18 5.763-8.06.717-3.146 1.875-5.177 3.54-6.21 2.046-1.267 4.278-.73 6.07-.297 1.113.269 2.259.544 2.693.181.368-.309 1.185-1.639.829-7.298-1.165-18.527-1.647-26.196 7.969-36.69 4.437-4.842 4.329-17.758-.241-28.792-4.088-9.869-10.683-15.714-18.093-16.037-13.672-.6-15.511 5.139-17.615 11.781-.79 2.495-1.608 5.075-3.124 7.261-1.234 1.78-2.708 3.383-4.01 4.798-2.206 2.399-4.112 4.471-3.792 6.12.282 1.453 2.285 3.076 5.953 4.822 6.88 3.276 10.732 8.669 10.307 14.425-.367 4.945-3.813 9.001-8.996 10.585-3.465 1.06-5.875 3.115-6.968 5.942-1.18 3.049-.767 6.994 1.049 10.051 2.434 4.098 2.87 10.622 1.333 19.944l-.085.309c-20.117 50.642-45.916 88.422-76.682 112.292-30.853 23.936-67.528 34.542-108.991 31.533-61.036-5.017-69.311-13.368-70.226-19.214a6.603 6.603 0 0 1 .046-2.298m86.834 30.898c-9.65 0-19.86-.793-30.616-2.586-40.251-6.709-59.445-14.353-60.402-24.052-.73-7.404 9.47-14.998 31.187-23.218l1.105 2.789c-22.886 9.479-25.606 15.348-25.19 18.003 1.537 9.818 42.946 14.669 67.493 16.687 40.699 2.955 76.672-7.444 106.92-30.913 30.309-23.513 55.767-60.814 75.673-110.878 1.368-8.392 1.039-14.369-.98-17.763-2.302-3.878-2.788-8.732-1.266-12.666 1.002-2.592 3.358-6.037 8.889-7.729 3.972-1.214 6.608-4.256 6.88-7.937.332-4.475-2.884-8.773-8.603-11.495-4.705-2.241-7.123-4.452-7.61-6.96-.607-3.137 1.888-5.85 4.53-8.722 1.296-1.409 2.636-2.866 3.753-4.476 1.257-1.815 1.972-4.07 2.729-6.459 2.163-6.829 4.595-14.58 20.606-13.872 8.624.376 16.18 6.896 20.733 17.887 5.059 12.211 4.918 26.252-.32 31.967-8.38 9.145-8.402 15.13-7.185 34.475.343 5.455-.223 8.38-1.894 9.784-1.593 1.338-3.577.858-5.326.437-1.443-.347-2.804-.675-3.785-.069-.934.58-1.674 2.035-2.195 4.326-1.823 8.001-4.415 9.309-7.877 10.282-2.18.613-4.237 1.192-6.521 6.145-3.645 7.909-6.92 10.391-9.81 12.582-1.607 1.219-3.127 2.37-4.662 4.424-1.64 2.194-2.552 4.933-3.52 7.834-1.581 4.748-3.374 10.13-8.783 15.026-7.786 7.047-14.11 14.351-19.666 27.093-3.015 6.914-18.832 27.84-46.195 44.987-19.472 12.202-49.227 25.067-88.092 25.067" fill="#A3B1BF"/><path d="M572.997 136.11c-.079 0-.158-.004-.236-.004-13.418 0-24.634 3.76-31.758 10.182 4.152-8.255 16.603-13.603 32.457-13.604.185 0 .373.008.558.01.62-2.048 1.236-4.024 1.85-5.969a77.998 77.998 0 0 0-2.41-.04c-20.162 0-36.385 8.154-39.44 21.393-1.527 6.614.456 13.528 5.083 19.893-.53-2.535-.538-5.083.04-7.58 2.534-10.978 15.63-17.868 32.101-18.266a683.005 683.005 0 0 1 1.755-6.016m32.571-2.833c-.301 2.002-.616 4.04-.956 6.137 14.995 6.737 25.183 17.485 25.253 27.433-3.828-9.508-13.13-18.217-25.83-23.957-.337 2.012-.69 4.056-1.061 6.151 15.542 7.522 24.998 19.9 22.377 31.254-.577 2.498-1.701 4.785-3.287 6.831 6.949-3.693 11.762-9.038 13.289-15.653 3.259-14.118-9.482-29.596-29.785-38.196" fill="#A0C8FF" fill-rule="nonzero" opacity=".151"/><path d="M605.568 133.276a505.95 505.95 0 0 1-.466 3.046c7.194 3.125 13.486 7.208 18.362 11.986 7.446 7.295 10.629 15.281 8.965 22.49-.611 2.651-1.865 5.117-3.711 7.343.62-7.27-2.711-14.833-9.578-21.58-4.238-4.167-9.575-7.758-15.631-10.592a577.82 577.82 0 0 1-.535 3.071c15.542 7.522 24.998 19.9 22.377 31.254-.577 2.498-1.701 4.785-3.287 6.831 6.949-3.693 11.762-9.038 13.289-15.653 3.259-14.118-9.482-29.596-29.785-38.196m-33.455 5.846c-17.54.167-30.88 7.04-35.056 17.855-.682-2.808-.727-5.574-.116-8.224 2.633-11.404 17.309-19.068 36.52-19.069.49 0 .983.013 1.475.023.312-1.008.622-1.999.932-2.98a75.042 75.042 0 0 0-2.41-.043c-20.161.001-36.384 8.156-39.44 21.394-1.526 6.614.456 13.528 5.083 19.894-.53-2.536-.537-5.083.039-7.58 2.536-10.979 15.632-17.869 32.103-18.267.29-1.015.58-2.01.87-3.003" fill="#A3B1BF"/><path d="M603.927 72.501c-11.018 4.707-23.637 34.176-37.857 88.405 4.57 5.396 9.615 8.732 15.136 10.006a23.26 23.26 0 0 0 5.26.592c4.018 0 8.261-.983 12.732-2.949 11.124-55.05 12.7-87.068 4.73-96.054M601.75 82.1c.881 3.945 1.494 10.385.98 20.859-.74 15.014-3.69 35.593-8.773 61.203-2.64.891-5.15 1.342-7.492 1.342-1.337 0-2.652-.148-3.91-.439-3.49-.805-6.733-2.711-9.848-5.8 6.698-25.188 13.09-44.951 19.007-58.77 4.14-9.665 7.517-15.212 10.036-18.395" fill="#A0C8FF" fill-rule="nonzero" opacity=".151"/><path d="M603.927 72.501c-11.018 4.707-23.637 34.176-37.857 88.405 4.57 5.396 9.615 8.732 15.136 10.006a23.26 23.26 0 0 0 5.26.592c4.018 0 8.261-.983 12.732-2.949 11.124-55.05 12.7-87.068 4.73-96.054m-.907 4.024c1.88 3.734 3.457 11.304 2.705 26.581-.762 15.483-3.842 36.771-9.154 63.293-3.55 1.397-6.945 2.105-10.106 2.105-1.563 0-3.105-.174-4.585-.515-4.455-1.029-8.655-3.673-12.504-7.866 6.893-26.107 13.478-46.559 19.58-60.81 6.027-14.072 10.751-20.221 14.064-22.788" fill="#A3B1BF"/><path d="M579.026 182.782c2.152.496 5.86-7.607 8.284-18.1 2.422-10.495 2.642-19.404.488-19.9-2.152-.498-5.861 7.606-8.283 18.1-2.423 10.493-2.641 19.403-.49 19.9m-29.749 20.581c1.262.562 4.469-3.892 7.165-9.946 2.695-6.054 3.858-11.418 2.597-11.98-1.262-.56-4.47 3.892-7.165 9.947-2.696 6.054-3.86 11.417-2.597 11.98m19.818 24.483c1.262.562 4.561-4.097 7.368-10.403 2.808-6.307 4.062-11.874 2.801-12.436-1.262-.561-4.56 4.096-7.368 10.402-2.808 6.307-4.062 11.875-2.8 12.437m24.738-18.087c1.313.428 3.97-4.123 5.932-10.164 1.963-6.04 2.49-11.282 1.175-11.71-1.312-.426-3.967 4.125-5.93 10.165-1.963 6.04-2.489 11.283-1.177 11.71" fill="#A3B1BF"/><path d="M591.229 123.724a7 7 0 0 0-6.814 5.427 6.998 6.998 0 0 0 5.246 8.394c.53.123 1.059.182 1.58.182a7 7 0 1 0-.013-14.003m0 6a1.002 1.002 0 0 1 .013 2.003c-.075 0-.153-.01-.231-.027a.99.99 0 0 1-.623-.445.978.978 0 0 1-.126-.755c.117-.51.576-.776.968-.776" fill="#A0C8FF" fill-rule="nonzero" opacity=".151"/><path d="M591.229 123.724a7 7 0 0 0-6.814 5.427 6.998 6.998 0 0 0 5.246 8.394c.53.123 1.059.182 1.58.182a7 7 0 1 0-.013-14.003m0 3a4.003 4.003 0 0 1 3.904 4.9 3.98 3.98 0 0 1-4.797 2.998 3.973 3.973 0 0 1-2.492-1.777 3.975 3.975 0 0 1-.506-3.02 3.98 3.98 0 0 1 3.892-3.101m4.202-18.957a4.003 4.003 0 0 0-3.894 3.102 3.999 3.999 0 0 0 3.902 4.9 4 4 0 0 0-.008-8.002m0 3c.076 0 .152.01.229.027a.99.99 0 0 1 .623.445.995.995 0 0 1 .127.755 1.01 1.01 0 0 1-1.2.749.997.997 0 0 1-.623-.445.996.996 0 0 1-.127-.755c.117-.51.578-.776.971-.776m13.025-57.689a1.5 1.5 0 0 1 1.125 1.8l-4.499 19.486a1.5 1.5 0 1 1-2.924-.675l4.5-19.487a1.5 1.5 0 0 1 1.798-1.124" fill="#A3B1BF"/><path d="M608.269 56.113c2.152.497 4.854-3.244 6.035-8.356 1.18-5.113.392-9.66-1.761-10.157-2.152-.497-4.854 3.244-6.035 8.357-1.18 5.112-.391 9.66 1.76 10.156" fill="#A0C8FF" fill-rule="nonzero" opacity=".151"/><path d="M608.607 54.652c.684.166 3.066-2.17 4.235-7.233 1.169-5.063.07-8.194-.636-8.357-.245-.057-.964.294-1.828 1.491-1.011 1.4-1.888 3.493-2.407 5.741-.52 2.25-.648 4.515-.353 6.216.25 1.453.74 2.085.989 2.142m.085 3.011c-.251 0-.504-.029-.76-.087h-.001c-.965-.224-2.674-1.112-3.27-4.554-.366-2.11-.228-4.74.386-7.403.616-2.662 1.644-5.085 2.899-6.82 2.044-2.834 3.965-2.88 4.935-2.66 3.518.812 4.114 6.63 2.885 11.954-1.14 4.94-3.878 9.57-7.074 9.57m-34.649 221.084a1.501 1.501 0 0 1-1.471-1.805c1.922-9.254-.268-17.599-6.695-25.514a1.5 1.5 0 1 1 2.328-1.89c6.934 8.537 9.392 17.963 7.305 28.014a1.502 1.502 0 0 1-1.467 1.195m-218.656 44.59a1.502 1.502 0 0 1-1.178-2.428c5.315-6.758 4.623-12.781-2.176-18.955a1.5 1.5 0 1 1 2.017-2.221c7.873 7.15 8.744 15.114 2.517 23.032a1.498 1.498 0 0 1-1.18.572" fill="#A3B1BF"/><path d="M684.663 402.845a7.964 7.964 0 0 1-5.206-1.93 7.997 7.997 0 0 1-.86-11.28c6.69-7.796 8.214-16.654 4.793-27.878-3.413-11.196-11.188-18.58-23.769-22.571a7.999 7.999 0 0 1-5.204-10.045 7.998 7.998 0 0 1 10.044-5.205c17.723 5.624 29.241 16.779 34.232 33.156 5.03 16.498 2.354 30.953-7.956 42.963a7.98 7.98 0 0 1-6.073 2.79" fill="#A0C8FF" fill-rule="nonzero" opacity=".151"/><path d="M646.23 211.5a5 5 0 1 1-9.999 0 5 5 0 0 1 10 0M237.041 80.527a5 5 0 1 1-10 0 5 5 0 1 1 10 0m273.075 197.709a5 5 0 1 1-10.001 0 5 5 0 0 1 10 0M308.041 658.5a5 5 0 1 1-10 0 5 5 0 0 1 10 0M53.95 639c-5.522 0-10 4.477-10 10 0 5.522 4.478 10 10 10s10-4.478 10-10c0-5.523-4.478-10-10-10m0 3c3.86 0 7 3.14 7 7 0 3.859-3.14 7-7 7s-7-3.141-7-7c0-3.86 3.14-7 7-7" fill="#A3B1BF"/><path d="M53.95 642c3.86 0 7 3.14 7 7 0 3.859-3.14 7-7 7s-7-3.141-7-7c0-3.86 3.14-7 7-7" fill="#A0C8FF" fill-rule="nonzero" opacity=".151"/><path d="M247.041 27.557c-5.522 0-10 4.477-10 10 0 5.522 4.478 10 10 10 5.523 0 10-4.478 10-10 0-5.523-4.477-10-10-10m0 3c3.86 0 7 3.14 7 7 0 3.859-3.14 7-7 7-3.859 0-7-3.141-7-7 0-3.86 3.141-7 7-7" fill="#A3B1BF"/><path d="M247.041 30.557c3.86 0 7 3.14 7 7 0 3.859-3.14 7-7 7-3.859 0-7-3.141-7-7 0-3.86 3.141-7 7-7" fill="#A0C8FF" fill-rule="nonzero" opacity=".151"/><path d="M286.041 553.5c-5.522 0-10 4.477-10 10 0 5.522 4.478 10 10 10 5.523 0 10-4.478 10-10 0-5.523-4.477-10-10-10m0 3c3.86 0 7 3.14 7 7 0 3.859-3.14 7-7 7-3.859 0-7-3.141-7-7 0-3.86 3.141-7 7-7" fill="#A3B1BF"/><path d="M286.041 556.5c3.86 0 7 3.14 7 7 0 3.859-3.14 7-7 7-3.859 0-7-3.141-7-7 0-3.86 3.141-7 7-7" fill="#A0C8FF" fill-rule="nonzero" opacity=".151"/><path d="M742.541 371.5a5 5 0 1 1-10 0 5 5 0 0 1 10 0" fill="#A3B1BF"/><text font-family="PingFangSC-Semibold, PingFang SC" font-size="70" font-weight="500" fill="#515A6E" transform="translate(275 630)">
                        <tspan x=".005" y="74">Whoops</tspan>
                    </text><text font-family="PingFang-SC-Medium, PingFang SC" font-size="30" font-weight="400" fill="#515A6E" transform="translate(275 630)">
                        <tspan x="-100" y="144">It looks like you don&apos;t have permission</tspan>
                    </text></g></svg>