<svg width="891" height="840" xmlns="http://www.w3.org/2000/svg"><g fill="none" fill-rule="evenodd"><path d="m440.558 254.064-.044-.001a158.04 158.04 0 0 0-4.415-.063c-.528.008-1.02.001-1.524.006h-.016a1.5 1.5 0 0 1-.016-3 157.867 157.867 0 0 1 6.057.058 1.5 1.5 0 0 1-.042 3m-17.982.498a1.502 1.502 0 0 1-1.494-1.375 1.502 1.502 0 0 1 1.37-1.62c1.993-.168 4.026-.3 6.04-.394a1.5 1.5 0 1 1 .138 2.996c-1.976.093-3.97.222-5.926.387a1.85 1.85 0 0 1-.128.005m29.95.292a1.65 1.65 0 0 1-.156-.008 159.099 159.099 0 0 0-5.92-.502 1.5 1.5 0 0 1-1.398-1.596 1.51 1.51 0 0 1 1.597-1.399c2.02.135 4.05.307 6.03.513a1.5 1.5 0 0 1-.152 2.993m-41.855 1.165a1.5 1.5 0 0 1-.237-2.98c1.977-.32 3.995-.605 5.996-.85a1.511 1.511 0 0 1 1.67 1.308 1.5 1.5 0 0 1-1.307 1.67c-1.963.24-3.941.52-5.881.833a1.524 1.524 0 0 1-.241.019m53.729.526c-.09 0-.18-.007-.27-.024a156.417 156.417 0 0 0-5.865-.949 1.5 1.5 0 0 1 .424-2.97c1.995.285 4.006.61 5.976.968a1.497 1.497 0 0 1 1.208 1.743 1.497 1.497 0 0 1-1.473 1.232m-65.487 1.832a1.5 1.5 0 0 1-.35-2.959c1.95-.469 3.94-.907 5.913-1.303a1.505 1.505 0 0 1 1.766 1.177 1.5 1.5 0 0 1-1.176 1.765c-1.936.388-3.888.818-5.801 1.277a1.466 1.466 0 0 1-.352.043m77.197.757c-.126 0-.253-.014-.381-.048-1.918-.502-3.86-.97-5.775-1.394a1.5 1.5 0 0 1-1.14-1.788 1.506 1.506 0 0 1 1.789-1.142c1.95.433 3.93.91 5.886 1.421a1.5 1.5 0 0 1-.38 2.952m-88.741 2.492a1.499 1.499 0 0 1-.462-2.927 156.884 156.884 0 0 1 5.797-1.752 1.5 1.5 0 1 1 .812 2.888 159.972 159.972 0 0 0-5.686 1.717 1.49 1.49 0 0 1-.461.074m100.218.988a1.56 1.56 0 0 1-.49-.082 153.242 153.242 0 0 0-5.65-1.832 1.5 1.5 0 1 1 .869-2.87 159.35 159.35 0 0 1 5.762 1.865 1.5 1.5 0 0 1-.491 2.918m-111.51 3.146a1.499 1.499 0 0 1-.571-2.887 160.271 160.271 0 0 1 5.659-2.197 1.5 1.5 0 0 1 1.032 2.817 154.68 154.68 0 0 0-5.552 2.154 1.504 1.504 0 0 1-.568.113m122.673 1.192c-.2 0-.401-.04-.595-.125a155.861 155.861 0 0 0-5.48-2.25 1.5 1.5 0 1 1 1.088-2.797 159.11 159.11 0 0 1 5.584 2.296 1.5 1.5 0 0 1-.597 2.876m-133.611 3.793a1.499 1.499 0 0 1-.675-2.84c1.79-.901 3.63-1.782 5.472-2.622a1.5 1.5 0 1 1 1.244 2.73 155.997 155.997 0 0 0-5.368 2.571c-.216.11-.446.16-.673.16m144.403 1.38a1.5 1.5 0 0 1-.698-.174 154.152 154.152 0 0 0-5.296-2.662 1.5 1.5 0 1 1 1.295-2.706c1.802.863 3.618 1.776 5.4 2.714a1.502 1.502 0 0 1-.701 2.828m-154.922 4.42a1.503 1.503 0 0 1-1.287-.726 1.503 1.503 0 0 1 .51-2.06 162.004 162.004 0 0 1 5.254-3.027 1.5 1.5 0 0 1 1.449 2.627 154.16 154.16 0 0 0-5.153 2.971c-.242.145-.51.214-.773.214m165.295 1.56a1.5 1.5 0 0 1-.796-.23 161.273 161.273 0 0 0-5.083-3.06 1.5 1.5 0 1 1 1.5-2.599 164.256 164.256 0 0 1 5.178 3.118 1.5 1.5 0 0 1-.8 2.77m-175.34 5.023a1.5 1.5 0 0 1-.87-2.724 162.045 162.045 0 0 1 5.005-3.416 1.501 1.501 0 0 1 1.645 2.51 155.409 155.409 0 0 0-4.912 3.351 1.492 1.492 0 0 1-.868.279m185.239 1.728c-.31 0-.622-.096-.891-.293a157.054 157.054 0 0 0-4.84-3.437 1.502 1.502 0 0 1 1.693-2.478 162.581 162.581 0 0 1 4.93 3.502 1.5 1.5 0 0 1-.892 2.707m-194.751 5.588c-.431 0-.858-.185-1.155-.543a1.498 1.498 0 0 1 .196-2.111 166.56 166.56 0 0 1 4.729-3.784 1.501 1.501 0 0 1 2.104.274 1.498 1.498 0 0 1-.274 2.103c-1.557 1.2-3.12 2.45-4.643 3.715a1.488 1.488 0 0 1-.957.346m204.113 1.894a1.5 1.5 0 0 1-.98-.363 155.784 155.784 0 0 0-4.567-3.795 1.5 1.5 0 0 1 1.873-2.344 161.56 161.56 0 0 1 4.656 3.868 1.5 1.5 0 0 1-.982 2.635m-213.045 6.118a1.5 1.5 0 0 1-1.043-2.578 162.812 162.812 0 0 1 4.43-4.127 1.5 1.5 0 1 1 2.004 2.232 158.541 158.541 0 0 0-4.348 4.051 1.498 1.498 0 0 1-1.043.422m221.824 2.053c-.385 0-.77-.147-1.063-.441a158.84 158.84 0 0 0-4.271-4.13 1.5 1.5 0 1 1 2.044-2.196 161.873 161.873 0 0 1 4.352 4.209 1.5 1.5 0 0 1-1.062 2.558m-230.121 6.606c-.354 0-.71-.125-.995-.38a1.498 1.498 0 0 1-.125-2.116 161.822 161.822 0 0 1 4.105-4.45 1.5 1.5 0 0 1 2.166 2.077 158.862 158.862 0 0 0-4.03 4.365 1.493 1.493 0 0 1-1.121.503m-7.617 9.257a1.5 1.5 0 0 1-1.192-2.409 159.188 159.188 0 0 1 3.756-4.744 1.5 1.5 0 0 1 2.316 1.907 154.796 154.796 0 0 0-3.685 4.655 1.498 1.498 0 0 1-1.195.591m-6.892 9.8a1.5 1.5 0 0 1-1.258-2.315 156.725 156.725 0 0 1 3.385-5.014 1.5 1.5 0 0 1 2.453 1.727 154.635 154.635 0 0 0-3.321 4.918 1.497 1.497 0 0 1-1.26.684m-6.13 10.288a1.5 1.5 0 0 1-1.317-2.218 158.885 158.885 0 0 1 2.995-5.25 1.502 1.502 0 0 1 2.579 1.535 155.942 155.942 0 0 0-2.938 5.15 1.5 1.5 0 0 1-1.318.784m-5.325 10.716a1.499 1.499 0 0 1-1.367-2.117c.825-1.83 1.694-3.666 2.585-5.46a1.5 1.5 0 0 1 2.686 1.336 157.02 157.02 0 0 0-2.536 5.357 1.5 1.5 0 0 1-1.368.884m-4.5 11.101a1.5 1.5 0 0 1-1.412-2.01 159.6 159.6 0 0 1 2.169-5.655 1.499 1.499 0 1 1 2.78 1.127 152.43 152.43 0 0 0-2.125 5.548c-.221.61-.797.99-1.411.99m-3.642 11.426a1.498 1.498 0 0 1-1.446-1.9A154.992 154.992 0 0 1 284.01 362a1.5 1.5 0 0 1 2.858.912 152.198 152.198 0 0 0-1.696 5.69 1.5 1.5 0 0 1-1.444 1.101m-2.76 11.673a1.498 1.498 0 0 1-1.473-1.79c.386-1.97.817-3.96 1.28-5.918a1.5 1.5 0 1 1 2.92.692 154.195 154.195 0 0 0-1.256 5.805 1.501 1.501 0 0 1-1.47 1.21m-1.862 11.849a1.497 1.497 0 0 1-1.491-1.675c.232-1.978.509-3.997.825-6a1.496 1.496 0 0 1 1.715-1.248 1.5 1.5 0 0 1 1.248 1.714 155.566 155.566 0 0 0-.81 5.883 1.498 1.498 0 0 1-1.487 1.326m-.96 11.954h-.064a1.5 1.5 0 0 1-1.436-1.562c.084-1.99.208-4.024.37-6.043.065-.827.799-1.43 1.615-1.375a1.5 1.5 0 0 1 1.375 1.615 154.588 154.588 0 0 0-.362 5.928 1.5 1.5 0 0 1-1.498 1.438m-.065 11.992a1.5 1.5 0 0 1-1.498-1.452c-.055-1.715-.084-3.47-.084-5.218l.002-.832a1.5 1.5 0 0 1 1.5-1.497h.005a1.5 1.5 0 0 1 1.495 1.505l-.002.825c0 1.715.028 3.438.082 5.12a1.497 1.497 0 0 1-1.45 1.548h-.05m315.706 3.103-.078-.001a1.5 1.5 0 0 1-1.421-1.576c.102-1.96.167-3.959.195-5.94a1.499 1.499 0 0 1 1.5-1.478h.02a1.5 1.5 0 0 1 1.48 1.522 166.058 166.058 0 0 1-.198 6.05 1.501 1.501 0 0 1-1.498 1.423m-314.871 8.86a1.5 1.5 0 0 1-1.49-1.339c-.214-1.99-.394-4.017-.534-6.03a1.499 1.499 0 0 1 1.392-1.6c.824-.075 1.544.565 1.6 1.392.138 1.974.315 3.964.526 5.916a1.502 1.502 0 0 1-1.494 1.661m305.214 37.954a1.5 1.5 0 0 1-1.405-2.023 155.335 155.335 0 0 0 1.964-5.605 1.5 1.5 0 1 1 2.849.937 155.662 155.662 0 0 1-2.002 5.716 1.5 1.5 0 0 1-1.406.976m-4.594 11.043a1.502 1.502 0 0 1-1.362-2.128 158.178 158.178 0 0 0 2.38-5.427 1.5 1.5 0 1 1 2.77 1.153 159.71 159.71 0 0 1-2.425 5.53 1.5 1.5 0 0 1-1.363.872m-283.072 8.055a1.5 1.5 0 0 1-1.325-.795 159.197 159.197 0 0 1-2.75-5.405 1.5 1.5 0 0 1 2.7-1.31 156.035 156.035 0 0 0 2.698 5.305 1.499 1.499 0 0 1-1.323 2.205m277.647 2.613a1.501 1.501 0 0 1-1.31-2.23 154.815 154.815 0 0 0 2.788-5.233 1.5 1.5 0 1 1 2.674 1.36c-.91 1.79-1.866 3.584-2.841 5.334a1.498 1.498 0 0 1-1.311.77m-271.6 7.767c-.496 0-.981-.246-1.267-.696a159.248 159.248 0 0 1-3.151-5.18 1.5 1.5 0 1 1 2.592-1.51 157.868 157.868 0 0 0 3.092 5.082 1.502 1.502 0 0 1-1.266 2.303m265.378 2.466a1.499 1.499 0 0 1-1.25-2.327 157.304 157.304 0 0 0 3.177-5.01 1.5 1.5 0 0 1 2.564 1.558 160.45 160.45 0 0 1-3.24 5.106 1.499 1.499 0 0 1-1.251.673m-6.982 9.738a1.501 1.501 0 0 1-1.185-2.42 157.553 157.553 0 0 0 3.55-4.757 1.498 1.498 0 0 1 2.093-.344c.673.481.828 1.42.344 2.091a160.622 160.622 0 0 1-3.616 4.85c-.296.38-.74.58-1.186.58m-7.701 9.188a1.5 1.5 0 0 1-1.112-2.507 159.989 159.989 0 0 0 3.9-4.478 1.5 1.5 0 1 1 2.299 1.928 159.951 159.951 0 0 1-3.974 4.563 1.494 1.494 0 0 1-1.113.494m-8.374 8.585a1.5 1.5 0 0 1-1.033-2.587 161.291 161.291 0 0 0 4.229-4.175 1.5 1.5 0 1 1 2.146 2.096 162.614 162.614 0 0 1-4.308 4.252c-.29.276-.663.413-1.034.413m-9.002 7.931a1.5 1.5 0 0 1-.95-2.661 156.776 156.776 0 0 0 4.534-3.846 1.501 1.501 0 0 1 1.983 2.251 164.076 164.076 0 0 1-4.618 3.918c-.28.228-.616.338-.95.338m-192.464 5.538c-.306 0-.614-.092-.88-.285a160.927 160.927 0 0 1-4.83-3.643 1.501 1.501 0 0 1 1.85-2.361 156.982 156.982 0 0 0 4.74 3.573 1.5 1.5 0 0 1-.88 2.716m182.886 1.696a1.499 1.499 0 0 1-.86-2.731 159.995 159.995 0 0 0 4.814-3.493 1.5 1.5 0 1 1 1.807 2.394 163.002 163.002 0 0 1-4.903 3.56c-.262.183-.561.27-.858.27m-172.93 4.962a1.5 1.5 0 0 1-.785-.222 159.561 159.561 0 0 1-5.088-3.265 1.5 1.5 0 0 1 1.668-2.495 153.18 153.18 0 0 0 4.993 3.204 1.5 1.5 0 0 1-.787 2.778m162.824 1.525a1.499 1.499 0 0 1-.763-2.791 159.02 159.02 0 0 0 5.065-3.119 1.499 1.499 0 1 1 1.621 2.523 159.294 159.294 0 0 1-5.162 3.18c-.24.14-.501.207-.761.207m-152.396 4.359c-.231 0-.465-.053-.685-.168a158.443 158.443 0 0 1-5.321-2.868 1.5 1.5 0 0 1 1.475-2.612 156.04 156.04 0 0 0 5.219 2.814 1.498 1.498 0 0 1 .646 2.02c-.265.516-.79.813-1.334.813m141.825 1.345a1.5 1.5 0 0 1-.663-2.846 154.957 154.957 0 0 0 5.29-2.724 1.5 1.5 0 1 1 1.425 2.64 160.993 160.993 0 0 1-5.392 2.778 1.503 1.503 0 0 1-.66.152m-130.987 3.726a1.47 1.47 0 0 1-.582-.12 156.731 156.731 0 0 1-5.518-2.453 1.499 1.499 0 0 1-.723-1.995 1.495 1.495 0 0 1 1.994-.721c1.782.832 3.604 1.643 5.413 2.407a1.5 1.5 0 0 1-.584 2.881m120 1.16a1.5 1.5 0 0 1-.555-2.893 157.614 157.614 0 0 0 5.486-2.316 1.5 1.5 0 0 1 1.219 2.742 161.739 161.739 0 0 1-5.592 2.359 1.479 1.479 0 0 1-.557.107m-108.796 3.076c-.157 0-.318-.024-.476-.077a161.822 161.822 0 0 1-5.704-2.033 1.5 1.5 0 0 1 1.06-2.807c1.838.696 3.72 1.367 5.597 1.994a1.502 1.502 0 0 1-.477 2.923m97.464.956a1.5 1.5 0 0 1-.448-2.933 157.27 157.27 0 0 0 5.652-1.887 1.494 1.494 0 0 1 1.915.912c.278.78-.13 1.638-.911 1.914a158.704 158.704 0 0 1-5.76 1.926 1.481 1.481 0 0 1-.448.067m-85.954 2.414c-.121 0-.244-.014-.367-.044a158.937 158.937 0 0 1-5.843-1.591 1.498 1.498 0 0 1-1.017-1.861 1.505 1.505 0 0 1 1.86-1.019c1.892.554 3.82 1.08 5.732 1.56a1.5 1.5 0 0 1-.365 2.956m74.378.729a1.501 1.501 0 0 1-.337-2.963c1.914-.441 3.853-.928 5.762-1.447a1.5 1.5 0 0 1 .785 2.897 167.348 167.348 0 0 1-5.871 1.475 1.587 1.587 0 0 1-.34.038m-62.641 1.753a1.48 1.48 0 0 1-.255-.021c-1.963-.337-3.964-.72-5.948-1.14a1.5 1.5 0 0 1-1.157-1.778 1.505 1.505 0 0 1 1.778-1.157c1.946.412 3.909.788 5.834 1.118a1.5 1.5 0 0 1-.252 2.978m50.86.497a1.502 1.502 0 0 1-.223-2.984c1.939-.294 3.909-.631 5.857-1.003a1.5 1.5 0 1 1 .56 2.948c-1.983.377-3.991.721-5.968 1.021a1.574 1.574 0 0 1-.226.018m-38.972 1.087c-.048 0-.095-.003-.142-.008a160.26 160.26 0 0 1-6.016-.683 1.5 1.5 0 0 1-1.29-1.684 1.508 1.508 0 0 1 1.684-1.292c1.965.263 3.95.489 5.903.673a1.5 1.5 0 0 1-.14 2.994m27.057.26a1.5 1.5 0 0 1-.111-2.996 161.06 161.06 0 0 0 5.915-.556 1.5 1.5 0 1 1 .336 2.98c-1.997.226-4.024.418-6.026.567a1.447 1.447 0 0 1-.114.005m-15.082.418h-.03a160.737 160.737 0 0 1-6.05-.23 1.501 1.501 0 0 1-1.413-1.582c.047-.827.767-1.472 1.583-1.413 1.968.111 3.966.188 5.937.225a1.5 1.5 0 0 1-.027 3M436 570a1.5 1.5 0 0 1 0-3c1.98 0 3.979-.038 5.94-.11.794-.05 1.524.615 1.556 1.443a1.5 1.5 0 0 1-1.444 1.555A166.5 166.5 0 0 1 436 570m-3.237-429.981a1.5 1.5 0 0 1-.018-3c2.006-.023 4.024-.024 6.032-.005a1.5 1.5 0 0 1-.015 3h-.015a282.488 282.488 0 0 0-5.966.005h-.018zm17.984.374-.081-.002c-1.981-.106-3.968-.19-5.961-.254a1.5 1.5 0 0 1-1.451-1.547c.026-.83.727-1.49 1.547-1.451 2.014.064 4.023.15 6.025.256a1.5 1.5 0 0 1-.08 2.998zm-29.975.026a1.5 1.5 0 0 1-.082-2.998c2.008-.111 4.035-.201 6.026-.266l.05-.001a1.5 1.5 0 0 1 .049 2.999 267.48 267.48 0 0 0-5.96.264l-.083.002zm41.94.876c-.05 0-.097-.002-.147-.006a270.535 270.535 0 0 0-5.945-.514 1.5 1.5 0 0 1-1.382-1.61c.06-.826.8-1.44 1.609-1.382 2.009.152 4.012.325 6.009.519a1.5 1.5 0 0 1-.144 2.993zm-53.903.047a1.5 1.5 0 0 1-.146-2.993c1.996-.197 3.999-.374 6.008-.528.813-.073 1.547.553 1.61 1.38a1.498 1.498 0 0 1-1.38 1.61c-1.987.154-3.968.329-5.943.524a1.472 1.472 0 0 1-.15.007zm65.814 1.379c-.07 0-.141-.005-.213-.014-1.958-.28-3.947-.541-5.916-.776a1.5 1.5 0 1 1 .358-2.978c1.989.238 4.002.502 5.98.783a1.501 1.501 0 0 1-.209 2.985zm-77.722.069a1.5 1.5 0 0 1-.212-2.985 268.49 268.49 0 0 1 5.98-.794 1.5 1.5 0 0 1 .362 2.979c-1.983.24-3.973.504-5.914.784a1.447 1.447 0 0 1-.216.016zm89.559 1.88a1.46 1.46 0 0 1-.278-.024 276.1 276.1 0 0 0-5.876-1.036 1.498 1.498 0 0 1-1.235-1.724 1.495 1.495 0 0 1 1.723-1.235c1.988.327 3.968.676 5.94 1.046.815.153 1.35.937 1.199 1.75a1.502 1.502 0 0 1-1.473 1.224zm-101.392.09a1.5 1.5 0 0 1-.277-2.973 276.92 276.92 0 0 1 5.939-1.057 1.501 1.501 0 0 1 .492 2.959c-1.965.327-3.922.676-5.874 1.045a1.577 1.577 0 0 1-.28.026zm113.13 2.385a1.55 1.55 0 0 1-.342-.04 268.124 268.124 0 0 0-5.824-1.294 1.5 1.5 0 1 1 .619-2.936c1.975.416 3.957.857 5.888 1.309a1.502 1.502 0 0 1 1.12 1.803 1.503 1.503 0 0 1-1.46 1.158zm-124.864.109a1.5 1.5 0 0 1-.343-2.96 266.81 266.81 0 0 1 5.886-1.32c.8-.174 1.607.346 1.78 1.156a1.502 1.502 0 0 1-1.157 1.78c-1.938.41-3.896.85-5.82 1.304-.116.028-.231.04-.346.04zm136.482 2.88a1.5 1.5 0 0 1-.407-.054 261.192 261.192 0 0 0-5.76-1.552 1.502 1.502 0 0 1 .748-2.906c1.928.496 3.887 1.024 5.824 1.569a1.5 1.5 0 0 1-.405 2.944zm-148.096.133a1.501 1.501 0 0 1-.408-2.943 270.326 270.326 0 0 1 5.822-1.58 1.501 1.501 0 0 1 .754 2.904c-1.93.5-3.865 1.025-5.758 1.562a1.53 1.53 0 0 1-.41.057zm159.568 3.373c-.155 0-.314-.024-.47-.075a270.163 270.163 0 0 0-5.685-1.807 1.5 1.5 0 0 1 .877-2.87 281.97 281.97 0 0 1 5.748 1.827 1.5 1.5 0 0 1-.47 2.925zm-171.056.159a1.501 1.501 0 0 1-.473-2.924 282.429 282.429 0 0 1 5.768-1.843 1.5 1.5 0 0 1 .882 2.867 268.521 268.521 0 0 0-5.705 1.824 1.498 1.498 0 0 1-.472.076zm182.363 3.853a1.49 1.49 0 0 1-.533-.098 274.917 274.917 0 0 0-5.6-2.058 1.5 1.5 0 0 1 1.004-2.827c1.9.675 3.807 1.375 5.662 2.08a1.501 1.501 0 0 1-.533 2.903zm-193.701.195a1.499 1.499 0 0 1-.536-2.9 267.684 267.684 0 0 1 5.677-2.1 1.5 1.5 0 0 1 1.008 2.826c-1.884.672-3.772 1.37-5.613 2.075a1.481 1.481 0 0 1-.536.099zm204.797 4.305c-.2 0-.401-.04-.594-.123a261.793 261.793 0 0 0-5.482-2.294 1.502 1.502 0 0 1-.828-1.954 1.503 1.503 0 0 1 1.955-.827c1.837.745 3.704 1.526 5.544 2.32a1.5 1.5 0 0 1-.595 2.878zm-215.935.24a1.5 1.5 0 0 1-.598-2.876 277.45 277.45 0 0 1 5.574-2.348 1.501 1.501 0 0 1 1.135 2.778 268.255 268.255 0 0 0-5.514 2.322 1.504 1.504 0 0 1-.597.124zm226.807 4.74c-.22 0-.443-.048-.654-.15a275.158 275.158 0 0 0-5.38-2.537 1.5 1.5 0 1 1 1.25-2.727c1.825.835 3.637 1.69 5.439 2.565a1.498 1.498 0 0 1-.655 2.849zm-237.732.295a1.498 1.498 0 0 1-.659-2.847 269.658 269.658 0 0 1 5.464-2.593 1.5 1.5 0 1 1 1.256 2.724c-1.792.827-3.61 1.689-5.403 2.564a1.504 1.504 0 0 1-.658.152zm248.378 5.162c-.241 0-.485-.057-.713-.18a266.167 266.167 0 0 0-5.264-2.774 1.5 1.5 0 1 1 1.369-2.67c1.786.916 3.56 1.852 5.323 2.805a1.5 1.5 0 0 1-.715 2.819zm-259.061.35a1.5 1.5 0 0 1-.719-2.817 269.424 269.424 0 0 1 5.342-2.831 1.5 1.5 0 0 1 1.375 2.666 271.102 271.102 0 0 0-5.281 2.8 1.5 1.5 0 0 1-.717.183zm269.46 5.575c-.262 0-.528-.068-.77-.214a276.575 276.575 0 0 0-5.138-3.003 1.5 1.5 0 1 1 1.484-2.607c1.744.994 3.476 2.007 5.197 3.038a1.5 1.5 0 0 1-.772 2.786zm-279.886.402a1.5 1.5 0 0 1-.775-2.785 281.608 281.608 0 0 1 5.208-3.061 1.497 1.497 0 0 1 2.046.554 1.498 1.498 0 0 1-.554 2.047 278.989 278.989 0 0 0-5.152 3.03 1.5 1.5 0 0 1-.773.215zm290.02 5.978a1.49 1.49 0 0 1-.825-.248 275.332 275.332 0 0 0-5.006-3.23 1.5 1.5 0 1 1 1.6-2.538 290.581 290.581 0 0 1 5.059 3.264 1.5 1.5 0 0 1-.828 2.752zm-300.167.454a1.5 1.5 0 0 1-.833-2.749 277.171 277.171 0 0 1 5.067-3.29 1.502 1.502 0 0 1 2.069.465 1.499 1.499 0 0 1-.464 2.07 267.579 267.579 0 0 0-5.01 3.253c-.255.17-.543.25-.83.25zm310.014 6.366c-.305 0-.614-.092-.881-.286a264.346 264.346 0 0 0-4.86-3.446 1.5 1.5 0 0 1 1.71-2.467A278.98 278.98 0 0 1 596.47 189a1.5 1.5 0 0 1-.882 2.714zm-319.866.502a1.499 1.499 0 0 1-.886-2.712 283.948 283.948 0 0 1 4.914-3.506 1.5 1.5 0 1 1 1.717 2.46 274.227 274.227 0 0 0-4.861 3.47 1.496 1.496 0 0 1-.884.288zm329.408 6.748a1.49 1.49 0 0 1-.932-.326 272.73 272.73 0 0 0-4.706-3.657 1.5 1.5 0 1 1 1.815-2.39c1.6 1.217 3.185 2.449 4.758 3.699a1.5 1.5 0 0 1-.935 2.674zm-338.945.546a1.5 1.5 0 0 1-.939-2.671 278.692 278.692 0 0 1 4.755-3.72 1.5 1.5 0 0 1 1.823 2.383 269.915 269.915 0 0 0-4.703 3.679 1.492 1.492 0 0 1-.936.329zm348.162 7.117c-.35 0-.7-.121-.983-.368a279.374 279.374 0 0 0-4.542-3.861 1.5 1.5 0 0 1 1.918-2.307 271.04 271.04 0 0 1 4.592 3.905 1.5 1.5 0 0 1-.985 2.63zm-357.366.586a1.5 1.5 0 0 1-.989-2.629 280.39 280.39 0 0 1 4.584-3.923 1.5 1.5 0 1 1 1.926 2.3 279.328 279.328 0 0 0-4.535 3.88 1.493 1.493 0 0 1-.986.372zm366.243 7.477a1.5 1.5 0 0 1-1.033-.412 269.903 269.903 0 0 0-4.37-4.058 1.498 1.498 0 1 1 2.016-2.221 267.45 267.45 0 0 1 4.42 4.103 1.5 1.5 0 0 1-1.033 2.588zm-375.1.619a1.501 1.501 0 0 1-1.036-2.585 276.102 276.102 0 0 1 4.407-4.118 1.5 1.5 0 1 1 2.026 2.213 274.94 274.94 0 0 0-4.36 4.075c-.29.277-.663.415-1.036.415zm383.617 7.827c-.393 0-.786-.153-1.08-.458a284.3 284.3 0 0 0-4.19-4.248 1.5 1.5 0 1 1 2.114-2.13 281.073 281.073 0 0 1 4.235 4.294 1.501 1.501 0 0 1-1.08 2.542zm-392.104.649a1.5 1.5 0 0 1-1.084-2.537 265.703 265.703 0 0 1 4.222-4.31 1.5 1.5 0 1 1 2.119 2.124 263.738 263.738 0 0 0-4.174 4.26 1.496 1.496 0 0 1-1.083.463zm400.245 8.166c-.416 0-.83-.171-1.125-.507a263.649 263.649 0 0 0-4-4.427 1.5 1.5 0 0 1 2.203-2.037 273.265 273.265 0 0 1 4.045 4.477 1.5 1.5 0 0 1-1.123 2.494zm-408.354.669a1.498 1.498 0 0 1-1.126-2.491 285.297 285.297 0 0 1 4.026-4.485 1.5 1.5 0 1 1 2.211 2.027 274.555 274.555 0 0 0-3.983 4.439 1.5 1.5 0 0 1-1.128.51zm416.103 8.496c-.437 0-.871-.191-1.167-.557a269.222 269.222 0 0 0-3.805-4.601 1.5 1.5 0 1 1 2.29-1.937 269.576 269.576 0 0 1 3.847 4.65 1.5 1.5 0 0 1-1.165 2.445zm-423.814.682a1.499 1.499 0 0 1-1.169-2.438 262.645 262.645 0 0 1 3.826-4.658 1.499 1.499 0 1 1 2.297 1.929 267.851 267.851 0 0 0-3.783 4.606 1.498 1.498 0 0 1-1.171.56zm431.156 8.818c-.46 0-.914-.211-1.208-.61a272.428 272.428 0 0 0-3.598-4.763 1.5 1.5 0 1 1 2.373-1.834 266.34 266.34 0 0 1 3.639 4.816 1.5 1.5 0 0 1-1.206 2.39zm6.917 9.816c-.482 0-.956-.232-1.246-.663a263.856 263.856 0 0 0-3.387-4.92 1.501 1.501 0 0 1 2.451-1.73 273.338 273.338 0 0 1 3.426 4.976 1.5 1.5 0 0 1-1.244 2.337zm6.48 10.115a1.5 1.5 0 0 1-1.28-.718 263.496 263.496 0 0 0-3.167-5.066 1.5 1.5 0 1 1 2.526-1.62 275.156 275.156 0 0 1 3.202 5.123 1.5 1.5 0 0 1-1.28 2.28zm6.032 10.395c-.53 0-1.042-.28-1.315-.777a273.955 273.955 0 0 0-2.941-5.202 1.498 1.498 0 0 1 .544-2.05 1.499 1.499 0 0 1 2.05.544 280.239 280.239 0 0 1 2.975 5.26 1.499 1.499 0 0 1-1.313 2.225zm5.566 10.656a1.502 1.502 0 0 1-1.346-.835 275.186 275.186 0 0 0-2.71-5.33 1.5 1.5 0 0 1 2.66-1.39 278.452 278.452 0 0 1 2.74 5.39 1.501 1.501 0 0 1-1.344 2.165zm-488.238.61a1.5 1.5 0 0 1-1.346-2.161c.885-1.8 1.79-3.591 2.713-5.37a1.5 1.5 0 0 1 2.662 1.383 271.842 271.842 0 0 0-2.682 5.31 1.5 1.5 0 0 1-1.347.838zm493.328 10.287a1.5 1.5 0 0 1-1.374-.896 262.55 262.55 0 0 0-2.471-5.446 1.5 1.5 0 0 1 2.717-1.272c.842 1.8 1.683 3.654 2.5 5.509a1.5 1.5 0 0 1-1.372 2.105zm-498.364.56a1.5 1.5 0 0 1-1.373-2.101 269.733 269.733 0 0 1 2.47-5.481 1.5 1.5 0 0 1 2.722 1.264 272.39 272.39 0 0 0-2.444 5.42 1.5 1.5 0 0 1-1.375.899zm502.965 10.556a1.5 1.5 0 0 1-1.398-.957 265.828 265.828 0 0 0-2.228-5.554 1.5 1.5 0 1 1 2.772-1.148 279.91 279.91 0 0 1 2.253 5.616 1.5 1.5 0 0 1-1.4 2.043zm-507.52.518a1.5 1.5 0 0 1-1.399-2.04 272.022 272.022 0 0 1 2.232-5.602 1.5 1.5 0 1 1 2.775 1.14 274.248 274.248 0 0 0-2.21 5.542c-.228.596-.796.96-1.398.96zm-4.068 11.287a1.497 1.497 0 0 1-1.422-1.976 258.93 258.93 0 0 1 1.982-5.698 1.5 1.5 0 1 1 2.822 1.017c-.67 1.86-1.33 3.755-1.961 5.634a1.497 1.497 0 0 1-1.421 1.023zm-9.144 34.786a1.5 1.5 0 0 1-1.475-1.785 279.65 279.65 0 0 1 1.208-5.91 1.5 1.5 0 1 1 2.932.633 279.94 279.94 0 0 0-1.194 5.846 1.5 1.5 0 0 1-1.471 1.216zm537.589 23.24a1.5 1.5 0 0 1-1.49-1.345 263.105 263.105 0 0 0-.685-5.926 1.5 1.5 0 0 1 1.3-1.676 1.51 1.51 0 0 1 1.677 1.299c.25 1.982.484 3.997.692 5.993a1.5 1.5 0 0 1-1.494 1.655zm.984 11.956a1.5 1.5 0 0 1-1.496-1.41c-.12-1.993-.263-3.995-.424-5.95a1.501 1.501 0 0 1 1.372-1.62c.819-.052 1.55.546 1.619 1.373.163 1.978.306 4.002.427 6.017a1.5 1.5 0 0 1-1.498 1.59zm-537.842 72.074a1.5 1.5 0 0 1-1.466-1.195 277.208 277.208 0 0 1-1.16-5.92 1.5 1.5 0 1 1 2.952-.544 263.1 263.1 0 0 0 1.145 5.854 1.5 1.5 0 0 1-1.471 1.805zm2.696 11.69a1.5 1.5 0 0 1-1.453-1.13 274.915 274.915 0 0 1-1.421-5.863 1.5 1.5 0 1 1 2.924-.673c.448 1.944.92 3.895 1.405 5.796a1.501 1.501 0 0 1-1.455 1.87zm3.21 11.56a1.5 1.5 0 0 1-1.434-1.066 277.366 277.366 0 0 1-1.68-5.794 1.501 1.501 0 0 1 2.89-.803 277.348 277.348 0 0 0 1.66 5.73 1.5 1.5 0 0 1-1.435 1.933zm3.737 11.447a1.5 1.5 0 0 1-1.415-1.003 260.415 260.415 0 0 1-1.942-5.734 1.499 1.499 0 1 1 2.85-.93 263.565 263.565 0 0 0 1.922 5.67 1.499 1.499 0 0 1-1.415 1.997zm509.367 10.736a1.497 1.497 0 0 1-1.392-2.057c.737-1.846 1.454-3.7 2.153-5.565a1.495 1.495 0 0 1 1.93-.878 1.499 1.499 0 0 1 .879 1.93 274.693 274.693 0 0 1-2.177 5.626 1.5 1.5 0 0 1-1.393.944zm-505.125.529a1.5 1.5 0 0 1-1.391-.94 278.671 278.671 0 0 1-2.196-5.64 1.5 1.5 0 0 1 2.807-1.058 270.427 270.427 0 0 0 2.172 5.578 1.501 1.501 0 0 1-1.392 2.06zm500.443 10.47a1.503 1.503 0 0 1-1.367-2.118c.817-1.803 1.613-3.62 2.39-5.444a1.499 1.499 0 1 1 2.76 1.174 273.009 273.009 0 0 1-2.415 5.507 1.502 1.502 0 0 1-1.368.882zm-495.705.59a1.5 1.5 0 0 1-1.367-.88 272.067 272.067 0 0 1-2.443-5.533 1.5 1.5 0 0 1 2.758-1.181 266.1 266.1 0 0 0 2.416 5.473 1.5 1.5 0 0 1-1.364 2.12zm490.54 10.198a1.502 1.502 0 0 1-1.337-2.178 280.69 280.69 0 0 0 2.628-5.336 1.5 1.5 0 0 1 2.705 1.297 289.978 289.978 0 0 1-2.657 5.395 1.5 1.5 0 0 1-1.34.822zm-485.32.635a1.5 1.5 0 0 1-1.338-.82 278.08 278.08 0 0 1-2.685-5.417 1.501 1.501 0 0 1 2.703-1.302 274.85 274.85 0 0 0 2.656 5.358 1.501 1.501 0 0 1-1.336 2.18zm479.68 9.919a1.5 1.5 0 0 1-1.307-2.236 277.156 277.156 0 0 0 2.864-5.22 1.499 1.499 0 1 1 2.644 1.416 282.935 282.935 0 0 1-2.892 5.275 1.503 1.503 0 0 1-1.31.765zm-473.987.668a1.498 1.498 0 0 1-1.306-.761 269.853 269.853 0 0 1-2.922-5.291 1.5 1.5 0 1 1 2.643-1.42 268.997 268.997 0 0 0 2.888 5.232 1.497 1.497 0 0 1-1.303 2.24zm467.887 9.63a1.5 1.5 0 0 1-1.272-2.293 272.145 272.145 0 0 0 3.09-5.087 1.5 1.5 0 1 1 2.582 1.529 288.601 288.601 0 0 1-3.125 5.145 1.5 1.5 0 0 1-1.275.707zm-461.732.689a1.5 1.5 0 0 1-1.272-.703 276.322 276.322 0 0 1-3.152-5.155 1.5 1.5 0 0 1 2.576-1.537 275.3 275.3 0 0 0 3.117 5.098 1.498 1.498 0 0 1-1.27 2.297zm455.18 9.338a1.498 1.498 0 0 1-1.237-2.348 278.693 278.693 0 0 0 3.314-4.95 1.5 1.5 0 1 1 2.511 1.641 272.328 272.328 0 0 1-3.35 5.004c-.29.425-.76.653-1.237.653zm-448.58.698c-.477 0-.946-.227-1.237-.648a292.082 292.082 0 0 1-3.373-5.008 1.499 1.499 0 1 1 2.506-1.65 276.582 276.582 0 0 0 3.338 4.954 1.5 1.5 0 0 1-1.234 2.352zm441.593 9.033a1.5 1.5 0 0 1-1.198-2.401 263.029 263.029 0 0 0 3.528-4.802 1.501 1.501 0 0 1 2.438 1.75 268.922 268.922 0 0 1-3.568 4.855 1.497 1.497 0 0 1-1.2.598zm-434.556.7a1.5 1.5 0 0 1-1.198-.594 283.906 283.906 0 0 1-3.59-4.854 1.501 1.501 0 0 1 .336-2.095 1.503 1.503 0 0 1 2.095.337 264.209 264.209 0 0 0 3.552 4.8 1.501 1.501 0 0 1-1.195 2.406zm427.146 8.719a1.5 1.5 0 0 1-1.157-2.453 267.412 267.412 0 0 0 3.737-4.644 1.501 1.501 0 0 1 2.359 1.854 270.618 270.618 0 0 1-3.78 4.696 1.496 1.496 0 0 1-1.16.547zm-419.694.69c-.432 0-.86-.184-1.156-.542a278.755 278.755 0 0 1-3.8-4.69 1.499 1.499 0 0 1 .245-2.107 1.499 1.499 0 0 1 2.107.244 278.658 278.658 0 0 0 3.758 4.639 1.5 1.5 0 0 1-1.154 2.457zm411.876 8.398a1.5 1.5 0 0 1-1.115-2.503 269.568 269.568 0 0 0 3.936-4.476 1.503 1.503 0 0 1 2.116-.16c.628.54.699 1.488.159 2.117a273.37 273.37 0 0 1-3.981 4.525 1.497 1.497 0 0 1-1.115.497zm-404.02.675c-.41 0-.817-.166-1.113-.494a280.322 280.322 0 0 1-4-4.516 1.5 1.5 0 0 1 2.269-1.965 274.432 274.432 0 0 0 3.956 4.469 1.5 1.5 0 0 1-1.112 2.506zm395.808 8.064a1.5 1.5 0 0 1-1.07-2.55 279.548 279.548 0 0 0 4.13-4.302 1.5 1.5 0 0 1 2.187 2.054 272.053 272.053 0 0 1-4.177 4.349 1.495 1.495 0 0 1-1.07.449zm-387.564.65c-.386 0-.773-.15-1.066-.446a265.829 265.829 0 0 1-4.193-4.337 1.499 1.499 0 1 1 2.179-2.06 268.23 268.23 0 0 0 4.147 4.288 1.5 1.5 0 0 1-1.067 2.555zm378.973 7.724a1.499 1.499 0 0 1-1.023-2.596 274.968 274.968 0 0 0 4.318-4.12 1.5 1.5 0 1 1 2.094 2.15 280.998 280.998 0 0 1-4.366 4.163c-.29.27-.656.403-1.023.403zm-370.356.62c-.366 0-.731-.131-1.02-.4a272.387 272.387 0 0 1-4.378-4.147 1.502 1.502 0 0 1 2.088-2.155 270.53 270.53 0 0 0 4.329 4.102 1.5 1.5 0 0 1-1.02 2.6zm361.406 7.373a1.5 1.5 0 0 1-.975-2.641 265.15 265.15 0 0 0 4.493-3.925 1.5 1.5 0 1 1 2 2.236 254.791 254.791 0 0 1-4.546 3.97c-.282.24-.628.36-.972.36zm-352.437.583a1.5 1.5 0 0 1-.97-.357c-1.531-1.3-3.05-2.616-4.552-3.95a1.499 1.499 0 1 1 1.99-2.244 269.755 269.755 0 0 0 4.504 3.907 1.5 1.5 0 0 1-.972 2.644zm343.14 7.009a1.499 1.499 0 0 1-.923-2.682 273.607 273.607 0 0 0 4.664-3.726 1.5 1.5 0 0 1 1.899 2.324 274.836 274.836 0 0 1-4.717 3.767 1.492 1.492 0 0 1-.922.317zm-333.834.543a1.49 1.49 0 0 1-.92-.315 289.164 289.164 0 0 1-4.72-3.745 1.501 1.501 0 0 1 1.892-2.33c1.542 1.252 3.1 2.487 4.669 3.706a1.5 1.5 0 0 1-.921 2.684zm324.21 6.637a1.5 1.5 0 0 1-.871-2.722 277.77 277.77 0 0 0 4.826-3.518 1.5 1.5 0 1 1 1.793 2.404 272.714 272.714 0 0 1-4.878 3.558 1.498 1.498 0 0 1-.87.278zm-314.581.498c-.3 0-.603-.09-.865-.275a274.846 274.846 0 0 1-4.88-3.535 1.5 1.5 0 0 1 1.787-2.41 260.869 260.869 0 0 0 4.825 3.495 1.499 1.499 0 0 1-.867 2.725zm304.648 6.254a1.5 1.5 0 0 1-.816-2.759 269.753 269.753 0 0 0 4.977-3.304 1.5 1.5 0 0 1 1.686 2.483 277.434 277.434 0 0 1-5.032 3.339 1.494 1.494 0 0 1-.815.24zm-294.722.448c-.28 0-.561-.077-.812-.24a277.578 277.578 0 0 1-5.026-3.314 1.499 1.499 0 1 1 1.678-2.486 273.491 273.491 0 0 0 4.973 3.279 1.5 1.5 0 0 1-.813 2.76zm284.498 5.86a1.5 1.5 0 0 1-.761-2.794 277.668 277.668 0 0 0 5.12-3.08 1.5 1.5 0 1 1 1.575 2.552 272.849 272.849 0 0 1-5.176 3.116c-.24.14-.5.207-.758.207zm-274.29.397a1.49 1.49 0 0 1-.755-.204 276.264 276.264 0 0 1-5.167-3.09 1.5 1.5 0 0 1 1.568-2.558 262.109 262.109 0 0 0 5.11 3.056 1.5 1.5 0 0 1 .54 2.052 1.502 1.502 0 0 1-1.296.744zm263.793 5.457a1.502 1.502 0 0 1-.703-2.826 262.728 262.728 0 0 0 5.252-2.853 1.501 1.501 0 0 1 1.46 2.62c-1.742.973-3.53 1.944-5.31 2.885a1.499 1.499 0 0 1-.7.174zm-253.326.34c-.235 0-.474-.055-.697-.171a285.866 285.866 0 0 1-5.294-2.857 1.503 1.503 0 0 1-.586-2.04 1.502 1.502 0 0 1 2.039-.585c1.735.96 3.48 1.903 5.238 2.826a1.501 1.501 0 0 1-.7 2.828zm242.575 5.044a1.5 1.5 0 0 1-.643-2.856 261.578 261.578 0 0 0 5.376-2.62 1.505 1.505 0 0 1 2.014.67c.37.742.07 1.644-.67 2.015a272.69 272.69 0 0 1-5.437 2.646 1.478 1.478 0 0 1-.64.145zm-231.864.287c-.213 0-.431-.046-.637-.143a269.844 269.844 0 0 1-5.414-2.62 1.5 1.5 0 1 1 1.337-2.685 272.21 272.21 0 0 0 5.354 2.59 1.5 1.5 0 0 1-.64 2.858zm220.879 4.617a1.501 1.501 0 0 1-.582-2.883 264.507 264.507 0 0 0 5.49-2.378 1.499 1.499 0 1 1 1.223 2.739 265.037 265.037 0 0 1-5.551 2.405c-.19.08-.386.117-.58.117zm-209.951.23c-.192 0-.388-.037-.576-.115a261.605 261.605 0 0 1-5.522-2.377 1.5 1.5 0 0 1 1.217-2.742c1.813.805 3.65 1.596 5.459 2.35a1.501 1.501 0 0 1-.578 2.885zm198.754 4.18a1.499 1.499 0 0 1-.52-2.906 272.48 272.48 0 0 0 5.594-2.132 1.501 1.501 0 0 1 1.1 2.79 269.235 269.235 0 0 1-5.655 2.156 1.474 1.474 0 0 1-.52.093zm-187.602.187c-.171 0-.345-.03-.515-.092a266.319 266.319 0 0 1-5.642-2.138 1.498 1.498 0 0 1-.85-1.943 1.499 1.499 0 0 1 1.944-.85c1.85.725 3.71 1.43 5.579 2.115a1.499 1.499 0 0 1-.516 2.908zm176.214 3.724a1.498 1.498 0 0 1-1.428-1.045 1.497 1.497 0 0 1 .973-1.883 286.543 286.543 0 0 0 5.686-1.882 1.5 1.5 0 1 1 .972 2.838 270.275 270.275 0 0 1-5.748 1.9 1.469 1.469 0 0 1-.455.072zm-164.86.152c-.15 0-.302-.023-.453-.071a271.949 271.949 0 0 1-5.731-1.884 1.5 1.5 0 0 1 .969-2.84c1.876.64 3.782 1.267 5.668 1.865a1.5 1.5 0 0 1-.453 2.93zm153.35 3.236a1.5 1.5 0 0 1-.39-2.948 271.515 271.515 0 0 0 5.74-1.62 1.497 1.497 0 0 1 1.863 1.014 1.499 1.499 0 0 1-1.014 1.863c-1.901.56-3.855 1.112-5.806 1.639a1.52 1.52 0 0 1-.392.052zm-141.834.129c-.13 0-.26-.017-.39-.051a261.658 261.658 0 0 1-5.81-1.63 1.498 1.498 0 0 1-1.017-1.86 1.504 1.504 0 0 1 1.86-1.018 266.89 266.89 0 0 0 5.744 1.61 1.5 1.5 0 0 1-.387 2.949zm130.187 2.744a1.5 1.5 0 0 1-.326-2.964c1.944-.434 3.88-.888 5.809-1.364a1.5 1.5 0 1 1 .718 2.912c-1.933.478-3.91.942-5.873 1.38a1.54 1.54 0 0 1-.328.036zm-118.534.109c-.107 0-.216-.012-.325-.036a264.785 264.785 0 0 1-5.875-1.37 1.5 1.5 0 1 1 .713-2.913c1.936.474 3.89.93 5.81 1.354a1.5 1.5 0 0 1-.323 2.965zm106.769 2.244a1.5 1.5 0 0 1-.26-2.977c1.963-.348 3.917-.716 5.863-1.105a1.5 1.5 0 1 1 .588 2.941 268.16 268.16 0 0 1-5.927 1.117 1.49 1.49 0 0 1-.264.024zm-95.001.086c-.085 0-.172-.007-.26-.023-1.984-.347-3.96-.717-5.93-1.106a1.501 1.501 0 0 1-1.18-1.763 1.506 1.506 0 0 1 1.763-1.181c1.947.386 3.902.75 5.864 1.095a1.5 1.5 0 0 1-.257 2.978zm83.145 1.744a1.5 1.5 0 0 1-.194-2.988c1.966-.258 3.953-.543 5.906-.844a1.5 1.5 0 0 1 .457 2.965 278.42 278.42 0 0 1-5.971.854 1.474 1.474 0 0 1-.198.013zm-71.286.064c-.065 0-.13-.004-.195-.012-1.998-.26-3.99-.541-5.973-.844a1.5 1.5 0 1 1 .453-2.965c1.96.299 3.93.576 5.906.834a1.5 1.5 0 0 1-.191 2.987zm59.36 1.24a1.499 1.499 0 0 1-.127-2.993c1.986-.173 3.964-.368 5.937-.584a1.5 1.5 0 0 1 .326 2.983c-1.994.217-3.996.415-6.003.59a1.94 1.94 0 0 1-.132.005zm-47.43.043c-.043 0-.086-.002-.13-.005a263.564 263.564 0 0 1-6.005-.58 1.5 1.5 0 0 1-1.33-1.652 1.492 1.492 0 0 1 1.652-1.33c1.98.213 3.977.406 5.938.573a1.5 1.5 0 0 1-.125 2.994zm35.46.74c-.798 0-1.462-.63-1.498-1.435a1.502 1.502 0 0 1 1.434-1.564c1.99-.086 3.978-.194 5.958-.324.814-.05 1.54.573 1.595 1.4a1.501 1.501 0 0 1-1.4 1.595c-2.002.129-4.01.239-6.022.327h-.067zm-23.49.02-.062-.001a284.931 284.931 0 0 1-6.024-.316 1.5 1.5 0 1 1 .19-2.994c1.98.125 3.967.229 5.959.312a1.501 1.501 0 0 1-.062 2.999zM436 684c-1.852 0-3.701-.018-5.545-.054a1.5 1.5 0 0 1 .029-3h.03c3.81.076 7.645.073 11.45-.011.869.01 1.516.639 1.534 1.467a1.5 1.5 0 0 1-1.466 1.533A274.96 274.96 0 0 1 436 684zM431.218 3.027a1.5 1.5 0 0 1-.018-3C432.798.008 434.398 0 436 0l1.22.001a1.5 1.5 0 0 1-.003 3h-1.214c-1.594 0-3.181.007-4.767.026h-.018zm17.983.182h-.048a393.648 393.648 0 0 0-5.964-.147 1.5 1.5 0 0 1 .025-3h.025c2.007.034 4.009.084 6.009.148a1.5 1.5 0 0 1-.047 2.999zm-29.978.128a1.5 1.5 0 0 1-.06-2.999 428.82 428.82 0 0 1 6.018-.199h.04a1.5 1.5 0 0 1 .038 3c-1.995.05-3.987.117-5.975.197l-.061.001zm41.965.426c-.031 0-.061 0-.092-.003-1.986-.12-3.977-.226-5.97-.319a1.499 1.499 0 0 1-1.43-1.567c.04-.827.753-1.478 1.569-1.429 2.009.093 4.013.2 6.013.321a1.499 1.499 0 0 1-.09 2.997zm-53.945.232A1.5 1.5 0 0 1 407.14 1c1.999-.14 4.002-.264 6.01-.374.832-.02 1.534.59 1.58 1.416a1.501 1.501 0 0 1-1.416 1.58c-1.993.108-3.982.232-5.965.37a1.275 1.275 0 0 1-.107.004zm65.909.67c-.045 0-.091-.003-.136-.007a403.025 403.025 0 0 0-5.958-.492 1.5 1.5 0 1 1 .224-2.993c2.006.152 4.006.318 6.002.497a1.5 1.5 0 0 1-.132 2.994zM395.287 5a1.501 1.501 0 0 1-.145-2.994c1.994-.196 3.993-.379 5.995-.548.83-.05 1.55.545 1.62 1.37a1.502 1.502 0 0 1-1.368 1.62c-1.988.167-3.972.35-5.952.545-.05.005-.1.007-.15.007zm89.798.914a1.37 1.37 0 0 1-.18-.01 414.57 414.57 0 0 0-5.94-.667 1.502 1.502 0 0 1-1.335-1.649c.087-.824.848-1.409 1.649-1.335 1.999.21 3.993.433 5.983.671a1.5 1.5 0 0 1-.177 2.99zm-101.72.44a1.5 1.5 0 0 1-.19-2.987c1.99-.256 3.982-.497 5.98-.724a1.493 1.493 0 0 1 1.659 1.321 1.5 1.5 0 0 1-1.322 1.66c-1.981.224-3.96.464-5.933.717-.066.01-.13.013-.194.013zm113.61 1.158c-.074 0-.15-.005-.224-.016-1.97-.294-3.94-.574-5.918-.84a1.5 1.5 0 0 1-1.286-1.688c.11-.82.869-1.404 1.687-1.286 1.99.27 3.978.551 5.96.847a1.5 1.5 0 0 1-.22 2.983zm-125.486.545a1.5 1.5 0 0 1-.232-2.98c1.98-.315 3.965-.614 5.954-.9a1.503 1.503 0 0 1 1.697 1.272c.119.82-.451 1.58-1.271 1.697a394.87 394.87 0 0 0-5.911.893 1.576 1.576 0 0 1-.237.018zm137.325 1.404c-.088 0-.178-.008-.268-.024-1.958-.352-3.922-.69-5.89-1.014a1.5 1.5 0 0 1 .487-2.96c1.983.327 3.96.667 5.934 1.021a1.5 1.5 0 0 1-.263 2.977zm-149.146.647a1.498 1.498 0 0 1-1.471-1.222 1.499 1.499 0 0 1 1.195-1.752 412.01 412.01 0 0 1 5.925-1.073 1.494 1.494 0 0 1 1.734 1.221 1.498 1.498 0 0 1-1.221 1.734c-1.966.342-3.926.697-5.882 1.066a1.482 1.482 0 0 1-.28.026zm160.923 1.648c-.102 0-.206-.009-.31-.032a407.529 407.529 0 0 0-5.86-1.186 1.501 1.501 0 0 1-1.184-1.76 1.51 1.51 0 0 1 1.759-1.186c1.972.385 3.94.784 5.902 1.197a1.5 1.5 0 0 1-.307 2.967zm-172.678.752a1.5 1.5 0 0 1-.321-2.964 407.5 407.5 0 0 1 5.892-1.248 1.5 1.5 0 0 1 .599 2.939c-1.954.398-3.903.812-5.846 1.238a1.441 1.441 0 0 1-.324.035zm184.38 1.891c-.116 0-.234-.014-.352-.042-1.936-.467-3.875-.92-5.822-1.359a1.5 1.5 0 0 1-1.132-1.793 1.496 1.496 0 0 1 1.793-1.133c1.959.441 3.915.898 5.864 1.37a1.5 1.5 0 0 1-.351 2.957zm-196.058.855a1.503 1.503 0 0 1-1.455-1.135 1.502 1.502 0 0 1 1.09-1.82 401.74 401.74 0 0 1 5.85-1.42 1.5 1.5 0 1 1 .687 2.919c-1.94.456-3.877.926-5.806 1.411a1.54 1.54 0 0 1-.366.045zm207.678 2.131c-.131 0-.263-.016-.395-.052a430.223 430.223 0 0 0-5.78-1.532 1.499 1.499 0 0 1-1.077-1.826 1.496 1.496 0 0 1 1.827-1.078c1.944.5 3.884 1.014 5.819 1.541a1.501 1.501 0 0 1-.394 2.947zm-219.273.956a1.5 1.5 0 0 1-.406-2.943 427.725 427.725 0 0 1 5.806-1.593 1.494 1.494 0 0 1 1.836 1.063 1.5 1.5 0 0 1-1.062 1.836 407.9 407.9 0 0 0-5.766 1.581 1.48 1.48 0 0 1-.408.056zm230.8 2.372c-.146 0-.293-.02-.44-.065a393.431 393.431 0 0 0-5.728-1.7 1.501 1.501 0 0 1 .832-2.883 403.19 403.19 0 0 1 5.772 1.714 1.499 1.499 0 0 1-.436 2.934zm-242.297 1.06a1.5 1.5 0 0 1-.45-2.932c1.913-.6 3.833-1.19 5.757-1.764a1.501 1.501 0 0 1 .858 2.875c-1.911.57-3.816 1.153-5.715 1.751a1.5 1.5 0 0 1-.45.07zm253.72 2.608c-.16 0-.321-.025-.48-.079a459.867 459.867 0 0 0-5.68-1.87 1.5 1.5 0 1 1 .92-2.855 415.38 415.38 0 0 1 5.719 1.884 1.497 1.497 0 0 1 .94 1.9 1.498 1.498 0 0 1-1.42 1.02zm-265.158 1.176a1.5 1.5 0 0 1-.493-2.917 401.342 401.342 0 0 1 5.727-1.94 1.499 1.499 0 1 1 .941 2.848c-1.9.627-3.794 1.27-5.683 1.926a1.487 1.487 0 0 1-.492.083zm276.468 2.83c-.173 0-.35-.03-.521-.094a417.594 417.594 0 0 0-5.621-2.037 1.5 1.5 0 0 1 1.002-2.828c1.894.671 3.78 1.355 5.662 2.052a1.5 1.5 0 0 1-.522 2.906zm-287.78 1.29a1.503 1.503 0 0 1-1.403-.967 1.502 1.502 0 0 1 .87-1.936c1.88-.715 3.767-1.419 5.66-2.108a1.5 1.5 0 1 1 1.027 2.818c-1.88.686-3.754 1.384-5.621 2.095a1.51 1.51 0 0 1-.533.097zm298.967 3.045c-.188 0-.38-.035-.563-.109a393.727 393.727 0 0 0-5.558-2.202 1.5 1.5 0 0 1 1.084-2.797c1.874.726 3.74 1.465 5.599 2.218a1.499 1.499 0 0 1-.562 2.89zM279.208 34.13a1.499 1.499 0 0 1-.576-2.884 389.816 389.816 0 0 1 5.596-2.277 1.501 1.501 0 0 1 1.109 2.787c-1.858.74-3.71 1.493-5.554 2.26a1.498 1.498 0 0 1-.575.114zm321.16 3.238a1.48 1.48 0 0 1-.602-.127 401.64 401.64 0 0 0-5.468-2.355 1.499 1.499 0 1 1 1.166-2.763c1.844.777 3.68 1.568 5.509 2.372a1.498 1.498 0 0 1 .769 1.976 1.498 1.498 0 0 1-1.374.897zM268.166 38.91a1.498 1.498 0 0 1-1.368-.884 1.497 1.497 0 0 1 .75-1.983 395.139 395.139 0 0 1 5.524-2.44 1.5 1.5 0 1 1 1.192 2.753 401.26 401.26 0 0 0-5.483 2.421 1.48 1.48 0 0 1-.615.133zm343.075 3.427c-.215 0-.434-.047-.642-.146a414.923 414.923 0 0 0-5.4-2.516 1.5 1.5 0 0 1 1.248-2.728c1.82.832 3.633 1.677 5.439 2.535a1.5 1.5 0 0 1-.645 2.855zm-353.968 1.677a1.499 1.499 0 0 1-.658-2.848c1.809-.88 3.625-1.748 5.449-2.602a1.5 1.5 0 1 1 1.271 2.717 405.75 405.75 0 0 0-5.407 2.582 1.504 1.504 0 0 1-.655.151zm364.694 3.612c-.23 0-.464-.053-.683-.165a388.84 388.84 0 0 0-5.323-2.673 1.5 1.5 0 0 1 1.326-2.692 413.29 413.29 0 0 1 5.365 2.695 1.499 1.499 0 0 1-.685 2.835zm-375.432 1.81a1.5 1.5 0 0 1-.696-2.83c1.782-.932 3.57-1.852 5.366-2.76a1.5 1.5 0 1 1 1.354 2.678 424.38 424.38 0 0 0-5.33 2.74c-.221.116-.46.171-.694.171zm386 3.791a1.49 1.49 0 0 1-.72-.185 426.486 426.486 0 0 0-5.245-2.83 1.501 1.501 0 0 1 1.406-2.651c1.768.94 3.53 1.89 5.283 2.851a1.5 1.5 0 0 1-.723 2.815zM235.968 55.17a1.501 1.501 0 0 1-.735-2.808 416.417 416.417 0 0 1 5.28-2.917 1.501 1.501 0 0 1 1.432 2.637 417.549 417.549 0 0 0-5.244 2.895 1.486 1.486 0 0 1-.733.193zm406.974 3.97a1.49 1.49 0 0 1-.76-.208 386.546 386.546 0 0 0-5.162-2.983 1.501 1.501 0 0 1 1.482-2.61 423.32 423.32 0 0 1 5.2 3.007 1.502 1.502 0 0 1-.76 2.793zm-417.365 2.07a1.5 1.5 0 0 1-.774-2.786 415.975 415.975 0 0 1 5.192-3.07 1.5 1.5 0 0 1 1.508 2.594 384.948 384.948 0 0 0-5.153 3.047 1.5 1.5 0 0 1-.773.215zm427.593 4.145c-.272 0-.548-.074-.796-.229a392.425 392.425 0 0 0-5.073-3.134 1.5 1.5 0 0 1 1.557-2.565 398.476 398.476 0 0 1 5.112 3.158 1.5 1.5 0 0 1-.8 2.77zm-437.801 2.196a1.5 1.5 0 0 1-.811-2.762 412.654 412.654 0 0 1 5.098-3.22 1.503 1.503 0 0 1 2.067.482 1.503 1.503 0 0 1-.483 2.067 411.002 411.002 0 0 0-5.061 3.196c-.251.16-.532.237-.81.237zm447.85 4.32c-.287 0-.577-.083-.834-.255a403.58 403.58 0 0 0-4.981-3.283 1.5 1.5 0 1 1 1.632-2.516 409.685 409.685 0 0 1 5.019 3.307 1.5 1.5 0 0 1-.836 2.746zM205.356 74.19a1.5 1.5 0 0 1-.85-2.738 408.3 408.3 0 0 1 5.002-3.367 1.5 1.5 0 1 1 1.658 2.5 394.916 394.916 0 0 0-4.964 3.343 1.495 1.495 0 0 1-.846.262zm467.717 4.487c-.301 0-.605-.089-.87-.278a423.638 423.638 0 0 0-4.884-3.427 1.5 1.5 0 1 1 1.705-2.468 417.68 417.68 0 0 1 4.92 3.452 1.5 1.5 0 0 1-.871 2.721zm-477.53 2.44a1.5 1.5 0 0 1-.884-2.714 393.16 393.16 0 0 1 4.899-3.512 1.5 1.5 0 0 1 1.73 2.451 397.963 397.963 0 0 0-4.863 3.487 1.5 1.5 0 0 1-.882.287zm-9.604 7.207a1.5 1.5 0 0 1-.919-2.687 414.45 414.45 0 0 1 4.793-3.652 1.5 1.5 0 0 1 1.801 2.4 419.827 419.827 0 0 0-4.758 3.625 1.5 1.5 0 0 1-.917.314zm-9.387 7.485a1.499 1.499 0 0 1-.953-2.659 427.829 427.829 0 0 1 4.682-3.79 1.505 1.505 0 0 1 2.109.236c.516.648.41 1.592-.237 2.11a408.452 408.452 0 0 0-4.65 3.762 1.49 1.49 0 0 1-.951.341zm-9.161 7.752a1.502 1.502 0 0 1-.987-2.631 388.41 388.41 0 0 1 4.569-3.924 1.5 1.5 0 1 1 1.937 2.291 400.634 400.634 0 0 0-4.534 3.894c-.284.248-.636.37-.985.37zm-8.932 8.016a1.5 1.5 0 0 1-1.018-2.602 406.47 406.47 0 0 1 4.452-4.054 1.5 1.5 0 0 1 2.004 2.232 410.776 410.776 0 0 0-4.42 4.025 1.498 1.498 0 0 1-1.018.4zm-8.69 8.271a1.5 1.5 0 0 1-1.05-2.571 438 438 0 0 1 4.33-4.182 1.498 1.498 0 1 1 2.068 2.172 410.692 410.692 0 0 0-4.298 4.153 1.495 1.495 0 0 1-1.05.428zm-8.444 8.521a1.501 1.501 0 0 1-1.081-2.54 397.446 397.446 0 0 1 4.206-4.307 1.5 1.5 0 1 1 2.13 2.111 400.798 400.798 0 0 0-4.174 4.275 1.49 1.49 0 0 1-1.081.461zm-8.193 8.758a1.5 1.5 0 0 1-1.109-2.509 405.98 405.98 0 0 1 4.078-4.425 1.499 1.499 0 1 1 2.19 2.05 420.143 420.143 0 0 0-4.048 4.392 1.497 1.497 0 0 1-1.111.492zm-7.931 8.993a1.501 1.501 0 0 1-1.138-2.476 426.28 426.28 0 0 1 3.947-4.542 1.5 1.5 0 0 1 2.25 1.985 431.474 431.474 0 0 0-3.918 4.508 1.498 1.498 0 0 1-1.141.525zm-7.662 9.217a1.5 1.5 0 0 1-1.166-2.443c1.259-1.56 2.53-3.11 3.812-4.653a1.5 1.5 0 1 1 2.306 1.918 409.094 409.094 0 0 0-3.784 4.62c-.296.367-.73.558-1.168.558zm648.976 15.696c-.462 0-.92-.213-1.212-.615a408.619 408.619 0 0 0-3.564-4.805 1.5 1.5 0 1 1 2.396-1.805 423.232 423.232 0 0 1 3.59 4.84 1.5 1.5 0 0 1-1.21 2.385zm6.94 9.802a1.5 1.5 0 0 1-1.238-.652 397.932 397.932 0 0 0-3.421-4.908 1.5 1.5 0 0 1 2.447-1.734 396.553 396.553 0 0 1 3.449 4.945 1.502 1.502 0 0 1-1.237 2.35zm6.653 10.003c-.493 0-.975-.243-1.262-.688a418.337 418.337 0 0 0-3.278-5.009 1.498 1.498 0 0 1 .419-2.079 1.501 1.501 0 0 1 2.079.42 419.958 419.958 0 0 1 3.3 5.043 1.499 1.499 0 0 1-1.258 2.313zm6.358 10.198a1.496 1.496 0 0 1-1.285-.726 395.461 395.461 0 0 0-3.13-5.102 1.5 1.5 0 1 1 2.545-1.588 428.271 428.271 0 0 1 3.153 5.14 1.5 1.5 0 0 1-1.283 2.276zm6.057 10.382a1.499 1.499 0 0 1-1.31-.764 408.203 408.203 0 0 0-2.978-5.194 1.5 1.5 0 0 1 2.59-1.512 402.41 402.41 0 0 1 3.002 5.233 1.498 1.498 0 0 1-1.304 2.237zm5.75 10.558a1.499 1.499 0 0 1-1.33-.802 387.282 387.282 0 0 0-2.826-5.28 1.5 1.5 0 0 1 2.635-1.436c.962 1.766 1.91 3.54 2.848 5.32a1.502 1.502 0 0 1-1.327 2.198zm5.437 10.727c-.555 0-1.09-.31-1.348-.842a424.772 424.772 0 0 0-2.67-5.364 1.499 1.499 0 1 1 2.676-1.356c.91 1.794 1.806 3.595 2.689 5.404a1.499 1.499 0 0 1-1.347 2.158zm5.119 10.886a1.5 1.5 0 0 1-1.367-.882 388.799 388.799 0 0 0-2.512-5.442 1.5 1.5 0 0 1 2.715-1.277c.857 1.82 1.699 3.647 2.53 5.482a1.5 1.5 0 0 1-1.366 2.12zm4.798 11.036a1.502 1.502 0 0 1-1.386-.923 389.877 389.877 0 0 0-2.348-5.515 1.499 1.499 0 1 1 2.75-1.197 373.676 373.676 0 0 1 2.368 5.558 1.5 1.5 0 0 1-1.384 2.077zm4.469 11.176a1.497 1.497 0 0 1-1.4-.963 422.45 422.45 0 0 0-2.186-5.585 1.499 1.499 0 1 1 2.785-1.114 407.185 407.185 0 0 1 2.202 5.626 1.502 1.502 0 0 1-1.401 2.036zm4.139 11.31a1.498 1.498 0 0 1-1.416-1.007 420.496 420.496 0 0 0-2.02-5.648 1.498 1.498 0 1 1 2.816-1.032 384.47 384.47 0 0 1 2.036 5.692 1.5 1.5 0 0 1-1.416 1.994zm3.8 11.43a1.5 1.5 0 0 1-1.43-1.049 400.063 400.063 0 0 0-1.85-5.708 1.5 1.5 0 1 1 2.847-.947 414.642 414.642 0 0 1 1.865 5.751 1.5 1.5 0 0 1-1.431 1.952zm-781.137 3.422a1.5 1.5 0 0 1-1.435-1.94 407.575 407.575 0 0 1 1.808-5.744 1.502 1.502 0 0 1 1.888-.967 1.502 1.502 0 0 1 .967 1.89 377.216 377.216 0 0 0-1.794 5.7 1.5 1.5 0 0 1-1.434 1.061zm784.592 8.093c-.653 0-1.254-.43-1.442-1.09a390.103 390.103 0 0 0-1.675-5.737 1.5 1.5 0 0 1 2.873-.863c.576 1.921 1.14 3.848 1.689 5.78a1.503 1.503 0 0 1-1.445 1.91zm-787.937 3.43a1.498 1.498 0 0 1-1.447-1.896c.53-1.939 1.077-3.87 1.636-5.797a1.5 1.5 0 1 1 2.881.838 414.648 414.648 0 0 0-1.625 5.75 1.498 1.498 0 0 1-1.445 1.104zm791.045 8.16a1.5 1.5 0 0 1-1.453-1.133c-.49-1.933-.99-3.86-1.506-5.784a1.502 1.502 0 0 1 1.06-1.838 1.506 1.506 0 0 1 1.838 1.061c.52 1.937 1.026 3.88 1.516 5.827a1.499 1.499 0 0 1-1.455 1.867zM38.547 315.1a1.498 1.498 0 0 1-1.458-1.854c.475-1.952.963-3.899 1.465-5.84a1.499 1.499 0 1 1 2.904.75 442.53 442.53 0 0 0-1.455 5.8 1.5 1.5 0 0 1-1.456 1.144zm796.813 8.222a1.5 1.5 0 0 1-1.464-1.177 403.27 403.27 0 0 0-1.333-5.826 1.5 1.5 0 1 1 2.92-.69c.46 1.951.909 3.907 1.342 5.87a1.5 1.5 0 0 1-1.465 1.823zm-799.472 3.476a1.501 1.501 0 0 1-1.47-1.811c.417-1.965.848-3.925 1.292-5.88a1.5 1.5 0 1 1 2.926.665 390.836 390.836 0 0 0-1.282 5.838 1.5 1.5 0 0 1-1.466 1.188zm801.888 8.276a1.501 1.501 0 0 1-1.472-1.22 389.34 389.34 0 0 0-1.161-5.863 1.5 1.5 0 0 1 2.938-.604 382.93 382.93 0 0 1 1.17 5.907 1.502 1.502 0 0 1-1.475 1.78zm-804.201 3.497a1.499 1.499 0 0 1-1.477-1.768c.358-1.976.73-3.949 1.117-5.916a1.494 1.494 0 0 1 1.76-1.182 1.498 1.498 0 0 1 1.183 1.76 454.014 454.014 0 0 0-1.11 5.874 1.5 1.5 0 0 1-1.473 1.232zm806.27 8.321a1.501 1.501 0 0 1-1.48-1.262 381.087 381.087 0 0 0-.988-5.894 1.5 1.5 0 0 1 2.955-.52c.347 1.975.678 3.955.996 5.94a1.5 1.5 0 0 1-1.483 1.736zM31.61 350.408a1.5 1.5 0 0 1-1.486-1.724c.3-1.988.615-3.97.944-5.948a1.499 1.499 0 1 1 2.959.492 409.694 409.694 0 0 0-.936 5.903 1.5 1.5 0 0 1-1.481 1.277zm809.956 8.358a1.5 1.5 0 0 1-1.486-1.306 393.91 393.91 0 0 0-.814-5.92 1.5 1.5 0 1 1 2.969-.433c.288 1.984.56 3.973.82 5.966a1.501 1.501 0 0 1-1.49 1.693zm-811.575 3.53a1.502 1.502 0 0 1-1.491-1.681c.242-1.995.498-3.986.769-5.972a1.5 1.5 0 1 1 2.972.405 409.944 409.944 0 0 0-.762 5.928 1.502 1.502 0 0 1-1.488 1.32zm812.947 8.39a1.5 1.5 0 0 1-1.491-1.349c-.2-1.986-.413-3.967-.64-5.944a1.5 1.5 0 0 1 2.98-.344c.23 1.993.445 3.988.645 5.987a1.499 1.499 0 0 1-1.494 1.65zm-814.215 3.54a1.5 1.5 0 0 1-1.496-1.636c.183-2.002.382-4 .594-5.993a1.499 1.499 0 1 1 2.982.317c-.21 1.978-.406 3.961-.588 5.948a1.5 1.5 0 0 1-1.492 1.363zm815.238 8.413a1.5 1.5 0 0 1-1.494-1.393c-.142-1.99-.297-3.977-.466-5.959a1.498 1.498 0 0 1 1.366-1.622c.823-.085 1.552.542 1.622 1.366.17 1.998.329 3.998.47 6.002a1.498 1.498 0 0 1-1.498 1.606zm-816.158 3.55a1.5 1.5 0 0 1-1.498-1.593c.124-2.007.264-4.008.418-6.007.063-.828.798-1.47 1.61-1.38a1.5 1.5 0 0 1 1.38 1.61 404.746 404.746 0 0 0-.414 5.962 1.5 1.5 0 0 1-1.496 1.407zm816.833 8.43a1.5 1.5 0 0 1-1.498-1.439 407.019 407.019 0 0 0-.293-5.97 1.5 1.5 0 0 1 1.414-1.582c.83-.028 1.535.586 1.582 1.414.112 2.001.21 4.005.295 6.013a1.502 1.502 0 0 1-1.437 1.562l-.063.001zm-817.404 3.554h-.051a1.5 1.5 0 0 1-1.45-1.55c.067-2.009.148-4.015.244-6.016a1.482 1.482 0 0 1 1.569-1.427 1.5 1.5 0 0 1 1.427 1.57 420.772 420.772 0 0 0-.241 5.972 1.5 1.5 0 0 1-1.498 1.451zm817.733 8.438a1.5 1.5 0 0 1-1.5-1.48 408.774 408.774 0 0 0-.12-5.977 1.498 1.498 0 0 1 1.459-1.54h.042c.809 0 1.476.643 1.498 1.458.056 2.003.096 4.01.12 6.02a1.5 1.5 0 0 1-1.48 1.52h-.02zm-817.96 3.544h-.007a1.5 1.5 0 0 1-1.493-1.507 430.1 430.1 0 0 1 .069-6.018 1.501 1.501 0 0 1 1.5-1.472h.029a1.499 1.499 0 0 1 1.47 1.528c-.036 1.987-.06 3.98-.068 5.976a1.5 1.5 0 0 1-1.5 1.493zm817.942 8.454h-.023a1.501 1.501 0 0 1-1.477-1.523 410.2 410.2 0 0 0 .052-5.978 1.5 1.5 0 0 1 1.5-1.498H845a1.5 1.5 0 0 1 1.498 1.502c-.003 2.01-.02 4.018-.052 6.02a1.5 1.5 0 0 1-1.5 1.477zm-817.825 3.543a1.5 1.5 0 0 1-1.5-1.463 401.49 401.49 0 0 1-.101-6.02 1.5 1.5 0 0 1 1.485-1.515h.015a1.5 1.5 0 0 1 1.5 1.485c.019 1.995.053 3.988.102 5.976a1.5 1.5 0 0 1-1.463 1.537h-.038zm817.464 8.44h-.067a1.502 1.502 0 0 1-1.433-1.566c.089-1.988.164-3.979.225-5.974a1.499 1.499 0 1 1 2.998.09c-.061 2.01-.136 4.015-.225 6.017a1.5 1.5 0 0 1-1.498 1.433zm-816.998 3.55a1.5 1.5 0 0 1-1.497-1.42 427.728 427.728 0 0 1-.277-6.015 1.5 1.5 0 0 1 1.44-1.558 1.483 1.483 0 0 1 1.558 1.44c.078 1.995.169 3.985.275 5.972a1.5 1.5 0 0 1-1.5 1.58zm816.289 8.427a1.502 1.502 0 0 1-1.498-1.61c.148-1.985.279-3.972.398-5.965a1.483 1.483 0 0 1 1.586-1.408 1.499 1.499 0 0 1 1.408 1.586 396.567 396.567 0 0 1-.4 6.007 1.5 1.5 0 0 1-1.494 1.39zM28.4 446.111a1.5 1.5 0 0 1-1.494-1.377 423.692 423.692 0 0 1-.451-6.004 1.5 1.5 0 0 1 2.993-.203c.135 1.991.285 3.978.449 5.961a1.5 1.5 0 0 1-1.497 1.623zm814.417 8.41a1.5 1.5 0 0 1-1.495-1.654c.205-1.98.396-3.963.57-5.95a1.5 1.5 0 1 1 2.988.263c-.176 2.003-.367 4-.573 5.994a1.5 1.5 0 0 1-1.49 1.346zm-813.255 3.531a1.5 1.5 0 0 1-1.49-1.333 419.775 419.775 0 0 1-.626-5.988 1.5 1.5 0 0 1 2.986-.29c.193 1.985.4 3.967.622 5.944a1.499 1.499 0 0 1-1.492 1.667zm811.848 8.383a1.502 1.502 0 0 1-1.489-1.698c.264-1.972.512-3.949.746-5.93.097-.823.835-1.427 1.666-1.313a1.5 1.5 0 0 1 1.313 1.665 432.946 432.946 0 0 1-.75 5.974 1.501 1.501 0 0 1-1.486 1.302zm-810.34 3.52a1.5 1.5 0 0 1-1.482-1.289 419.45 419.45 0 0 1-.802-5.968 1.502 1.502 0 0 1 1.3-1.677 1.51 1.51 0 0 1 1.677 1.3c.25 1.978.517 3.953.796 5.923a1.5 1.5 0 0 1-1.488 1.711zm808.584 8.348a1.5 1.5 0 0 1-1.482-1.741c.32-1.965.627-3.932.918-5.907.12-.82.89-1.382 1.704-1.265a1.5 1.5 0 0 1 1.264 1.704 413.994 413.994 0 0 1-.925 5.951 1.5 1.5 0 0 1-1.48 1.258zm-806.722 3.505a1.5 1.5 0 0 1-1.477-1.245c-.34-1.976-.665-3.957-.976-5.942a1.498 1.498 0 0 1 1.249-1.714 1.496 1.496 0 0 1 1.714 1.25c.309 1.97.632 3.935.97 5.896a1.5 1.5 0 0 1-1.48 1.755zm804.617 8.308a1.501 1.501 0 0 1-1.475-1.784c.377-1.954.742-3.913 1.092-5.878a1.499 1.499 0 1 1 2.953.527 409.003 409.003 0 0 1-1.1 5.92 1.5 1.5 0 0 1-1.47 1.215zM35.139 493.6a1.502 1.502 0 0 1-1.47-1.203 437.46 437.46 0 0 1-1.15-5.91 1.5 1.5 0 1 1 2.95-.55c.366 1.96.748 3.915 1.143 5.866a1.501 1.501 0 0 1-1.473 1.797zm799.959 8.26a1.502 1.502 0 0 1-1.465-1.828c.435-1.942.856-3.889 1.264-5.842a1.5 1.5 0 0 1 2.937.613 439.022 439.022 0 0 1-1.273 5.885 1.501 1.501 0 0 1-1.463 1.172zm-797.403 3.464a1.5 1.5 0 0 1-1.46-1.159 406.51 406.51 0 0 1-1.326-5.874 1.5 1.5 0 0 1 2.932-.639c.424 1.95.863 3.893 1.315 5.831a1.5 1.5 0 0 1-1.461 1.841zm794.606 8.203a1.499 1.499 0 0 1-1.454-1.871c.492-1.929.97-3.863 1.437-5.803a1.499 1.499 0 1 1 2.916.701 405.13 405.13 0 0 1-1.447 5.844 1.5 1.5 0 0 1-1.452 1.13zm-791.707 3.438a1.5 1.5 0 0 1-1.45-1.116 392.098 392.098 0 0 1-1.498-5.832 1.501 1.501 0 0 1 2.912-.724c.48 1.935.977 3.864 1.487 5.79a1.5 1.5 0 0 1-1.451 1.882zm3.24 11.552a1.5 1.5 0 0 1-1.436-1.074 420.708 420.708 0 0 1-1.67-5.784 1.5 1.5 0 1 1 2.889-.81 410.69 410.69 0 0 0 1.658 5.742 1.501 1.501 0 0 1-1.44 1.926zm3.592 11.475c-.63 0-1.217-.4-1.425-1.03a389.676 389.676 0 0 1-1.847-5.758 1.499 1.499 0 1 1 2.863-.895c.597 1.91 1.208 3.816 1.834 5.713a1.502 1.502 0 0 1-1.425 1.97zm738.677 83.57a1.498 1.498 0 0 1-1.282-2.278 404.226 404.226 0 0 0 3.05-5.123 1.503 1.503 0 0 1 2.053-.535c.715.42.955 1.338.536 2.051a417.61 417.61 0 0 1-3.073 5.162 1.501 1.501 0 0 1-1.284.722zM94.49 637.14c-.486 0-.963-.236-1.252-.674a400.844 400.844 0 0 1-3.287-5.054 1.501 1.501 0 1 1 2.528-1.616 421.963 421.963 0 0 0 3.262 5.018 1.501 1.501 0 0 1-1.251 2.326zm678.615 6.532a1.5 1.5 0 0 1-1.235-2.351 403.602 403.602 0 0 0 3.348-4.939 1.504 1.504 0 0 1 2.08-.416c.69.46.876 1.392.416 2.082a421.296 421.296 0 0 1-3.373 4.974c-.291.423-.76.65-1.236.65zm-671.848 3.392c-.472 0-.935-.222-1.227-.637a383.141 383.141 0 0 1-3.433-4.956 1.5 1.5 0 1 1 2.478-1.689 422.25 422.25 0 0 0 3.408 4.92 1.5 1.5 0 0 1-1.226 2.362zm664.91 6.374a1.502 1.502 0 0 1-1.209-2.387 406.735 406.735 0 0 0 3.492-4.839 1.502 1.502 0 0 1 2.092-.354c.675.481.833 1.416.354 2.092a412.81 412.81 0 0 1-3.518 4.875 1.5 1.5 0 0 1-1.211.613zm-657.856 3.347c-.456 0-.907-.208-1.202-.602a414.702 414.702 0 0 1-3.576-4.85 1.5 1.5 0 0 1 2.428-1.763 408.723 408.723 0 0 0 3.55 4.816 1.501 1.501 0 0 1-1.2 2.4zM758.948 663a1.49 1.49 0 0 1-.92-.317 1.498 1.498 0 0 1-.262-2.104 450.206 450.206 0 0 0 3.633-4.739 1.5 1.5 0 0 1 2.393 1.809 415.36 415.36 0 0 1-3.66 4.772 1.5 1.5 0 0 1-1.184.58zm-643.305 3.294a1.5 1.5 0 0 1-1.176-.568 416.733 416.733 0 0 1-3.714-4.744 1.498 1.498 0 0 1 .272-2.103 1.498 1.498 0 0 1 2.103.271 417.432 417.432 0 0 0 3.689 4.711 1.5 1.5 0 0 1-1.174 2.433zm635.806 6.055a1.501 1.501 0 0 1-1.155-2.455 418.167 418.167 0 0 0 3.77-4.63 1.498 1.498 0 0 1 2.108-.232c.647.518.75 1.462.232 2.108a395.782 395.782 0 0 1-3.797 4.664c-.297.36-.726.545-1.158.545zm-628.2 3.232c-.427 0-.851-.182-1.147-.533a433.402 433.402 0 0 1-3.851-4.633 1.5 1.5 0 0 1 2.32-1.9 419.542 419.542 0 0 0 3.824 4.6 1.498 1.498 0 0 1-1.146 2.466zm620.43 5.897a1.5 1.5 0 0 1-1.127-2.488 410.721 410.721 0 0 0 3.905-4.522 1.5 1.5 0 1 1 2.285 1.946 415.092 415.092 0 0 1-3.933 4.553 1.497 1.497 0 0 1-1.13.511zm-612.558 3.162c-.412 0-.823-.169-1.12-.5a435.532 435.532 0 0 1-3.981-4.516 1.5 1.5 0 0 1 2.263-1.969c1.309 1.505 2.627 3 3.956 4.485a1.5 1.5 0 0 1-1.118 2.5zm604.526 5.74a1.5 1.5 0 0 1-1.099-2.522c1.356-1.459 2.7-2.928 4.035-4.406a1.5 1.5 0 1 1 2.227 2.01 416.407 416.407 0 0 1-4.065 4.438 1.497 1.497 0 0 1-1.098.48zm-596.396 3.084c-.396 0-.793-.157-1.088-.468a417.476 417.476 0 0 1-4.113-4.398 1.5 1.5 0 0 1 2.206-2.033 411.416 411.416 0 0 0 4.083 4.366 1.499 1.499 0 0 1-1.088 2.533zm588.103 5.581a1.5 1.5 0 0 1-1.069-2.553 399.815 399.815 0 0 0 4.162-4.286 1.5 1.5 0 1 1 2.167 2.074 396.872 396.872 0 0 1-4.192 4.317 1.496 1.496 0 0 1-1.068.448zm-579.72 3.001c-.383 0-.765-.146-1.058-.437a416.786 416.786 0 0 1-4.238-4.276 1.5 1.5 0 1 1 2.147-2.096 410.648 410.648 0 0 0 4.207 4.245 1.5 1.5 0 0 1-1.058 2.564zm571.177 5.42a1.5 1.5 0 0 1-1.037-2.583 410.376 410.376 0 0 0 4.287-4.166 1.5 1.5 0 0 1 2.105 2.137 407.118 407.118 0 0 1-4.318 4.195c-.29.278-.664.416-1.037.416zm-562.55 2.91c-.368 0-.736-.135-1.026-.407a406.13 406.13 0 0 1-4.36-4.148 1.5 1.5 0 0 1 2.084-2.158 400.325 400.325 0 0 0 4.328 4.12 1.5 1.5 0 0 1-1.026 2.593zm553.765 5.26a1.499 1.499 0 0 1-1.006-2.614 410.932 410.932 0 0 0 4.408-4.039 1.5 1.5 0 1 1 2.043 2.197 426.931 426.931 0 0 1-4.44 4.07 1.5 1.5 0 0 1-1.005.385zm-544.902 2.815c-.352 0-.708-.124-.993-.377a425.943 425.943 0 0 1-4.476-4.019 1.5 1.5 0 1 1 2.019-2.218 442.093 442.093 0 0 0 4.445 3.991 1.5 1.5 0 0 1-.995 2.623zm535.878 5.098a1.5 1.5 0 0 1-.973-2.643 409.722 409.722 0 0 0 4.523-3.908 1.499 1.499 0 1 1 1.978 2.254 398.036 398.036 0 0 1-4.556 3.94c-.282.24-.628.357-.972.357zm-526.782 2.713c-.34 0-.68-.114-.96-.347a404.661 404.661 0 0 1-4.593-3.887 1.5 1.5 0 0 1 1.955-2.275c1.51 1.296 3.03 2.583 4.559 3.857a1.498 1.498 0 0 1-.961 2.652zm517.53 4.934a1.499 1.499 0 0 1-.939-2.67c1.554-1.247 3.1-2.507 4.636-3.776a1.5 1.5 0 1 1 1.913 2.312 425.66 425.66 0 0 1-4.672 3.804 1.49 1.49 0 0 1-.938.33zm-508.215 2.607a1.49 1.49 0 0 1-.925-.32 396.049 396.049 0 0 1-4.703-3.75 1.498 1.498 0 0 1-.222-2.109 1.498 1.498 0 0 1 2.109-.223 427.592 427.592 0 0 0 4.669 3.723 1.5 1.5 0 0 1-.928 2.68zm498.742 4.77a1.5 1.5 0 0 1-.905-2.697 389.615 389.615 0 0 0 4.746-3.64 1.5 1.5 0 0 1 1.844 2.367 395.604 395.604 0 0 1-4.783 3.666 1.496 1.496 0 0 1-.902.303zm-489.212 2.494c-.311 0-.622-.096-.891-.294a412.69 412.69 0 0 1-4.81-3.609 1.5 1.5 0 0 1 1.82-2.387c1.582 1.206 3.173 2.4 4.773 3.584a1.5 1.5 0 0 1-.892 2.706zm479.523 4.602a1.5 1.5 0 0 1-.87-2.723 410.773 410.773 0 0 0 4.853-3.5 1.5 1.5 0 0 1 1.773 2.42 411.719 411.719 0 0 1-4.888 3.525 1.488 1.488 0 0 1-.868.278zm-469.79 2.38a1.49 1.49 0 0 1-.855-.27 401.705 401.705 0 0 1-4.911-3.467 1.5 1.5 0 1 1 1.749-2.437 418.602 418.602 0 0 0 4.875 3.441 1.502 1.502 0 0 1-.858 2.732zm459.898 4.431a1.5 1.5 0 0 1-.833-2.748 410.07 410.07 0 0 0 4.954-3.357 1.5 1.5 0 0 1 1.701 2.47 400.842 400.842 0 0 1-4.991 3.383 1.49 1.49 0 0 1-.831.252zm-449.967 2.261a1.5 1.5 0 0 1-.82-.244 398.233 398.233 0 0 1-5.007-3.322 1.5 1.5 0 1 1 1.677-2.488 392.3 392.3 0 0 0 4.97 3.298 1.499 1.499 0 0 1-.82 2.756zm439.874 4.261a1.501 1.501 0 0 1-.797-2.772 395.35 395.35 0 0 0 5.052-3.212 1.5 1.5 0 0 1 1.629 2.52 415.893 415.893 0 0 1-5.09 3.235 1.495 1.495 0 0 1-.794.23zm-429.751 2.136c-.268 0-.537-.07-.782-.22a422.006 422.006 0 0 1-5.102-3.172 1.501 1.501 0 0 1 1.602-2.537 416.098 416.098 0 0 0 5.066 3.15 1.5 1.5 0 0 1-.784 2.78zm419.47 4.086a1.498 1.498 0 0 1-.758-2.794 414.75 414.75 0 0 0 5.144-3.063 1.501 1.501 0 0 1 1.555 2.566 390.845 390.845 0 0 1-5.184 3.085c-.238.14-.5.206-.757.206zm-409.171 2.01c-.253 0-.51-.063-.745-.198a405.424 405.424 0 0 1-5.19-3.022 1.499 1.499 0 1 1 1.527-2.582 393.084 393.084 0 0 0 5.154 3 1.5 1.5 0 0 1-.746 2.802zm398.708 3.91a1.5 1.5 0 0 1-.721-2.816 392.026 392.026 0 0 0 5.234-2.91 1.501 1.501 0 0 1 1.479 2.61 404.588 404.588 0 0 1-5.275 2.933 1.482 1.482 0 0 1-.717.183zm-388.238 1.88c-.238 0-.48-.058-.705-.178a377.47 377.47 0 0 1-5.276-2.867 1.5 1.5 0 1 1 1.45-2.625c1.739.961 3.484 1.91 5.238 2.846a1.5 1.5 0 0 1-.707 2.823zm377.603 3.73a1.501 1.501 0 0 1-.681-2.837 438.48 438.48 0 0 0 5.32-2.756 1.501 1.501 0 0 1 1.398 2.654 404.62 404.62 0 0 1-5.357 2.775 1.487 1.487 0 0 1-.68.164zm-366.97 1.75c-.224 0-.452-.05-.666-.158a389.2 389.2 0 0 1-5.356-2.71 1.498 1.498 0 0 1-.646-2.02 1.502 1.502 0 0 1 2.02-.647 383.25 383.25 0 0 0 5.316 2.69 1.5 1.5 0 0 1-.668 2.844zm356.17 3.545a1.5 1.5 0 0 1-.642-2.856 399.623 399.623 0 0 0 5.402-2.599 1.5 1.5 0 0 1 1.32 2.694 399.526 399.526 0 0 1-5.44 2.618 1.49 1.49 0 0 1-.64.143zm-345.385 1.617c-.21 0-.423-.044-.627-.138a394.837 394.837 0 0 1-5.43-2.552 1.5 1.5 0 1 1 1.295-2.705c1.79.857 3.587 1.701 5.39 2.532a1.502 1.502 0 0 1 .736 1.991 1.502 1.502 0 0 1-1.364.872zm334.43 3.36a1.501 1.501 0 0 1-.601-2.875c1.833-.8 3.659-1.612 5.477-2.437a1.495 1.495 0 0 1 1.985.745c.343.754.01 1.643-.745 1.985a405.78 405.78 0 0 1-5.516 2.457 1.5 1.5 0 0 1-.6.125zm-323.503 1.481c-.195 0-.394-.039-.586-.12-1.84-.783-3.674-1.58-5.501-2.389a1.5 1.5 0 1 1 1.215-2.742 406.86 406.86 0 0 0 5.46 2.37 1.5 1.5 0 0 1-.588 2.881zm312.404 3.17a1.5 1.5 0 0 1-.56-2.892 405.666 405.666 0 0 0 5.547-2.277 1.499 1.499 0 1 1 1.16 2.766 406.593 406.593 0 0 1-5.588 2.294 1.493 1.493 0 0 1-.56.108zm-301.316 1.357c-.183 0-.367-.033-.547-.104a396.953 396.953 0 0 1-5.592-2.235 1.5 1.5 0 0 1 1.135-2.777c1.844.753 3.694 1.492 5.55 2.22a1.5 1.5 0 0 1-.546 2.896zm290.078 2.964a1.5 1.5 0 0 1-.518-2.908c1.878-.69 3.75-1.394 5.615-2.112a1.501 1.501 0 0 1 1.076 2.801 426.044 426.044 0 0 1-5.655 2.127 1.518 1.518 0 0 1-.518.092zm-278.841 1.24c-.168 0-.338-.028-.505-.088a423.456 423.456 0 0 1-5.655-2.068 1.501 1.501 0 0 1 1.05-2.81 431.72 431.72 0 0 0 5.615 2.054 1.498 1.498 0 0 1 .907 1.917 1.499 1.499 0 0 1-1.412.995zm267.477 2.748a1.5 1.5 0 0 1-.476-2.923c1.899-.634 3.79-1.282 5.677-1.944a1.5 1.5 0 0 1 .994 2.83c-1.9.668-3.808 1.32-5.72 1.96a1.49 1.49 0 0 1-.475.077zm-256.121 1.124c-.154 0-.31-.023-.464-.073a419.86 419.86 0 0 1-5.712-1.902 1.5 1.5 0 1 1 .967-2.839 418.67 418.67 0 0 0 5.673 1.887 1.5 1.5 0 0 1-.464 2.927zm244.637 2.526a1.5 1.5 0 0 1-.431-2.936 372.813 372.813 0 0 0 5.733-1.776 1.502 1.502 0 0 1 .91 2.86c-1.921.61-3.845 1.206-5.778 1.79a1.52 1.52 0 0 1-.434.062zm-233.17 1.008c-.14 0-.281-.019-.421-.059a408.608 408.608 0 0 1-5.77-1.732 1.5 1.5 0 0 1 .886-2.867 377.67 377.67 0 0 0 5.723 1.718 1.5 1.5 0 0 1-.418 2.94zm221.634 2.286a1.5 1.5 0 0 1-.39-2.948 415.169 415.169 0 0 0 5.76-1.599 1.503 1.503 0 0 1 1.855 1.032 1.498 1.498 0 0 1-1.031 1.853c-1.93.55-3.863 1.087-5.802 1.611a1.513 1.513 0 0 1-.392.051zm-210.07.91c-.124 0-.251-.017-.378-.05a397.454 397.454 0 0 1-5.816-1.56 1.498 1.498 0 1 1 .798-2.89 426.01 426.01 0 0 0 5.774 1.547 1.499 1.499 0 0 1-.377 2.952zm198.44 2.042a1.5 1.5 0 0 1-.346-2.958c1.94-.462 3.874-.939 5.803-1.429a1.5 1.5 0 0 1 .739 2.908c-1.944.494-3.893.973-5.847 1.438a1.446 1.446 0 0 1-.35.041zm-186.785.806a1.49 1.49 0 0 1-.335-.038 381 381 0 0 1-5.86-1.387 1.5 1.5 0 1 1 .713-2.914c1.932.473 3.872.932 5.816 1.377a1.5 1.5 0 0 1-.334 2.962zm175.073 1.801a1.5 1.5 0 0 1-.302-2.969c1.953-.404 3.9-.823 5.843-1.256a1.5 1.5 0 1 1 .653 2.928c-1.957.437-3.92.858-5.887 1.266a1.523 1.523 0 0 1-.307.031zm-163.338.704a1.53 1.53 0 0 1-.293-.028 407.887 407.887 0 0 1-5.9-1.214 1.5 1.5 0 0 1-1.152-1.78 1.506 1.506 0 0 1 1.78-1.154c1.945.415 3.898.818 5.854 1.204a1.502 1.502 0 0 1-.29 2.972zm151.556 1.558a1.5 1.5 0 0 1-.26-2.978c1.965-.347 3.925-.708 5.879-1.083a1.507 1.507 0 0 1 1.755 1.192 1.497 1.497 0 0 1-1.19 1.754c-1.968.378-3.942.742-5.921 1.092a1.468 1.468 0 0 1-.263.023zm-139.754.601a1.64 1.64 0 0 1-.25-.02 407.47 407.47 0 0 1-5.93-1.04 1.5 1.5 0 0 1-1.206-1.745 1.499 1.499 0 0 1 1.745-1.207c1.958.36 3.92.703 5.887 1.033a1.499 1.499 0 0 1-.246 2.98zm127.91 1.311a1.5 1.5 0 0 1-.216-2.985 407.96 407.96 0 0 0 5.908-.909 1.491 1.491 0 0 1 1.72 1.241 1.5 1.5 0 0 1-1.242 1.72 398.5 398.5 0 0 1-5.952.917 1.464 1.464 0 0 1-.218.016zm-116.05.5a1.6 1.6 0 0 1-.207-.015 400.93 400.93 0 0 1-5.958-.866 1.498 1.498 0 0 1-1.256-1.709 1.497 1.497 0 0 1 1.709-1.256c1.968.3 3.938.586 5.915.858a1.5 1.5 0 0 1-.203 2.987zm104.153 1.064a1.5 1.5 0 0 1-.172-2.99 412.19 412.19 0 0 0 5.932-.736 1.499 1.499 0 1 1 .391 2.974c-1.987.262-3.978.51-5.975.742-.06.007-.117.01-.176.01zm-92.246.395a1.48 1.48 0 0 1-.162-.009 408.183 408.183 0 0 1-5.982-.689 1.5 1.5 0 0 1-1.306-1.67 1.505 1.505 0 0 1 1.672-1.308c1.974.243 3.954.472 5.936.685a1.5 1.5 0 0 1-.158 2.991zm80.31.82a1.5 1.5 0 0 1-.127-2.994 403.2 403.2 0 0 0 5.95-.563 1.5 1.5 0 1 1 .304 2.985c-1.994.203-3.992.392-5.995.566a1.457 1.457 0 0 1-.132.006zm-68.363.294c-.04 0-.08 0-.12-.005a382.907 382.907 0 0 1-6-.515 1.498 1.498 0 0 1-1.352-1.632 1.484 1.484 0 0 1 1.632-1.354c1.98.185 3.965.355 5.955.511a1.498 1.498 0 0 1 1.378 1.612 1.499 1.499 0 0 1-1.493 1.383zm56.398.573a1.5 1.5 0 0 1-.085-2.997c1.99-.115 3.978-.245 5.964-.388a1.5 1.5 0 0 1 .216 2.992 397.589 397.589 0 0 1-6.095.393zm-44.425.191c-.025 0-.05 0-.075-.002a427.182 427.182 0 0 1-6.012-.34 1.5 1.5 0 0 1 .19-2.994c1.987.127 3.977.24 5.97.338a1.5 1.5 0 0 1-.073 2.998zm32.438.328a1.5 1.5 0 0 1-.042-2.999 422.43 422.43 0 0 0 5.974-.216c.826-.06 1.527.607 1.563 1.435a1.5 1.5 0 0 1-1.434 1.563c-2.002.086-4.007.158-6.017.216l-.044.001zm-20.46.086h-.031a426.845 426.845 0 0 1-6.005-.165 1.5 1.5 0 0 1-1.447-1.55c.028-.829.702-1.519 1.55-1.448 1.985.07 3.97.123 5.963.163a1.5 1.5 0 0 1-.03 3zM436 821c-.83 0-1.655-.003-2.48-.008a1.5 1.5 0 0 1 .009-3h.008c2.81.015 5.63.005 8.44-.035H442a1.5 1.5 0 0 1 .022 3c-2.003.028-4.011.043-6.021.043z" fill="#A3B1BF" opacity=".396"/><path d="M338 73c-17.949 0-32.5 14.551-32.5 32.5 0 17.949 14.551 32.5 32.5 32.5 17.949 0 32.5-14.551 32.5-32.5 0-17.949-14.551-32.5-32.5-32.5m0 3c16.267 0 29.5 13.233 29.5 29.5S354.267 135 338 135s-29.5-13.233-29.5-29.5S321.733 76 338 76" fill="#A3B1BF"/><path d="M338 126.5c11.598 0 21-9.402 21-21s-9.402-21-21-21-21 9.402-21 21 9.402 21 21 21" fill="#A0C8FF" fill-rule="nonzero" opacity=".151"/><path d="m320.005 79.898-2.576 2.061c-10.393-3.248-18.093-3.492-20.132.041-3.59 6.217 11.724 21.78 34.203 34.757 22.48 12.98 43.613 18.46 47.203 12.243 2.096-3.63-2.25-10.444-10.703-18.069v-3.7c10.636 9.421 16.139 18.354 13.302 23.27-4.418 7.651-27.387 2.662-51.302-11.145-23.914-13.808-39.72-31.204-35.301-38.856 2.732-4.732 12.553-4.63 25.306-.602" fill="#A3B1BF"/><path d="m306.831 108.284.496 3.261c-8.009 7.376-12.069 13.923-10.03 17.455 3.59 6.218 24.723.737 47.203-12.242 22.48-12.979 37.793-28.54 34.203-34.758-2.095-3.63-10.169-3.273-20.999.235l-3.204-1.85c13.476-4.5 23.964-4.8 26.802.115 4.418 7.652-11.387 25.05-35.302 38.856-23.914 13.807-46.883 18.796-51.3 11.144-2.732-4.732 2.266-13.187 12.131-22.216" fill="#A3B1BF"/><path d="M648.315 403.357h24.082c.445 0 .883-.033 1.318-.067v-28.003l-25.4 28.07zm-427.367 55.939v-3h-57.663c1.415 7.753 8.176 13.633 16.318 13.633h41.345v-10.633zm104.926 43.919h-20.467c-9.17 0-16.603-7.452-16.603-16.644 0-9.191 7.433-16.642 16.603-16.642h38.777a109.445 109.445 0 0 1-15.872-34.393 16.504 16.504 0 0 1-5.915 1.107h-52.824a11.438 11.438 0 0 1 3.427 8.166c0 6.334-5.165 11.487-11.513 11.487H249.35v24.033a14.12 14.12 0 0 1-.671 4.296 16.9 16.9 0 0 1 .122 1.946c0 9.192-7.434 16.644-16.603 16.644h-18.563c-9.169 0-16.603 7.45-16.603 16.643 0 9.19 7.434 16.642 16.603 16.642h112.239c9.17 0 16.604-7.451 16.604-16.642 0-9.192-7.434-16.643-16.604-16.643m-23.416-99.858h19.939c.797 0 1.577.075 2.344.185a109.622 109.622 0 0 1 6.418-33.47h-28.701c-9.17 0-16.604 7.45-16.604 16.642s7.434 16.643 16.604 16.643m321.283-66.572h14.223c9.17 0 16.603-7.45 16.603-16.643 0-9.19-7.433-16.642-16.603-16.642h-167.03c18.8 6.563 35.271 18.085 47.851 33h35.987c8.963 0 16.228 7.835 16.228 17.5s-7.265 17.5-16.228 17.5h-16.094a109.72 109.72 0 0 1 5.91 31.857h64.665l30.12-33.286H623.74c-9.169 0-16.603-7.45-16.603-16.642s7.434-16.644 16.603-16.644" fill="#ACC0DC" fill-rule="nonzero" opacity=".196"/><path d="M434.667 297.373c-60.751 0-110 49.249-110 110s49.249 110 110 110 110-49.249 110-110-49.249-110-110-110m0 3c28.581 0 55.451 11.13 75.66 31.34 20.21 20.209 31.34 47.079 31.34 75.66 0 28.581-11.13 55.451-31.34 75.66-20.209 20.21-47.08 31.34-75.66 31.34s-55.451-11.13-75.66-31.34c-20.21-20.209-31.34-47.079-31.34-75.66 0-28.581 11.13-55.451 31.34-75.66 20.209-20.21 47.079-31.34 75.66-31.34" fill="#A3B1BF"/><path d="M434.667 316.373c24.307 0 47.159 9.466 64.347 26.653 17.187 17.188 26.653 40.04 26.653 64.347 0 24.307-9.466 47.159-26.653 64.347-17.188 17.187-40.04 26.653-64.347 26.653-24.307 0-47.159-9.466-64.347-26.653-17.187-17.188-26.653-40.04-26.653-64.347 0-24.307 9.466-47.159 26.653-64.347 17.188-17.187 40.04-26.653 64.347-26.653" fill="#A0C8FF" fill-rule="nonzero" opacity=".151"/><path d="M339.98 495.693c-19.45 0-30.518-3.472-33.6-10.465-3.745-8.496 4.421-21.266 24.964-39.043a1.497 1.497 0 0 1 2.115.153 1.498 1.498 0 0 1-.151 2.115c-13.163 11.39-28.043 26.806-24.183 35.565 4.805 10.898 36.925 9.526 63.026 6.458 39.051-4.593 87.469-21.4 129.517-44.96 39.053-21.882 64.74-45.214 65.44-59.44.317-6.439-4.764-10.85-15.102-13.112a1.5 1.5 0 1 1 .64-2.93c14.928 3.265 17.733 10.605 17.459 16.188-.762 15.47-26.423 39.193-66.97 61.911-42.376 23.744-91.212 40.686-130.635 45.322-12.668 1.49-23.498 2.238-32.52 2.238M405.5 341.5c-11.321 0-20.5 9.178-20.5 20.5s9.179 20.5 20.5 20.5c11.322 0 20.5-9.178 20.5-20.5s-9.178-20.5-20.5-20.5m0 3c9.649 0 17.5 7.851 17.5 17.5 0 9.649-7.851 17.5-17.5 17.5-9.649 0-17.5-7.851-17.5-17.5 0-9.649 7.851-17.5 17.5-17.5m-1.116 52.38c-7.314 0-14.128-2.411-20.303-7.194a1.5 1.5 0 0 1 1.838-2.371c6.589 5.103 13.96 7.248 21.917 6.373a1.494 1.494 0 0 1 1.655 1.327 1.5 1.5 0 0 1-1.327 1.655c-1.274.14-2.534.21-3.78.21m23.617-6.88a1.498 1.498 0 0 1-.697-2.828c10.777-5.651 14.612-15.861 11.722-31.218a1.499 1.499 0 0 1 1.197-1.751 1.493 1.493 0 0 1 1.751 1.196c3.123 16.59-1.345 28.174-13.278 34.429-.221.117-.46.172-.695.172" fill="#A3B1BF"/><path d="M457.5 413.5a8.5 8.5 0 1 0 .001 17.001 8.5 8.5 0 0 0-.001-17.001m0 3c3.033 0 5.5 2.467 5.5 5.5s-2.467 5.5-5.5 5.5a5.506 5.506 0 0 1-5.5-5.5c0-3.033 2.468-5.5 5.5-5.5m-.083 21.5c-3.366 0-6.5-1.111-9.337-3.315a1.5 1.5 0 0 1 1.84-2.37c2.724 2.115 5.637 2.968 8.915 2.605a1.502 1.502 0 0 1 1.656 1.326 1.5 1.5 0 0 1-1.326 1.656c-.589.065-1.172.098-1.748.098m9.584-3a1.499 1.499 0 0 1-.673-2.841c4.42-2.214 5.984-6.26 4.78-12.369a1.501 1.501 0 0 1 2.944-.58c1.479 7.511-.667 12.769-6.38 15.631a1.496 1.496 0 0 1-.671.159M495 354a9 9 0 1 0 0 18 9 9 0 0 0 0-18m0 3c3.309 0 6 2.691 6 6s-2.691 6-6 6c-3.308 0-6-2.691-6-6s2.692-6 6-6m22 38.5a3 3 0 1 0 0-6 3 3 0 0 0 0 6m-129 29c-6.627 0-12 5.373-12 12s5.373 12 12 12c6.628 0 12-5.373 12-12s-5.372-12-12-12m0 3c4.963 0 9 4.037 9 9s-4.037 9-9 9c-4.962 0-9-4.037-9-9s4.038-9 9-9" fill="#A3B1BF"/><path d="M376 452.5c3.923 3.125 8.256 4.419 13 3.882" stroke="#A3B1BF" stroke-width="3" stroke-linecap="round"/><path d="M565.5 254c5.523 0 10-4.478 10-10s-4.477-10-10-10c-5.522 0-10 4.478-10 10s4.478 10 10 10" fill="#A0C8FF" fill-rule="nonzero" opacity=".151"/><path d="M565.5 254c-5.522 0-10-4.477-10-10s4.478-10 10-10c5.523 0 10 4.477 10 10s-4.477 10-10 10m0-23c-7.18 0-13 5.82-13 13s5.82 13 13 13c7.181 0 13-5.82 13-13s-5.819-13-13-13" fill="#A3B1BF"/><path d="M302.4 301.366c5.522 0 10-4.478 10-10 0-5.523-4.478-10-10-10s-10 4.477-10 10c0 5.522 4.478 10 10 10" fill="#A0C8FF" fill-rule="nonzero" opacity=".151"/><path d="M302.4 301.366c-5.522 0-10-4.478-10-10 0-5.523 4.478-10 10-10s10 4.477 10 10c0 5.522-4.478 10-10 10m0-23c-7.18 0-13 5.82-13 13s5.82 13 13 13 13-5.82 13-13-5.82-13-13-13" fill="#A3B1BF"/><path d="M84.5 700.454a6.454 6.454 0 1 0 0-12.909 6.454 6.454 0 0 0 0 12.91" fill="#A0C8FF" fill-rule="nonzero" opacity=".151"/><path d="M84.5 705.454c-6.326 0-11.454-5.128-11.454-11.454 0-6.326 5.128-11.454 11.454-11.454 6.326 0 11.455 5.128 11.455 11.454 0 6.326-5.129 11.454-11.455 11.454m0-26.454c-8.284 0-15 6.716-15 15 0 8.284 6.716 15 15 15 8.284 0 15-6.716 15-15 0-8.284-6.716-15-15-15M562 570.5a5 5 0 0 0 5-5 5 5 0 1 0-10 0 5 5 0 0 0 5 5m-512-215a5 5 0 0 0 5-5 5 5 0 1 0-10 0 5 5 0 0 0 5 5m735-21a5 5 0 0 0 5-5 5 5 0 1 0-10 0 5 5 0 0 0 5 5m-350 172a5 5 0 0 0 5-5 5 5 0 1 0-10 0 5 5 0 0 0 5 5m-76-251a5 5 0 0 0 5-5 5 5 0 1 0-10 0 5 5 0 0 0 5 5m417 460a5 5 0 0 0 5-5 5 5 0 1 0-10 0 5 5 0 0 0 5 5M46 554c-23.435 0-42.5 19.065-42.5 42.5S22.565 639 46 639s42.5-19.065 42.5-42.5S69.435 554 46 554m0 88.5c-25.364 0-46-20.636-46-46s20.636-46 46-46 46 20.636 46 46-20.636 46-46 46" fill="#A3B1BF"/><path d="M46 633.5c20.435 0 37-16.565 37-37s-16.565-37-37-37-37 16.565-37 37 16.565 37 37 37" fill="#A0C8FF" fill-rule="nonzero" opacity=".151"/><path d="M8.5 575.5h44a1.5 1.5 0 1 0 0-3h-44a1.5 1.5 0 0 0 0 3m79 8h-26a1.5 1.5 0 0 0 0 3h26a1.5 1.5 0 1 0 0-3M54 585a1.5 1.5 0 0 0-1.5-1.5h-12a1.5 1.5 0 0 0 0 3h12A1.5 1.5 0 0 0 54 585m-18.5 13.5a1.5 1.5 0 0 0 0 3h12a1.5 1.5 0 1 0 0-3h-12zm27 20h-12a1.5 1.5 0 0 0 0 3h12a1.5 1.5 0 1 0 0-3m21 0h-12a1.5 1.5 0 0 0 0 3h12a1.5 1.5 0 1 0 0-3M28 600a1.5 1.5 0 0 0-1.5-1.5h-23a1.5 1.5 0 0 0 0 3h23A1.5 1.5 0 0 0 28 600m35.5 9.5h-57a1.5 1.5 0 0 0 0 3h57a1.5 1.5 0 1 0 0-3m104.5-179 50-55v55h-50zm67.148-109-1.104.002c-3.964 0-7.916 1.598-10.77 4.744l-3.873 4.27h-40.252c-4.73 0-8.6 3.863-8.6 8.586 0 4.721 3.87 8.585 8.6 8.585h18.276c4.73 0 8.6 3.863 8.6 8.584 0 4.723-3.87 8.586-8.6 8.586h-50.527c-4.73 0-8.6 3.864-8.6 8.585 0 4.722 3.87 8.586 8.6 8.586h25.778l-47.938 52.849c-5.358 5.906-4.9 15.115 1.017 20.464a14.398 14.398 0 0 0 7.915 3.608c1.004.223 2.043.347 3.112.347h81.166v21.033c0 9.444 7.74 17.171 17.2 17.171 9.46 0 17.202-7.727 17.202-17.171v-21.033h9.137c7.983 0 14.513-6.52 14.513-14.487 0-7.969-6.53-14.489-14.513-14.489h-9.137v-91.649c0-9.444-7.742-17.171-17.202-17.171zm-73.929 112H221v-65.76l-5.22 5.742-50 55-4.561 5.018zm73.968-109c7.812.021 14.163 6.369 14.163 14.171v94.649h12.137c6.348 0 11.513 5.154 11.513 11.489 0 6.334-5.165 11.487-11.513 11.487H249.35v24.033c0 7.814-6.371 14.171-14.202 14.171-7.83 0-14.2-6.357-14.2-14.171v-24.033h-84.166c-.808 0-7.272-1.606-9.015-3.181-2.268-2.05-3.6-4.872-3.752-7.948-.153-3.074.893-6.013 2.945-8.274l52.487-57.865h-32.549c-3.088 0-5.6-2.506-5.6-5.586 0-3.079 2.512-5.585 5.6-5.585h50.527c6.396 0 11.6-5.197 11.6-11.586 0-6.387-5.204-11.584-11.6-11.584h-18.276c-3.087 0-5.6-2.506-5.6-5.585 0-3.081 2.513-5.586 5.6-5.586h41.581l4.767-5.255c2.166-2.389 5.282-3.759 8.547-3.759l1.143-.002z" fill="#A3B1BF"/><path d="M240.362 331.5a9 9 0 0 1 9 9v87a9 9 0 0 1-9 9 9 9 0 0 1-9-9v-87a9 9 0 0 1 9-9" fill="#A0C8FF" fill-rule="nonzero" opacity=".151"/><path d="m623.916 430.32 49.8-55.033v55.033h-49.8zm66.96-108.82c-.131 0-.258.017-.389.02a14.12 14.12 0 0 0-.714-.018c-3.955 0-7.896 1.597-10.744 4.744l-.255.281c-.409.41-.796.84-1.165 1.288l-96.88 107.062c-5.345 5.906-4.888 15.115 1.014 20.464a14.36 14.36 0 0 0 7.896 3.608c1.003.223 2.04.347 3.106.347h80.971v21.033c0 9.444 7.721 17.171 17.16 17.171 9.437 0 17.159-7.727 17.159-17.17v-21.034h9.116c7.963 0 14.478-6.52 14.478-14.488s-6.515-14.488-14.478-14.488h-9.116v-20.39h35.392c4.718 0 8.579-3.864 8.579-8.586 0-4.72-3.861-8.585-8.579-8.585h-39.682c-4.719 0-8.58-3.863-8.58-8.585 0-4.722 3.861-8.585 8.58-8.585h17.159c4.719 0 8.58-3.864 8.58-8.585 0-4.723-3.861-8.586-8.58-8.586h-12.869v-19.747c0-9.445-7.722-17.17-17.159-17.17zm-73.721 111.82h59.561v-65.819l-5.225 5.773-49.8 55.033-4.536 5.013zm73.758-108.82c7.79.021 14.122 6.37 14.122 14.171v22.747h15.869a5.59 5.59 0 0 1 5.58 5.586 5.59 5.59 0 0 1-5.58 5.585h-17.159c-6.385 0-11.58 5.197-11.58 11.585 0 6.388 5.195 11.585 11.58 11.585h39.682a5.589 5.589 0 0 1 5.579 5.585c0 3.08-2.503 5.586-5.579 5.586h-38.392v26.39h12.116c6.328 0 11.478 5.153 11.478 11.488 0 6.334-5.15 11.488-11.478 11.488h-12.116v24.033c0 7.813-6.352 14.171-14.159 14.171-7.809 0-14.16-6.358-14.16-14.17v-24.034h-83.971c-.805 0-1.632-.093-2.458-.276l-.138-.03-.138-.018a11.352 11.352 0 0 1-6.253-2.855c-4.694-4.252-5.054-11.53-.804-16.227l96.879-107.062.05-.054.046-.057c.309-.376.634-.736.966-1.067l.055-.056.054-.059.249-.277c2.161-2.387 5.267-3.756 8.52-3.756.19 0 .379.005.569.013l.096.005.096-.002c.113 0 .225-.008.379-.018z" fill="#A3B1BF"/><path d="M696 331.5a9 9 0 0 1 9 9v10a9 9 0 0 1-9 9 9 9 0 0 1-9-9v-10a9 9 0 0 1 9-9m0 125a9 9 0 0 1 9 9v16a9 9 0 0 1-9 9 9 9 0 0 1-9-9v-16a9 9 0 0 1 9-9" fill="#A0C8FF" fill-rule="nonzero" opacity=".151"/><path d="M799 448.5a2.5 2.5 0 0 1 2.5 2.5v10a2.5 2.5 0 1 1-5 0v-10a2.5 2.5 0 0 1 2.5-2.5m0 31a2.5 2.5 0 0 1 2.5 2.5v10a2.5 2.5 0 1 1-5 0v-10a2.5 2.5 0 0 1 2.5-2.5m23-8a2.5 2.5 0 0 1-2.5 2.5h-10a2.5 2.5 0 0 1 0-5h10a2.5 2.5 0 0 1 2.5 2.5m-31 0a2.5 2.5 0 0 1-2.5 2.5h-10a2.5 2.5 0 0 1 0-5h10a2.5 2.5 0 0 1 2.5 2.5M208 235a2.5 2.5 0 0 1 2.5 2.5v10a2.5 2.5 0 1 1-5 0v-10a2.5 2.5 0 0 1 2.5-2.5m0 31a2.5 2.5 0 0 1 2.5 2.5v10a2.5 2.5 0 1 1-5 0v-10a2.5 2.5 0 0 1 2.5-2.5m23-8a2.5 2.5 0 0 1-2.5 2.5h-10a2.5 2.5 0 1 1 0-5h10a2.5 2.5 0 0 1 2.5 2.5m-31 0a2.5 2.5 0 0 1-2.5 2.5h-10a2.5 2.5 0 1 1 0-5h10a2.5 2.5 0 0 1 2.5 2.5m-86.209 268.632a2.5 2.5 0 0 1 2.5 2.5v10a2.5 2.5 0 1 1-5 0v-10a2.5 2.5 0 0 1 2.5-2.5m0 31a2.5 2.5 0 0 1 2.5 2.5v10a2.5 2.5 0 1 1-5 0v-10a2.5 2.5 0 0 1 2.5-2.5m23-8a2.5 2.5 0 0 1-2.5 2.5h-10a2.5 2.5 0 1 1 0-5h10a2.5 2.5 0 0 1 2.5 2.5m-31 0a2.5 2.5 0 0 1-2.5 2.5h-10a2.5 2.5 0 1 1 0-5h10a2.5 2.5 0 0 1 2.5 2.5M808 608.5c-23.71 0-43-19.29-43-43s19.29-43 43-43 43 19.29 43 43-19.29 43-43 43m0-89.5c-25.681 0-46.5 20.818-46.5 46.5S782.319 612 808 612c25.682 0 46.5-20.818 46.5-46.5S833.682 519 808 519" fill="#A3B1BF"/><path d="M808 529.5c-19.85 0-36 16.15-36 36s16.15 36 36 36 36-16.15 36-36-16.15-36-36-36m71.5 49.5a8 8 0 0 0 8-8 8 8 0 1 0-16 0 8 8 0 0 0 8 8" fill="#A0C8FF" fill-rule="nonzero" opacity=".151"/><path d="M879.5 579a8 8 0 1 1 0-16 8 8 0 0 1 0 16m-11.5-8c0 4.787 2.927 8.889 7.087 10.619C867.825 611.948 840.555 634.5 808 634.5c-29.207 0-54.175-18.146-64.245-43.781l-3.035.475C751.067 618.271 777.288 637.5 808 637.5c33.946 0 62.39-23.497 69.992-55.11.495.065.995.11 1.508.11 6.352 0 11.5-5.148 11.5-11.5s-5.148-11.5-11.5-11.5c-6.351 0-11.5 5.148-11.5 11.5zm-48-10a5.5 5.5 0 1 1-11 0 5.5 5.5 0 0 1 11 0m-25-7a5.5 5.5 0 1 1-11 0 5.5 5.5 0 0 1 11 0m-293.53-13.562a9 9 0 1 1 0-18 9 9 0 0 1 0 18m0-20.862c-6.55 0-11.861 5.31-11.861 11.861 0 6.553 5.31 11.862 11.862 11.862 6.552 0 11.862-5.31 11.862-11.861 0-6.552-5.31-11.862-11.862-11.862" fill="#A3B1BF"/><path d="M510.525 531.438a9.055 9.055 0 1 1-18.11 0 9.055 9.055 0 0 1 18.11 0" fill="#A0C8FF" fill-rule="nonzero" opacity=".151"/><path d="M59.64 211.737a27.938 27.938 0 0 1-3.083-1.427 52.1 52.1 0 0 1-5.953.366c-10.272 0-18.524-3.13-24.525-9.308-11.881-12.229-8.84-30.418-8.11-33.942 4.137-19.962 22.203-31.793 37.238-34.336 1.898-.322 4.503-.69 7.833-.69 7.276 0 13.96 1.771 19.87 5.264a38.61 38.61 0 0 1 3.5 2.348c2.039.01 4.073.213 6.056.66-2.447-2.319-5.094-4.32-7.825-5.935C76.799 130.102 68.916 129 63.04 129c-3.857 0-6.85.474-8.4.737-17.69 2.993-35.795 16.703-40 37-.557 2.686-4.461 23.146 9 37 7.4 7.616 17.238 10.34 26.964 10.34 4.162 0 8.3-.505 12.223-1.33a28.223 28.223 0 0 1-3.186-1.01" fill="#A3B1BF"/><path d="M86.238 140.008c-5.952 0-11.91 1.527-16.598 2.729-7.462 1.914-19.507 5-26 15-10.256 15.795-4.803 45.97 16 54a28.226 28.226 0 0 0 10.23 1.892c14.296 0 28.14-10.331 34.77-21.892 9.045-15.77 7.766-39.218-5-48-4.05-2.786-8.723-3.73-13.402-3.73m.001 3c4.742 0 8.57 1.048 11.701 3.202 10.82 7.443 12.812 28.843 4.098 44.035-5.632 9.819-18.1 20.385-32.169 20.385a25.34 25.34 0 0 1-9.149-1.69c-7.938-3.064-14.01-10.004-17.102-19.543-3.428-10.584-2.432-22.37 2.538-30.025 5.854-9.017 16.911-11.851 24.23-13.727 4.58-1.174 10.278-2.636 15.853-2.636M30.385 295.435c-19.816-11.323-16.42-33.514-16.265-34.452a1.5 1.5 0 0 0-2.96-.492c-.041.25-3.92 25.173 17.737 37.549a1.503 1.503 0 0 0 2.047-.558 1.5 1.5 0 0 0-.56-2.047m-11.806 2.131c-9.325-7.46-10.43-16.849-10.445-16.98a1.49 1.49 0 0 0-1.642-1.34 1.499 1.499 0 0 0-1.343 1.64c.043.434 1.182 10.723 11.555 19.022a1.498 1.498 0 0 0 2.108-.234 1.5 1.5 0 0 0-.233-2.108m6.969-127.332a1.5 1.5 0 0 0 1.591-1.403c.925-14.796 11.6-19.505 12.082-19.71a1.5 1.5 0 0 0-1.156-2.769c-.526.22-12.874 5.552-13.92 22.291a1.5 1.5 0 0 0 1.403 1.591m69.093 67.003a5.507 5.507 0 0 0-5.5 5.5c0 3.032 2.469 5.5 5.5 5.5 3.033 0 5.5-2.468 5.5-5.5s-2.467-5.5-5.5-5.5m0 14c-4.686 0-8.5-3.813-8.5-8.5 0-4.687 3.814-8.5 8.5-8.5 4.688 0 8.5 3.813 8.5 8.5 0 4.687-3.812 8.5-8.5 8.5" fill="#A3B1BF"/><path d="M100.14 242.737a5.5 5.5 0 1 1-11-.001 5.5 5.5 0 0 1 11 .001m-7.027-98.845c-24.31 3.992-36.445 12.918-35.112 27.196 2 21.418.441 29.242 10 36.339 9.557 7.098 23.627-4.62 28-9.304 4.371-4.683 11.66-13.46 11.516-30.286-.526-13.18-6.49-21.833-14.404-23.945" fill="#A0C8FF" fill-rule="nonzero" opacity=".151"/><path d="M156.626 256.633c-2.182 2.005-4.068 2.27-8.202 2.849-1.975.277-4.404.62-7.505 1.245 4.406-8.923.45-18.547-1.542-22.403 1.942-.586 4.132-1.306 6.732-2.162a146.02 146.02 0 0 0 8.336-3.03c3.182-1.247 3.803-1.437 4.49-1.071 1.468.784 2.647 3.365 3.076 6.735.707 5.558-.677 13.51-5.385 17.837m-19.251 4.298a1.495 1.495 0 0 0-.219.63c-.922.219-1.876.455-2.899.726-11.312 2.996-19.485 5.16-21.066 11.063-.647 2.416.197 3.98 1.729 6.82.41.762.878 1.63 1.399 2.658-.18.656-1.366 4.564-4.995 9.016-3.606 4.424-10.439 10.287-22.537 13.306-5.365-2.41-10.856-5.91-16.053-9.8 11.795-8.953 12.134-22.541 11.968-26.404 1.113-.475 1.779-.963 1.839-1.008l.16-.14c.048-.048 4.953-4.863 18.53-10.682 14.102-6.044 13.215-11.64 12.856-12.783-.12-.534-.705-3.08-1.642-6.355 3.446 1.317 7.777 2.259 12.17 2.259h.027c2.615-.001 4.98-.364 7.775-1.08 1.674 3.109 6.35 13.302.958 21.774m-19.261 25.689c.364.822.741 1.703 1.136 2.68 3.198 7.903 4.666 11.83 3.077 14.713-1.597 2.895-5.851 3.678-8.958 4.249-8.002 1.474-15.257.058-19.846-1.34 15.981-5.197 22.309-15.168 24.591-20.302m-53.395 2.28c9.289-7.173 10.71-15.98 10.821-20.075.997.447 2.016.766 3.062.923.568.085 1.115.122 1.639.122.516 0 1.002-.043 1.469-.105.021 4.214-.917 16.15-11.454 23.683a163.02 163.02 0 0 1-5.537-4.547m-11.382-10.56c1.078-.192 2.074-.647 2.587-1.606 1.184-2.215-1.1-4.935-3.223-7.058-7.177-7.178-1.737-20.22-1.681-20.35a1.5 1.5 0 0 0-2.758-1.18c-.173.403-2.873 6.857-2.184 13.673-12.333 5.795-19.882 1.618-21.903.205.438-12.786 6.936-22.155 12.697-30.431a87.908 87.908 0 0 1 4.067-5.402c3.519-.104 17.345.178 25.61 10.237l-1.64.998c-1.492.77-2.549 2.279-3.057 4.363-1.04 4.268.14 11.98 6.576 20.829 1.284 1.767 2.642 3.195 4.059 4.32.069.564 1.237 11.536-10.084 19.943a213.5 213.5 0 0 1-9.066-8.54m-2.978-3.004c-2.854-2.87-5.11-4.278-6.933-4.278-.513 0-.991.11-1.441.328-2.273 1.104-2.156 4.15-2.032 7.375.1 2.588.224 5.807-1.149 6.729-1.486.999-4.871-.275-7.3-1.981-3.209-2.257-6.943-7.21-7.33-17.998 2.075 1.087 5.388 2.303 9.841 2.303 3.515 0 7.744-.772 12.618-2.952.662 2.465 1.88 4.867 3.947 6.934 2.136 2.136 2.559 3.17 2.642 3.504-.467.193-1.717.208-2.863.036m-3.744-55.405c2.535.326 20.618 3.022 24.429 13.76l-1.907 1.16c-7.702-9.703-19.634-11.441-25.624-11.66a88.37 88.37 0 0 1 3.102-3.26m23.749 24.33c.814 5.639 3.954 13.859 14.088 21.458-.743.439-2.82 1.465-5.454 1.053-2.876-.452-5.616-2.443-8.144-5.918-5.839-8.03-6.928-14.906-6.087-18.355.295-1.212.843-2.071 1.545-2.422l3.942-2.398a25.874 25.874 0 0 0 .11 6.582m3.27-8.64 15.751-9.583c2.523-1.44 8.975-4.446 13.499-4.446 1.526 0 2.835.343 3.696 1.204 3.846 3.846 7.509 17.376 8.597 22.265l-.058-.034.101.186c.284 1.09-1.169 4.857-11.17 9.144-9.085 3.893-14.455 7.378-17.185 9.422-15.733-11.403-14.245-24.058-13.231-28.158m31.344-30.951a10.5 10.5 0 0 0 4.213 2.497c.183.058.376.106.567.155.433 4.816.429 11.27-.746 13.688-.104-.113-.206-.231-.311-.335-1.31-1.312-3.054-1.906-4.973-2.045.62-2.18 1.186-6.28 1.25-13.96m7.831 3.117c3.523.189 7.573-.676 10.634-2.94 4.124 5.127 11.638 16.366 9.112 22.33-3.518 1.538-7.283 2.183-10.443 1.135a22.407 22.407 0 0 1-.632-.225c-1.373-.498-3.443-1.254-6.077-.833-.672.107-1.541.327-2.417.656-.661-1.56-1.371-3.027-2.12-4.3 2.612-2.98 2.278-11.65 1.943-15.823m14.437-7.458c.864-1.471 1.489-2.535 3.015-3.227 1.802-.817 4.003-.755 5.246-.273.535.208.725.427.753.493.187.44-.366 1.74-4.071 5.42-1.651 1.644-2.743 2.729-1.69 3.966.231.272 1.092 1.073 2.455-.017.62-.496 1.946-1.556 4.649-1.456 2.666.067 3.688.549 5.104 1.674 1.071.853 2.193 3.929 2.444 6.006.387 3.205-2.247 6.372-4.585 8.774-1.284 1.318-2.849 2.569-4.559 3.65.582-8.21-7.658-19.18-10.387-22.564.674-.838 1.176-1.678 1.626-2.446m-99.304 27.6.132.059c.894.406 2.005.91 2.206 1.153.283.894-1.037 3.493-3.175 4.279a3.776 3.776 0 0 1-1.321.222c-.536 0-1.129-.095-1.76-.277 1.689-1.078 3.379-2.845 3.918-5.436m-7.329 3.729a1.502 1.502 0 0 0-.366.159 35.797 35.797 0 0 1-4-2.36c1.688-.793 3.638-2.324 4.71-5.256a54.645 54.645 0 0 0 4.142 2.352c-.251 3.884-4.289 5.052-4.486 5.105m-7.257-4.39a31.65 31.65 0 0 1-3.901-3.908 6.186 6.186 0 0 0 1.783-.535c1.102-.528 2.423-1.595 3.264-3.73 1.091 1.136 2.383 2.257 3.87 3.352-.958 3.52-3.485 4.524-4.963 4.805-.018.004-.035.012-.053.016m-6.005-6.988c-.058-.031-.119-.051-.178-.074a24.431 24.431 0 0 1-2.943-6.966 6.687 6.687 0 0 0 2.331.432c1.036 0 2.353-.265 3.766-1.155a20.095 20.095 0 0 0 1.85 3.69c-.304 1.933-.996 3.223-2.067 3.825-1.166.656-2.499.348-2.759.248m-3.752-10.987a26.607 26.607 0 0 1 .302-6.66c.603.548 1.363 1.065 2.302 1.374a5.669 5.669 0 0 0 1.783.288c.323 0 .65-.037.978-.092-.09 1.804.078 3.586.45 5.279-1.028.864-2.073 1.262-3.12 1.18-1.363-.11-2.346-.961-2.695-1.37m3.823-16.705c.696 1.31 1.87 2.796 4.056 3.407a17.536 17.536 0 0 0-1.082 2.03 16.78 16.78 0 0 0-.971 2.924c-.828.355-1.578.437-2.268.215-1.446-.466-2.267-2.05-2.287-2.088-.025-.05-.057-.092-.088-.14a35.882 35.882 0 0 1 2.64-6.348m6.561-9.451c.46 2.669 1.202 5.729 1.83 7.759-.373.36-1.983 1.992-2.323 2.375-2.639-.083-3.311-1.696-3.947-3.268-.085-.21-.168-.394-.251-.584 1.14-1.745 3.517-4.952 4.691-6.282m151.004 55.28c-.566-4.451-2.257-7.732-4.64-9.004-1.967-1.05-3.543-.428-6.997.927-1.876.735-4.446 1.743-8.186 2.974-7.93 2.609-11.909 3.919-16.524 3.922h-.025c-5.301 0-10.246-1.508-13.312-3.021a88.968 88.968 0 0 0-1.214-3.515 9.291 9.291 0 0 1 1.789-.482c1.861-.297 3.304.227 4.575.689.253.092.491.179.715.253 7.96 2.642 17.248-2.963 21.548-7.378 1.802-1.85 6.021-6.185 5.414-11.225-.267-2.21-1.468-6.334-3.556-7.994-1.812-1.442-3.448-2.24-6.895-2.327a14.49 14.49 0 0 0-.865.008c1.71-1.983 3.025-4.17 2.208-6.094-.391-.917-1.229-1.65-2.425-2.115-2.2-.855-5.244-.72-7.576.335-2.391 1.086-3.393 2.79-4.362 4.442-.594 1.01-1.154 1.966-2.063 2.848-2.74 2.658-7.457 3.532-10.979 2.99a1.465 1.465 0 0 0-.414-.075 9.901 9.901 0 0 1-1.113-.27c-4.277-1.342-5.758-5.617-7.325-10.144-.19-.55-.381-1.098-.577-1.646l-2.08 3.138c.577 1.66 1.194 3.374 1.998 4.975a1.51 1.51 0 0 0-.132.624c.074 7.395-.447 16.169-1.394 17.424-.027.027-.036.063-.061.092-5.653.794-11.648 4.109-12.659 4.687l-14.21 8.65c-4.089-10.19-18.32-13.735-24.332-14.796 1.833-1.722 3.846-3.513 6.097-5.463h-4.568c-6.624 5.879-11.484 10.915-16.438 18.034-2.243 3.223-4.694 6.754-6.876 10.68a34.878 34.878 0 0 1-2.186-3.934 6.743 6.743 0 0 0 2.794-.39c3.344-1.228 5.861-5.276 5-8-.601-1.894-2.563-2.29-6-4-.561-.278-1.8-.898-3.312-1.784.115-.372.239-.744.382-1.111 2.516-6.507 8.469-9.988 9.495-10.203a1.5 1.5 0 0 0 1.208-1.741 1.508 1.508 0 0 0-1.742-1.211c-2.05.369-8.738 4.562-11.659 11.819-.102.254-.194.529-.288.8-2.201-1.502-4.514-3.401-6.084-5.57-2.785-3.841-4.519-10.291-2-16 1.081-2.45 2.855-4.556 4.908-6.153-1.204-2.962-2.902-10.34-2.859-14.626-2.448 1.773-5.858 5.3-8.778 9.946a1.456 1.456 0 0 0-.225.365c-4.045 6.576-7.056 15.304-5.046 24.469 2.963 13.517 15.181 20.433 20.603 22.52.918 2.439 2.273 5.054 4.208 7.839-2.7 5.54-4.698 11.832-4.811 19.118-.18 11.272 2.726 19.094 8.637 23.25 3.088 2.173 7.744 4.004 10.7 2.019 2.761-1.857 2.608-5.83 2.473-9.335-.05-1.29-.166-4.313.345-4.562.011-.002 1.317-.37 5.248 3.675l.02.02c8.231 8.479 24.303 23.69 39.475 30.33 2.344 1.026 9.466 3.772 18.399 3.772 2.38 0 4.892-.195 7.474-.67 3.487-.642 8.759-1.611 11.042-5.752 2.349-4.261.251-9.442-2.923-17.286-1.847-4.563-3.363-7.375-4.47-9.428-1.435-2.66-1.797-3.406-1.471-4.622 1.131-4.222 8.987-6.303 18.934-8.937 6.389-1.693 10.682-2.295 13.817-2.735 4.331-.608 6.945-.974 9.814-3.611 5.524-5.075 7.159-13.915 6.332-20.424" fill="#A3B1BF"/><path d="M751.816 192.315c2.76-2.064 5.346-4.152 7.536-6.163l-5.289-16.502c-2.606 2.914-5.425 5.653-8.322 8.215 3.168 5.47 5.008 10.491 6.075 14.45m-20.003-3.693a185.319 185.319 0 0 1-12.67 7.886l3.541 3.236 5.072 8.067c3.822-2.12 9.94-5.767 16.173-9.938-5.135-2.573-9.176-6.083-12.115-9.25m-1.854-27.701c6.29-3.871 13.26-7.793 18.304-8.22L743.5 141.18c-9.031 1.997-18.042 6.647-25.9 12.159l12.36 7.582zm-69.24-39.692c13.07-19.898 32.197-26.898 37.24-27.325l-18.007-6.484c-9.031 1.996-17.372 8.441-21.504 14.576l2.27 19.233zm56.272 32.533c-11.706 8.338-20.739 18.52-23.237 24.505l8.7 6.838 17.366-17.974c.152-.085.323-.186.482-.276l-3.31-13.093z" fill="#A0C8FF" fill-rule="nonzero" opacity=".151"/><path d="M697.96 113.494c-10.2 0-18.5 8.3-18.5 18.5 0 10.201 8.3 18.5 18.5 18.5 10.202 0 18.5-8.299 18.5-18.5 0-10.2-8.298-18.5-18.5-18.5m0 40c-11.854 0-21.5-9.645-21.5-21.5s9.646-21.5 21.5-21.5c11.856 0 21.5 9.645 21.5 21.5s-9.644 21.5-21.5 21.5" fill="#A3B1BF"/><path d="M697.96 122.494c-5.237 0-9.5 4.262-9.5 9.5s4.263 9.5 9.5 9.5c5.239 0 9.5-4.262 9.5-9.5s-4.261-9.5-9.5-9.5m0 22c-6.892 0-12.5-5.607-12.5-12.5s5.608-12.5 12.5-12.5c6.894 0 12.5 5.607 12.5 12.5s-5.606 12.5-12.5 12.5" fill="#A3B1BF"/><path d="M697.96 122.494c-5.237 0-9.5 4.262-9.5 9.5s4.263 9.5 9.5 9.5c5.239 0 9.5-4.262 9.5-9.5s-4.261-9.5-9.5-9.5" fill="#A0C8FF" fill-rule="nonzero" opacity=".151"/><path d="M767.19 242.281c-.183 3.888.845 12.7 12.512 18.83-1.424-2.144-2.95-5.004-4.164-8.642-1.904-5.71-5.997-8.814-8.348-10.188zm25.37 26.942-8.093-2.812c-23.999-8.348-20.009-26.577-19.966-26.76l.39-1.66 1.596.6c.354.131 8.707 3.36 11.896 12.928 2.805 8.414 7.471 12.27 7.518 12.307l6.66 5.397zM729.962 96.494a1.5 1.5 0 0 1-1.128-.51c-13.976-15.905-29.938-18.483-30.098-18.507a1.5 1.5 0 0 1-1.258-1.708 1.509 1.509 0 0 1 1.708-1.258c.696.105 17.21 2.774 31.902 19.493a1.5 1.5 0 0 1-1.126 2.49M742.001 111a1.5 1.5 0 0 1-1.304-.756c-1.064-1.862-4.313-7.018-6.529-8.496a1.5 1.5 0 1 1 1.664-2.496c3.202 2.135 7.043 8.756 7.471 9.504a1.5 1.5 0 0 1-1.302 2.244m26.147 112c-12.928-.809-15.091-7.101-15.264-7.684l-3.486-9.676-2.407 9.929c-.464 3.25.13 6.283 1.032 8.781-5.859-2.322-11.337-6.74-16.347-13.198a62.007 62.007 0 0 1-2.48-3.441c3.721-2.071 8.978-5.232 14.432-8.859a46.404 46.404 0 0 0 9.029 3.108l1.901.447-.058-1.953c-.004-.105-.145-3.424-1.36-8.343 2.262-1.72 4.407-3.457 6.313-5.159 6.87 1.28 11.709 4.213 14.38 8.72 1.404 2.368 2.106 4.974 2.396 7.485-1.874-1.199-4.22-1.92-7.02-2.153-.7-.059-1.366-.088-1.981-.088-3.857 0-6.351 1.197-7.411 3.558-1.73 3.85 1.784 8.255 2.9 9.512l.332.373.436.246c5.304 2.999 9.221 6.311 11.582 9.761-1.952-.743-4.263-1.2-6.92-1.366zm-44.816-26.137-.904-.486a171.566 171.566 0 0 0 9.11-6.053 41.709 41.709 0 0 0 9.04 6.94c-5.019 3.274-9.748 6.113-12.988 7.939-2.534-4.16-3.834-7.298-3.85-7.341l-.408-.999zm-19.377-6.914c-3.223 3.78-4.614 7.863-4.136 12.136.529 4.735 3.258 8.721 5.623 11.36-4.112-1.08-7.279-3.212-9.442-6.368-5.77-8.41-3.249-21.974-2.08-26.835a129.286 129.286 0 0 0 10.912 8.724c-.307.331-.602.659-.877.983zm-23.234-28.45c-8.224-11.009-14.125-23.366-17.535-36.729a99.454 99.454 0 0 1-.605-2.536c9.73-15.9 24.808-23.168 34.683-26.372a89.404 89.404 0 0 1 8.867 5.02c11.172 7.212 20.917 17.001 28.964 29.097a122.054 122.054 0 0 1 6.115 10.271c-.27.074-.538.147-.816.226-25.082 7.054-41.49 25.835-47.874 34.36-4.35-4.2-8.294-8.647-11.798-13.337zm-6.93-73.558a46.4 46.4 0 0 0-13.969 10.136c-.01-5.312.375-9.457.688-11.924 4.553.329 8.98.931 13.28 1.788zm19.596 6.108c-9.635 3.581-22.475 10.607-31.677 24.044a109.718 109.718 0 0 1-1.788-15.671 42.256 42.256 0 0 1 1.737-2.015c4.735-5.132 10.47-8.92 17.12-11.346a94.022 94.022 0 0 1 14.609 4.988zm79.865 65.849c-7.174-5.385-16.936-4.006-21.387-2.974a137.422 137.422 0 0 0-5.832-13.834c15.928 3.198 23.591 10.709 27.218 16.808zm-49.083 14.101c-3.057-7.092-4.121-13.792-4.486-17.199 25.874 11.069 30.741 34.658 31.628 41.715-12.53-3.536-21.656-11.774-27.143-24.516zm28.097-5.615a115.61 115.61 0 0 1-6.464 6.522 52.984 52.984 0 0 0-12.989-14.01c7.657-4.56 13.639-7.192 14.471-7.552 2.597 6.498 4.163 11.855 4.982 15.04zm-6.135-17.835c-.024.019-.05.039-.077.058-1.23.526-7.791 3.408-15.967 8.367-3.116-2.049-6.648-3.9-10.608-5.487 6.274-4.153 13.541-7.821 21.728-10.123.492-.138.962-.266 1.414-.387a133.991 133.991 0 0 1 3.51 7.572zm-51.387 26.381c3.68-4.895 11.108-13.719 21.815-21.428.14 1.811.6 6.044 2.023 11.288-5.966 4.536-11.905 9.954-16.731 16.184a124.549 124.549 0 0 1-7.107-6.044zm24.603 17.742c-5.38-3.054-10.424-6.346-15.117-9.866 4.384-5.643 9.788-10.632 15.284-14.888 1.894 5.803 4.977 12.387 9.971 18.186-3.768 2.655-7.254 4.877-10.138 6.568zm37.745-9.796.072.23a102.93 102.93 0 0 1-4.87 3.943 58.155 58.155 0 0 0-4.916-11.527 123.401 123.401 0 0 0 5.72-5.629l3.995 12.983zm7.868 27.118s-7.178-8.078 2.267-8.078c.526 0 1.101.025 1.733.078 12 1 9 12 9 12s9-27-18-32l-4-13s-.841-4.404-3.115-11.234c2.034-.466 5.152-.982 8.521-.805 7.466.379 12.595 3.837 15.248 10.277l3.766 9.15-.885-9.856c-.024-.248-.604-6.159-5.432-12.713-4.3-5.836-12.95-13.289-29.74-16.104-12.738-24.335-38.13-54.362-86.363-56.715 0 0-10.767 53.166 33.453 94.946-.817 2.86-5.28 20.049 2.106 30.828 3.466 5.056 8.976 7.888 16.375 8.417l5.072.361-4.066-3.058c-.072-.054-7.308-5.571-8.101-12.75-.377-3.412.78-6.723 3.438-9.843.332-.39.694-.788 1.07-1.19a150.974 150.974 0 0 0 13.653 8.289s11 27 33 30c0 0-5-6-4-13 0 0 2 9 18 10s11 13 11 13 9-14-14-27z" fill="#A3B1BF"/><text font-family="PingFangSC-Semibold, PingFang SC" font-size="70" font-weight="500" fill="#515A6E" transform="translate(275 630)">
                        <tspan x=".005" y="74">Whoops</tspan>
                    </text><text font-family="PingFang-SC-Medium, PingFang SC" font-size="30" font-weight="400" fill="#515A6E" transform="translate(275 630)">
                        <tspan x="12.155" y="144">It looks like you&apos;re lost</tspan>
                    </text></g></svg>