<svg class="icon" viewBox="0 0 1024 1024" xmlns="http://www.w3.org/2000/svg" width="16" height="16"><path d="M480 64.512c-34.752 0-69.504 16.512-89.28 49.472L14.528 742.72c-40 66.56 11.2 153.28 88.96 153.28H856.32c78.016 0 129.28-86.72 89.472-153.28L569.28 113.984A102.848 102.848 0 0 0 480 64.512zm0 62.976c13.248 0 26.496 6.528 34.56 19.52l376.192 628.48c15.744 26.24-1.728 56.512-34.56 56.512H103.616c-32.576 0-50.048-30.272-34.304-56.512l376.256-628.48a40.256 40.256 0 0 1 34.496-19.52zM447.488 320v320h64V320zm0 384v64h64v-64z"/></svg>