<?xml version="1.0" standalone="no"?><!DOCTYPE svg PUBLIC "-//W3C//DTD SVG 1.1//EN" "http://www.w3.org/Graphics/SVG/1.1/DTD/svg11.dtd"><svg t="1624010417735" class="icon" viewBox="0 0 1024 1024" version="1.1" xmlns="http://www.w3.org/2000/svg" p-id="2781" width="64" height="64" xmlns:xlink="http://www.w3.org/1999/xlink"><defs><style type="text/css"></style></defs><path d="M746.986667 307.2l100.096-100.117333a21.333333 21.333333 0 0 0-30.165334-30.165334l-112.853333 112.853334A562.858667 562.858667 0 0 0 512 256C220.416 256 42.666667 477.653333 42.666667 512c0 23.765333 85.248 137.173333 234.346666 204.8l-100.096 100.117333a21.333333 21.333333 0 1 0 30.165334 30.165334l112.853333-112.853334A562.858667 562.858667 0 0 0 512 768c291.584 0 469.333333-221.653333 469.333333-256 0-23.765333-85.248-137.173333-234.346666-204.8zM86.869333 512A541.354667 541.354667 0 0 1 512 298.666667a513.664 513.664 0 0 1 158.122667 25.045333l-69.12 69.12A147.904 147.904 0 0 0 512 362.666667a149.504 149.504 0 0 0-149.333333 149.333333 147.904 147.904 0 0 0 30.144 89.024l-83.093334 83.093333A532.992 532.992 0 0 1 86.869333 512zM618.666667 512a106.496 106.496 0 0 1-165.397334 88.896l147.626667-147.626667A105.941333 105.941333 0 0 1 618.666667 512z m-213.333334 0a106.496 106.496 0 0 1 165.397334-88.896l-147.626667 147.626667A105.941333 105.941333 0 0 1 405.333333 512z m106.666667 213.333333a513.685333 513.685333 0 0 1-158.122667-25.045333l69.12-69.12A147.904 147.904 0 0 0 512 661.333333a149.504 149.504 0 0 0 149.333333-149.333333 147.904 147.904 0 0 0-30.144-89.024l83.093334-83.093333A532.992 532.992 0 0 1 937.130667 512 541.354667 541.354667 0 0 1 512 725.333333z" fill="#646464" p-id="2782"></path></svg>