<svg class="icon" viewBox="0 0 1024 1024" xmlns="http://www.w3.org/2000/svg" width="64" height="64"><path d="m746.987 307.2 100.096-100.117a21.333 21.333 0 0 0-30.166-30.166L704.064 289.771A562.859 562.859 0 0 0 512 256C220.416 256 42.667 477.653 42.667 512c0 23.765 85.248 137.173 234.346 204.8L176.917 816.917a21.333 21.333 0 1 0 30.166 30.166l112.853-112.854A562.859 562.859 0 0 0 512 768c291.584 0 469.333-221.653 469.333-256 0-23.765-85.248-137.173-234.346-204.8zM86.869 512A541.355 541.355 0 0 1 512 298.667a513.664 513.664 0 0 1 158.123 25.045l-69.12 69.12A147.904 147.904 0 0 0 512 362.667 149.504 149.504 0 0 0 362.667 512a147.904 147.904 0 0 0 30.144 89.024l-83.094 83.093A532.992 532.992 0 0 1 86.87 512zm531.798 0a106.496 106.496 0 0 1-165.398 88.896l147.627-147.627A105.941 105.941 0 0 1 618.666 512zm-213.334 0a106.496 106.496 0 0 1 165.398-88.896L423.104 570.731A105.941 105.941 0 0 1 405.334 512zM512 725.333a513.685 513.685 0 0 1-158.123-25.045l69.12-69.12A147.904 147.904 0 0 0 512 661.333 149.504 149.504 0 0 0 661.333 512a147.904 147.904 0 0 0-30.144-89.024l83.094-83.093A532.992 532.992 0 0 1 937.13 512 541.355 541.355 0 0 1 512 725.333z" fill="#646464"/></svg>