<svg class="icon" viewBox="0 0 1024 1024" xmlns="http://www.w3.org/2000/svg" width="64" height="64"><path d="M511.488 0C228.864 0 0 229.376 0 512s228.864 512 511.488 512C794.624 1024 1024 794.624 1024 512S794.624 0 511.488 0zm354.816 307.2h-151.04a801.28 801.28 0 0 0-70.656-182.272A411.136 411.136 0 0 1 866.304 307.2zM512 104.448c42.496 61.44 75.776 129.536 97.792 202.752H414.208c22.016-73.216 55.296-141.312 97.792-202.752zM115.712 614.4C107.52 581.632 102.4 547.328 102.4 512s5.12-69.632 13.312-102.4h173.056c-4.096 33.792-7.168 67.584-7.168 102.4s3.072 68.608 7.168 102.4H115.712zm41.984 102.4h151.04c16.384 64 39.936 125.44 70.656 182.272A408.934 408.934 0 0 1 157.696 716.8zm151.04-409.6h-151.04a408.934 408.934 0 0 1 221.696-182.272A801.28 801.28 0 0 0 308.736 307.2zM512 919.552c-42.496-61.44-75.776-129.536-97.792-202.752h195.584C587.776 790.016 554.496 858.112 512 919.552zM631.808 614.4H392.192C387.584 580.608 384 546.816 384 512s3.584-69.12 8.192-102.4h239.616C636.416 442.88 640 477.184 640 512s-3.584 68.608-8.192 102.4zm12.8 284.672C675.328 842.24 698.88 780.8 715.264 716.8h151.04a411.136 411.136 0 0 1-221.696 182.272zM735.232 614.4c4.096-33.792 7.168-67.584 7.168-102.4s-3.072-68.608-7.168-102.4h173.056C916.48 442.368 921.6 476.672 921.6 512s-5.12 69.632-13.312 102.4H735.232z"/></svg>