<?xml version="1.0" standalone="no"?><!DOCTYPE svg PUBLIC "-//W3C//DTD SVG 1.1//EN" "http://www.w3.org/Graphics/SVG/1.1/DTD/svg11.dtd"><svg t="1624010983239" class="icon" viewBox="0 0 1024 1024" version="1.1" xmlns="http://www.w3.org/2000/svg" p-id="7732" xmlns:xlink="http://www.w3.org/1999/xlink" width="64" height="64"><defs><style type="text/css"></style></defs><path d="M697.283 0.86H326.717c-97.155 0-175.395 78.24-175.395 175.395v670.63c0 97.155 78.24 175.395 175.395 175.395h370.566c97.155 0 175.395-78.24 175.395-175.395v-670.63C872.678 79.1 794.438 0.86 697.283 0.86zM828.83 846.885c2.579 75.66-58.466 134.126-131.547 134.126H326.717c-73.081 0-134.126-61.045-134.126-134.126v-46.428H828.83v46.428z m2.579-87.698H195.17v-548.54h636.24v548.54zM195.17 166.797C197.75 98.876 256.215 42.99 326.717 42.99h370.566c70.502 0 128.967 55.886 134.126 124.668H195.17z m316.4 784.981c14.616 0 26.653-5.158 36.97-14.616 9.458-9.458 14.617-22.354 14.617-36.97s-5.159-26.654-14.616-36.971-22.355-14.616-36.97-14.616-26.654 5.158-36.972 14.616c-9.457 9.457-14.616 22.354-14.616 36.97s5.159 26.654 14.616 36.971c10.318 9.458 22.355 14.616 36.971 14.616z" p-id="7733"></path></svg>