<svg class="icon" viewBox="0 0 1024 1024" xmlns="http://www.w3.org/2000/svg" width="16" height="16"><path d="M327.5 373.2c-17.5 0-31.8-14.2-31.8-31.8 0-60.7 23.6-117.8 66.6-160.7s100-66.6 160.7-66.6c102.4 0 192.6 68.9 219.3 167.6 4.6 16.9-5.4 34.4-22.3 39-16.9 4.6-34.4-5.4-39-22.3-19.3-71.1-84.2-120.7-158-120.7-90.3 0-163.7 73.4-163.7 163.7-.1 17.6-14.3 31.8-31.8 31.8z"/><path d="M787 924.5H258.9c-83.7 0-151.8-68.1-151.8-151.8v-274c0-83.7 68.1-151.8 151.8-151.8H787c83.7 0 151.8 68.1 151.8 151.8v274c0 83.7-68.1 151.8-151.8 151.8zM258.9 410.4c-48.7 0-88.3 39.6-88.3 88.3v274c0 48.7 39.6 88.3 88.3 88.3H787c48.7 0 88.3-39.6 88.3-88.3v-274c0-48.7-39.6-88.3-88.3-88.3H258.9z"/><path d="M522.9 784c-81.8 0-148.3-66.5-148.3-148.3s66.5-148.3 148.3-148.3 148.3 66.5 148.3 148.3S604.7 784 522.9 784zm0-233c-46.7 0-84.7 38-84.7 84.7s38 84.7 84.7 84.7 84.7-38 84.7-84.7-38-84.7-84.7-84.7z"/></svg>