<svg class="icon" viewBox="0 0 1024 1024" xmlns="http://www.w3.org/2000/svg" width="16" height="16"><path d="M512 362.73A149.27 149.27 0 1 0 661.27 512 149.44 149.44 0 0 0 512 362.73zm0 255.894A106.624 106.624 0 1 1 618.624 512 106.752 106.752 0 0 1 512 618.624z"/><path d="M858.09 554.603a53.867 53.867 0 0 1 0-85.206 96.448 96.448 0 0 0-71.231-172.01 53.824 53.824 0 0 1-60.246-60.246 96.448 96.448 0 0 0-172.01-71.253 55.51 55.51 0 0 1-85.206 0 96.448 96.448 0 0 0-172.01 71.253 53.824 53.824 0 0 1-60.246 60.246 96.448 96.448 0 0 0-71.253 172.01 53.867 53.867 0 0 1 0 85.206 96.448 96.448 0 0 0 71.253 172.01 53.824 53.824 0 0 1 60.246 60.246 94.336 94.336 0 0 0 58.773 101.397A99.605 99.605 0 0 0 394.24 896a94.357 94.357 0 0 0 75.157-37.91 55.51 55.51 0 0 1 85.206 0 96.448 96.448 0 0 0 172.01-71.253 53.824 53.824 0 0 1 60.246-60.224 96.448 96.448 0 0 0 71.253-172.01zm-9.258 96.917a52.31 52.31 0 0 1-56.555 32.768 96.512 96.512 0 0 0-107.968 107.99A53.824 53.824 0 0 1 588.352 832a99.413 99.413 0 0 0-152.683 0 53.824 53.824 0 0 1-95.957-39.744 96.533 96.533 0 0 0-95.51-108.779 100.885 100.885 0 0 0-12.48.79A53.824 53.824 0 0 1 192 588.33a96.49 96.49 0 0 0 0-152.683 53.824 53.824 0 0 1 39.744-95.957 96.512 96.512 0 0 0 107.968-107.947 53.824 53.824 0 0 1 95.979-39.765 99.413 99.413 0 0 0 152.682 0 53.824 53.824 0 0 1 95.958 39.744A96.512 96.512 0 0 0 792.277 339.69a53.824 53.824 0 0 1 39.766 95.957 96.49 96.49 0 0 0 0 152.683 52.053 52.053 0 0 1 16.81 63.189z"/></svg>