<svg class="icon" viewBox="0 0 1024 1024" xmlns="http://www.w3.org/2000/svg" width="64" height="64"><path d="M512 362.667A149.333 149.333 0 1 0 661.333 512 149.504 149.504 0 0 0 512 362.667zm0 256A106.667 106.667 0 1 1 618.667 512 106.773 106.773 0 0 1 512 618.667z" fill="#646464"/><path d="M512 256C220.416 256 42.667 477.653 42.667 512S220.416 768 512 768s469.333-221.653 469.333-256S803.584 256 512 256zm0 469.333A541.355 541.355 0 0 1 86.87 512 541.355 541.355 0 0 1 512 298.667 541.355 541.355 0 0 1 937.13 512 541.355 541.355 0 0 1 512 725.333z" fill="#646464"/></svg>