<?xml version="1.0" standalone="no"?><!DOCTYPE svg PUBLIC "-//W3C//DTD SVG 1.1//EN" "http://www.w3.org/Graphics/SVG/1.1/DTD/svg11.dtd"><svg t="1624010513164" class="icon" viewBox="0 0 1024 1024" version="1.1" xmlns="http://www.w3.org/2000/svg" p-id="3163" xmlns:xlink="http://www.w3.org/1999/xlink" width="64" height="64"><defs><style type="text/css"></style></defs><path d="M512 362.666667a149.333333 149.333333 0 1 0 149.333333 149.333333 149.504 149.504 0 0 0-149.333333-149.333333z m0 256a106.666667 106.666667 0 1 1 106.666667-106.666667 106.773333 106.773333 0 0 1-106.666667 106.666667z" fill="#646464" p-id="3164"></path><path d="M512 256C220.416 256 42.666667 477.653333 42.666667 512s177.749333 256 469.333333 256 469.333333-221.653333 469.333333-256-177.749333-256-469.333333-256z m0 469.333333A541.354667 541.354667 0 0 1 86.869333 512 541.354667 541.354667 0 0 1 512 298.666667a541.354667 541.354667 0 0 1 425.130667 213.333333A541.354667 541.354667 0 0 1 512 725.333333z" fill="#646464" p-id="3165"></path></svg>