<svg class="icon" viewBox="0 0 1024 1024" xmlns="http://www.w3.org/2000/svg" width="64" height="64"><path d="M357.742 600.363c-25.691 2.682-44.09 25.08-44.09 46.494 0 21.467 20.683 36.295 46.39 33.292 25.597-2.922 46.374-22.717 46.374-44.105 0-21.495-19.182-38.498-48.674-35.681zM422.943 582.668c-8.808 6.376-10.615 18.598-5.819 26.196 4.597 7.76 15.305 8.66 23.991 2.18 8.503-6.697 11.81-18.388 7.2-26.2-4.596-7.597-15.17-9.801-25.372-2.176z"/><path d="M512.32 1.023C229.946 1.023.578 230.1.578 512.657.578 795.111 229.946 1024 512.32 1024c282.598 0 511.622-228.89 511.622-511.343 0-282.557-229.024-511.634-511.622-511.634zm279.677 639.91C735.59 760.73 549.622 819.021 411.837 808.234 280.853 797.928 112.46 754.433 95.057 595.95c0 0-9.192-71.79 60.392-164.673 0 0 100.084-139.806 216.694-179.684 116.677-39.721 130.268 27.5 130.268 67.191-6.192 33.69-17.79 53.485 26.01 39.88 0 0 114.684-53.19 161.87-6.004 38.099 38.126 6.297 90.493 6.297 90.493s-15.808 17.509 16.711 23.833c32.573 6.483 135.076 53.96 78.698 173.945zM678.892 309.964c-12.487 0-22.49-10.097-22.49-22.478 0-12.593 10.002-22.69 22.49-22.69 0 0 140.577-26.01 123.786 125.087 0 .902-.107 1.594-.266 2.391-1.622 10.68-11 18.891-22.106 18.891-12.541 0-22.69-10.017-22.69-22.505 0 0 22.265-100.961-78.724-78.696zm237.5 105.372c-3.72 54.413-16.42 35.364-31.512 35.364-18.093 0-32.679-9.113-32.679-27.207 0-15.702 6.482-28.853 6.482-28.853 1.913-6.615 17.218-46.23-10.096-107.525-50.001-83.984-150.698-84.515-162.6-79.706-11.996 4.677-29.69 7.44-29.69 7.44-18.201 0-32.788-14.533-32.788-32.519 0-15.092 10.097-27.606 23.887-31.51 0 0 .32-.054.81-.16a27.186 27.186 0 0 1 3.109-.477c13.987-2.71 63.95-21.84 112.57-10.469 86.988 20.3 206.388 112.386 152.666 275.625h-.16z"/><path d="M422.039 439.089c-136.802 6.27-247.369 79.546-247.369 170.943 0 91.291 110.567 159.89 247.369 153.514 136.883-6.216 247.674-91.928 247.674-183.19 0-91.211-110.791-147.59-247.674-141.267zm93.177 229.846c-41.887 54.094-124.78 80.476-205.27 36.905-38.287-20.806-36.904-61.587-36.904-61.587s-15.89-128.912 121.685-144.986c137.785-16.02 162.388 115.574 120.489 169.668z"/></svg>