<svg class="icon" viewBox="0 0 1025 1024" xmlns="http://www.w3.org/2000/svg" width="64.063" height="64"><path d="M320.418 308.224c-19.443 0-39.074 13.056-39.074 32.849 0 19.712 19.631 32.93 39.074 32.93 19.47 0 32.525-13.218 32.525-32.93 0-19.793-13.042-32.849-32.525-32.849zm181.76 65.792c19.63 0 32.606-13.231 32.606-32.93 0-19.806-12.975-32.849-32.606-32.849-19.443 0-39.007 13.056-39.007 32.85.014 19.698 19.564 32.929 39.007 32.929z"/><path d="M512 0C229.214 0 0 229.2 0 512c0 282.786 229.214 512 512 512 282.8 0 512.013-229.214 512.013-512C1024.013 229.2 794.8 0 512 0zM404.844 644.083c-32.445 0-58.557-6.643-90.975-13.218l-90.799 46.188 25.937-79.212c-65.01-46.067-103.922-105.364-103.922-177.65 0-125.279 116.992-223.906 259.759-223.906 127.73 0 239.602 78.834 262.036 184.818-8.179-.93-16.56-1.536-25.007-1.536-123.392 0-220.82 93.373-220.82 208.29 0 19.213 2.977 37.645 8.003 55.228-8.003.66-16.034.998-24.212.998zm383.124 92.16 19.537 65.886-71.222-39.518c-26.045 6.575-52.049 13.15-77.918 13.15-123.568 0-221.01-85.598-221.01-190.976 0-105.284 97.442-191.057 221.01-191.057 116.641 0 220.577 85.76 220.577 191.057-.013 59.298-38.817 111.872-90.974 151.458z"/><path d="M729.533 499.106c-12.8 0-25.695 13.23-25.695 26.381 0 13.204 12.895 26.274 25.695 26.274 19.536 0 32.592-13.07 32.592-26.274-.013-13.15-13.056-26.381-32.592-26.381zm-142.875 0c-12.868 0-25.924 13.23-25.924 26.381 0 13.204 13.056 26.274 25.924 26.274 19.712 0 32.525-13.07 32.525-26.274 0-13.15-12.813-26.381-32.525-26.381z"/></svg>